<svg id="Capa_1" enable-background="new 0 0 511.129 511.129" height="512" viewBox="0 0 511.129 511.129" fill="#323756" width="512" xmlns="http://www.w3.org/2000/svg"><g><path d="m336.965 398.813c-32.591 8.114-64.926 17.778-98.809 17.961-33.951.183-66.868-9.089-99.743-16.499-11.346-2.557-22.691-5.114-34.037-7.672l-16.871 4.981 4.248 14.386 13.129-3.876c32.151 7.247 64.445 16.381 97.083 21.139v.62c12.588 0 22.828 10.24 22.828 22.828h15c0-7.743-2.342-14.948-6.35-20.949 14.874.213 29.743-.94 44.407-3.451 12.179.467 21.943 10.515 21.943 22.805h15c0-11.173-4.873-21.226-12.601-28.157l38.359-9.55c10.89 1.726 19.242 11.177 19.242 22.543h15c0-10.668-4.446-20.311-11.574-27.194 13.111-.985 26.973 1.192 39.783 4.038l3.254-14.643c-31.294-5.52-69.291.69-69.291.69z"/><path d="m165.504 306.575 4.844 14.196c39.881-13.606 83.542-12.86 122.94 2.101l86.678 32.916 5.325-14.022-86.678-32.916c-42.656-16.199-89.929-17.007-133.109-2.275z"/><path d="m118.095 318.803h37.946v15h-37.946z" transform="matrix(.919 -.394 .394 .919 -117.446 80.368)"/><path d="m359.861 184.334c-5.064-.156-10.202-.224-15.266-.203l.066 15c4.88-.022 9.847.044 14.734.196z"/><path d="m465.656 181.39c-78.643-32.975-164.492-41.97-248.297-26.006l-186.762 36.583 9.313 60.721 225.629-45.642c21.166-4.182 42.829-6.735 64.388-7.59l-.594-14.988c-22.333.886-44.774 3.531-66.734 7.869l-154.073 31.167 2.985-32.101 108.694-21.29c124.392-27.335 251.198 29.952 251.198 29.952l-44.706-8.435c-16.978-3.204-34.329-5.408-51.57-6.552l-.994 14.967c16.645 1.105 33.394 3.233 49.783 6.326l87.214 16.455v-22.369zm-418.052 22.53 19.314-3.783-2.396 32.268-12.172 2.462zm45.567 22.689-13.378 2.706 2.389-32.169 13.983-2.739z"/><path d="m4.766 196.115h15v61.053h-15z" transform="matrix(.987 -.159 .159 .987 -35.94 4.847)"/><path d="m254.456 87.161v36.616h15v-36.616l13.595 13.595 10.607-10.606-31.702-31.702-31.702 31.702 10.607 10.606z"/><path d="m360.12 87.161v36.616h15v-36.616l13.595 13.595 10.607-10.606-31.702-31.702-31.702 31.702 10.607 10.606z"/><path d="m149.629 371.277h15v15h-15z"/><path d="m179.629 371.277h15v15h-15z"/></g></svg>