<svg id="Capa_1" enable-background="new 0 0 512 512" height="512" viewBox="0 0 512 512" width="512" xmlns="http://www.w3.org/2000/svg"><g><path d="m3.969 199.908c2.636-3.203 7.342-3.656 10.516-1.049 3.203 2.637 3.657 7.342 1.049 10.517l-2.268 2.778c-2.636 3.175-7.342 3.628-10.517 1.021-3.204-2.637-3.657-7.342-1.02-10.517zm244.521-118.491v-59.699c0-4.139 3.374-7.512 7.512-7.512 4.139 0 7.484 3.373 7.484 7.512v59.699l3.004-2.977c2.92-2.947 7.655-2.947 10.603 0 2.92 2.92 2.92 7.683 0 10.602l-15.79 15.79c-2.919 2.92-7.682 2.92-10.602 0l-15.789-15.79c-2.948-2.919-2.948-7.682 0-10.602 2.92-2.947 7.683-2.947 10.603 0zm14.996 186.666v59.728c0 4.139-3.346 7.483-7.484 7.483s-7.512-3.345-7.512-7.483v-59.728l-2.976 3.005c-2.92 2.92-7.683 2.92-10.603 0-2.948-2.947-2.948-7.682 0-10.602l15.789-15.79c2.92-2.947 7.683-2.947 10.602 0l15.79 15.79c2.92 2.92 2.92 7.655 0 10.602-2.947 2.92-7.683 2.92-10.603 0zm226.891 70.386c-22.649 12.756-65.851 32.174-129.064 40.225l-4.763.566c-4.109.397-7.796-2.579-8.221-6.69-.397-4.11 2.579-7.795 6.69-8.192 44.646-5.045 108.313-21.742 144.854-49.663 3.345-2.552 8.021-2.013 10.573 1.36 1.531 1.984 1.871 4.337 1.22 6.718-.88 3.458-7.371 27.837-26.222 55.107l24.039 21.458c3.09 2.75 3.373 7.485.623 10.574-2.75 3.09-7.483 3.374-10.573.624l-23.131-20.636c-6.124 7.54-13.268 15.109-21.545 22.309l20.467 23.585c2.722 3.146 2.382 7.852-.765 10.574-3.119 2.692-7.824 2.353-10.546-.766l-20.835-24.011c-8.9 6.521-18.88 12.615-30.048 17.915l14.06 27.582c1.871 3.686.397 8.192-3.288 10.064-3.685 1.871-8.192.396-10.092-3.288l-14.513-28.46c-12.247 4.677-25.797 8.391-40.735 10.885l5.698 30.559c.736 4.054-1.956 7.938-6.01 8.702-4.055.737-7.966-1.956-8.703-6.009l-5.84-31.239c-11.281 1.162-23.272 1.645-36.058 1.332-2.126-.057-4.224-.142-6.293-.227l-2.098 31.381c-.283 4.11-3.854 7.229-7.993 6.973-4.11-.283-7.229-3.855-6.974-7.965l2.126-31.409c-14.628-1.332-28.148-3.656-40.706-6.774l-8.56 30.246c-1.107 3.969-5.245 6.293-9.214 5.188-3.997-1.134-6.321-5.272-5.188-9.241l8.561-30.247c-14.712-4.62-28.091-10.375-40.451-16.952l-15.478 27.242c-2.041 3.6-6.604 4.847-10.204 2.806-3.601-2.041-4.848-6.604-2.807-10.176l15.506-27.27c-13.323-8.136-25.456-17.15-36.908-26.59l-20.353 23.896c-2.666 3.147-7.371 3.516-10.518.851-3.118-2.664-3.516-7.37-.851-10.517l20.354-23.896c-8.561-7.484-16.839-15.138-25.003-22.707-1.955-1.786-3.883-3.572-5.811-5.358l-21.173 23.102c-2.778 3.034-7.483 3.26-10.545.482-3.033-2.778-3.231-7.513-.453-10.545l21.147-23.103c-6.747-6.067-13.551-11.963-20.496-17.519-3.203-2.579-3.741-7.257-1.162-10.489 2.58-3.231 7.257-3.741 10.488-1.162 13.239 10.602 25.711 22.111 38.155 33.648 61.372 56.808 108.485 89.237 193.271 91.391 67.098 1.701 125.975-21.855 162.231-70.953 7.797-10.572 14.571-22.337 20.128-35.291zm-442.358-38.949c3.544 2.126 4.706 6.719 2.579 10.262-2.125 3.543-6.718 4.705-10.261 2.579-5.33-3.203-10.971-6.236-16.924-9.014-5.897-2.75-11.962-5.188-18.227-7.228-3.94-1.304-6.096-5.527-4.82-9.44.682-2.07 2.155-3.628 3.97-4.479 4.45-2.211 73.531-35.774 124.104-.766 20.722 14.372 49.664 34.017 83.312 50.685 33.308 16.499 71.321 30.132 110.582 32.741 4.139.283 7.257 3.855 6.974 7.965-.283 4.139-3.827 7.257-7.966 6.974-41.528-2.75-81.385-17.008-116.223-34.271-34.527-17.094-64.037-37.135-85.184-51.79-30.615-21.175-70.216-12.558-92.299-4.961.708.311 1.417.652 2.098.964 6.209 2.919 12.304 6.179 18.285 9.779zm450.096-135.755c2.154-3.515 6.775-4.62 10.318-2.438 3.516 2.154 4.621 6.775 2.466 10.29l-1.869 3.033c-2.185 3.544-6.805 4.649-10.319 2.467-3.516-2.154-4.621-6.775-2.467-10.29zm-18.652-2.863c4.111.142 7.342 3.6 7.2 7.74-.142 4.138-3.6 7.341-7.738 7.199l-3.543-.113c-4.139-.17-7.371-3.628-7.229-7.738.142-4.139 3.628-7.371 7.739-7.229zm-28.489-1.559c4.138.057 7.397 3.486 7.313 7.597-.057 4.139-3.487 7.399-7.598 7.342l-3.571-.085c-4.139-.085-7.398-3.486-7.314-7.626.085-4.11 3.486-7.398 7.597-7.313zm-27.894-2.835c4.11.311 7.228 3.884 6.945 7.994-.312 4.139-3.884 7.257-7.994 6.945l-3.571-.255c-4.11-.283-7.228-3.884-6.945-7.995.312-4.138 3.884-7.228 7.994-6.944zm-27.666-3.797c4.11.481 7.059 4.224 6.576 8.333-.482 4.11-4.224 7.031-8.335 6.549l-3.543-.426c-4.11-.481-7.029-4.195-6.548-8.306.481-4.11 4.195-7.058 8.306-6.576zm-27.128-4.537c4.081.681 6.831 4.507 6.179 8.589-.651 4.082-4.507 6.832-8.589 6.18l-3.515-.595c-4.082-.652-6.831-4.508-6.18-8.561.681-4.082 4.507-6.861 8.589-6.18zm-26.08-5.074c4.054.766 6.746 4.678 5.981 8.732-.766 4.054-4.678 6.746-8.731 5.98l-3.515-.651c-4.054-.766-6.718-4.678-5.981-8.732.766-4.081 4.678-6.746 8.731-5.98zm-28.235-6.207c4.055.793 6.72 4.705 5.954 8.759-.794 4.083-4.706 6.747-8.76 5.953l-3.516-.651c-4.054-.794-6.718-4.707-5.952-8.788.793-4.054 4.705-6.719 8.759-5.925zm-28.743-6.889c4.025.964 6.52 4.989 5.584 9.015-.935 4.024-4.96 6.52-8.985 5.584l-3.486-.794c-4.025-.936-6.52-4.989-5.586-9.014.936-4.025 4.962-6.521 8.987-5.585zm-28.574-7.484c4.054.851 6.633 4.819 5.783 8.873-.851 4.054-4.819 6.634-8.873 5.783l-3.486-.766c-4.054-.851-6.633-4.818-5.783-8.873.879-4.054 4.848-6.634 8.901-5.783zm-28.971-6.633c4.11.623 6.916 4.479 6.293 8.561-.652 4.083-4.479 6.888-8.561 6.265l-3.516-.539c-4.11-.623-6.916-4.451-6.293-8.561.652-4.082 4.48-6.888 8.562-6.265zm-28.346-3.77c4.139.142 7.342 3.601 7.2 7.738-.142 4.11-3.601 7.342-7.739 7.2l-3.544-.142c-4.139-.142-7.37-3.6-7.2-7.738.142-4.11 3.601-7.342 7.711-7.2zm-27.412-.822c4.139-.17 7.625 3.033 7.796 7.172.198 4.11-3.005 7.597-7.144 7.796l-3.544.142c-4.139.17-7.625-3.033-7.795-7.144-.198-4.139 3.005-7.625 7.144-7.795zm308.53 74.383c3.346-2.382 8.022-1.588 10.432 1.757 2.381 3.374 1.588 8.051-1.757 10.432l-2.92 2.069c-3.373 2.409-8.022 1.616-10.432-1.758-2.381-3.373-1.616-8.021 1.758-10.431zm-22.167 16.611c3.855-1.474 8.191.482 9.666 4.337 1.474 3.856-.482 8.193-4.338 9.667l-3.344 1.275c-3.855 1.474-8.192-.483-9.667-4.337-1.474-3.855.482-8.193 4.337-9.667zm-26.221 12.105c3.969-1.134 8.107 1.162 9.24 5.131 1.105 3.968-1.189 8.107-5.13 9.241l-3.431.964c-3.969 1.134-8.107-1.162-9.241-5.103-1.134-3.968 1.162-8.106 5.131-9.24zm-29 7.88c4.082-.566 7.853 2.296 8.419 6.379.567 4.11-2.296 7.881-6.378 8.447l-3.515.482c-4.11.566-7.882-2.296-8.448-6.378s2.297-7.881 6.379-8.448zm-32.627 3.544c4.139-.114 7.568 3.147 7.653 7.285.085 4.11-3.175 7.541-7.285 7.654l-3.571.085c-4.11.085-7.541-3.175-7.654-7.313-.085-4.11 3.175-7.54 7.313-7.626zm-31.267-.596c4.11.142 7.342 3.628 7.2 7.739-.142 4.139-3.6 7.342-7.738 7.2l-3.572-.113c-4.11-.17-7.342-3.628-7.2-7.738.142-4.139 3.601-7.371 7.739-7.229zm-30.502-3.543c4.11.482 7.06 4.195 6.605 8.305-.482 4.11-4.195 7.059-8.306 6.577l-3.544-.397c-4.109-.482-7.058-4.195-6.576-8.306.453-4.11 4.167-7.058 8.277-6.577zm-27.865-5.329c4.054.964 6.52 5.017 5.584 9.042-.964 4.026-4.989 6.52-9.042 5.556l-3.459-.821c-4.025-.964-6.521-4.99-5.557-9.015.936-4.054 4.989-6.548 9.016-5.584zm-30.898-7.087c4.082.652 6.831 4.507 6.18 8.561-.652 4.082-4.508 6.859-8.59 6.208l-3.515-.596c-4.082-.651-6.831-4.507-6.18-8.589.652-4.054 4.508-6.831 8.589-6.18zm-28.886-5.641c4.081.623 6.859 4.479 6.207 8.533-.651 4.082-4.479 6.859-8.561 6.236l-3.515-.567c-4.082-.652-6.86-4.479-6.208-8.561s4.479-6.861 8.561-6.208zm-29.34-4.848c4.11.511 7.03 4.252 6.549 8.363-.51 4.11-4.253 7.03-8.363 6.52l-3.543-.425c-4.11-.511-7.03-4.252-6.52-8.363.511-4.11 4.225-7.03 8.334-6.52zm-28.601-3.656c4.11.368 7.143 3.968 6.774 8.078-.34 4.111-3.969 7.172-8.078 6.804l-3.544-.312c-4.111-.34-7.145-3.968-6.804-8.079.368-4.11 3.968-7.172 8.079-6.804zm-29.057-2.609c4.139.312 7.229 3.884 6.945 8.022-.283 4.11-3.884 7.229-7.994 6.945l-3.571-.255c-4.11-.311-7.229-3.884-6.917-8.023.284-4.109 3.855-7.228 7.994-6.916zm-29.395-1.388c4.139-.085 7.54 3.203 7.597 7.342s-3.231 7.512-7.37 7.597l-3.543.057c-4.139.057-7.541-3.231-7.598-7.37-.057-4.11 3.231-7.512 7.37-7.568zm-28.887.141c4.111-.17 7.598 3.033 7.769 7.172.142 4.11-3.062 7.597-7.201 7.767l-3.543.142c-4.139.17-7.598-3.062-7.768-7.172-.17-4.139 3.062-7.625 7.172-7.767zm-28.885 1.9c4.082-.567 7.852 2.324 8.391 6.406.567 4.11-2.324 7.852-6.406 8.419l-3.544.481c-4.081.539-7.853-2.325-8.391-6.435-.567-4.082 2.324-7.852 6.407-8.391zm96.012-79.401c4.081-.709 7.965 2.013 8.674 6.094.708 4.082-2.041 7.966-6.095 8.675l-3.515.623c-4.082.709-7.966-2.042-8.674-6.094-.709-4.082 2.013-7.966 6.094-8.675zm-28.716 6.208c3.854-1.503 8.192.396 9.695 4.252 1.502 3.854-.398 8.192-4.252 9.695l-3.317 1.304c-3.855 1.502-8.192-.396-9.695-4.252-1.502-3.856.397-8.193 4.252-9.695zm-26.675 9.865c3.629-1.985 8.164-.652 10.148 2.977 1.984 3.628.623 8.163-3.005 10.147l-3.118 1.701c-3.628 1.984-8.164.652-10.119-2.977-1.984-3.628-.652-8.164 2.977-10.147zm-23.84 12.699c3.401-2.324 8.079-1.445 10.403 1.956s1.445 8.079-1.956 10.404l-2.948 2.012c-3.401 2.325-8.079 1.446-10.403-1.955-2.324-3.431-1.445-8.08 1.956-10.404zm-22.478 16.13c2.947-2.892 7.682-2.863 10.573.085s2.862 7.682-.086 10.574l-2.523 2.495c-2.948 2.891-7.682 2.862-10.574-.086-2.92-2.947-2.863-7.682.085-10.574zm-20.949 19.786c2.607-3.203 7.342-3.657 10.517-1.049 3.175 2.636 3.656 7.342 1.021 10.517l-2.268 2.777c-2.608 3.175-7.313 3.629-10.517 1.021-3.175-2.636-3.629-7.342-1.021-10.517z"/></g></svg>