<svg id="Capa_1" enable-background="new 0 0 511 511" height="512" viewBox="0 0 511 511" fill="#323756" width="512" xmlns="http://www.w3.org/2000/svg"><g><path d="m131.796 56.292h15v15h-15z" transform="matrix(.91 -.415 .415 .91 -13.912 63.603)"/><path d="m144.253 83.583h15v15h-15z" transform="matrix(.91 -.415 .415 .91 -24.12 71.241)"/><path d="m315.662 262.843c-1.287-5.15-3.056-10.311-5.255-15.338l-13.742 6.014c1.865 4.262 3.36 8.623 4.445 12.961z"/><path d="m281.993 229.795c3.039 3.78 5.789 7.636 8.173 11.46l12.729-7.937c-2.699-4.329-5.798-8.677-9.211-12.922z"/><path d="m272.519 219.144 10.733-10.479c-3.479-3.563-7.281-7.161-11.301-10.69l-9.897 11.271c3.732 3.277 7.253 6.608 10.465 9.898z"/><path d="m303.222 279.928c.304 4.598.17 9.269-.206 13.858l14.95 1.223c.437-5.342.577-10.721.222-16.071z"/><path d="m298.187 320.363-58.765-128.74c3.994 2.798 7.837 5.62 11.419 8.395l9.185-11.859c-3.887-3.01-8.052-6.069-12.379-9.091l-8.44 12.084-75.599-165.62c-3.684-8.07-5.552-16.66-5.552-25.531h-15c0 11.035 2.324 21.721 6.906 31.76l141.095 309.106c-14.864 34.407-51.492 56.634-88.502 56.634-37.451 0-72.041-21.87-88.12-55.716l-13.549 6.437c10.051 21.157 26.716 38.869 47.197 50.225-6.352 16.199-11.278 33.045-14.621 50.113l14.721 2.884c3.108-15.867 7.662-31.531 13.514-46.614 12.938 5.043 26.762 7.672 40.858 7.672 46.767 0 87.158-29.124 104.94-71.744l-8.511-18.647 13.254 3.75c1.434-5.069 2.643-10.194 3.593-15.232l-14.74-2.779c-.78 4.133-1.761 8.335-2.904 12.513z"/><path d="m128.056 511h15c-.017-5.251-.023-10.506.149-15.755l-14.992-.492c-.104 3.17-.157 16.247-.157 16.247z"/><path d="m129.13 479.355 14.944 1.29c.419-4.859.976-9.771 1.655-14.602l-14.854-2.087c-.715 5.094-1.302 10.275-1.745 15.399z"/><path d="m422.256 236.373-31.702-31.702-31.701 31.702 10.606 10.606 13.596-13.595v36.616h15v-36.616l13.595 13.595z"/><path d="m283.845 145.735 10.606 10.606 13.595-13.595v36.616h15v-36.615l13.596 13.595 10.606-10.607-31.702-31.702z"/><path d="m91.056 317.001h15v15h-15z" transform="matrix(.923 -.386 .386 .923 -117.494 63.088)"/></g></svg>