<svg id="Capa_1" enable-background="new 0 0 511 511" height="512" viewBox="0 0 511 511" width="512" xmlns="http://www.w3.org/2000/svg"><g><path d="m180.932 511h15c-.017-5.251-.023-10.506.149-15.755l-14.992-.492c-.104 3.17-.157 16.247-.157 16.247z"/><path d="m182.006 479.355 14.944 1.29c.419-4.859.976-9.771 1.655-14.602l-14.854-2.087c-.716 5.094-1.303 10.275-1.745 15.399z"/><path d="m204.279 110.256c24.195 12.308 46.989 28.354 67.89 45.56 46.197 38.031 91.143 93.36 74.876 157.51l14.539 3.688c1.929-7.603 3.034-15.801 3.327-24.514h10.52c28.937 0 29.017-45 0-45h-16.078c-10.284-34.133-35.492-68.141-75.235-101.378-30.02-25.105-58.69-41.503-67.515-46.323l-24.313-72.94c-2.893-8.676-4.359-17.712-4.359-26.858h-15c0 21.487 8.508 41.741 15.204 61.827 5.381 16.142 10.763 32.285 16.144 48.428zm171.152 152.244c8.625 0 9.448 10.808 2.917 14.41-3.474 1.916-10.04.59-13.708.59-.335-5.027-.872-10.035-1.729-15z"/><path d="m210.931 315h15v15h-15z"/><path d="m210.931 345h15v15h-15z"/><path d="m210.931 180h15v15h-15z"/><path d="m210.931 150h15v15h-15z"/><path d="m398.644 386.021-31.535-31.535-10.607 10.606 31.536 31.535c7.032 7.032-3.872 17.921-10.896 10.896l-90.302-90.302 10.896-10.896 27.128 27.128 10.607-10.606-111.74-111.738c-22.159 22.159-29.698 55.735-5.303 80.13l37.069 37.069 10.607-10.606 43.047 43.047c-29.784 15.726-67.201 17.446-100.054 12.533-9.721 24.165-17.748 49.697-22.759 75.276l14.721 2.884c2.952-15.071 11.474-44.495 17.765-61.803 16.763 1.536 64.699 3.574 101.343-17.875l46.367 46.367c20.698 20.694 52.832-11.388 32.11-32.11zm-132.54-89.533-10.607 10.606-26.462-26.462c-12.966-12.966-14.558-33.065-4.776-47.784l62.87 62.871-10.896 10.897z"/><path d="m338.361 336.511h15v14.67h-15z" transform="matrix(.707 -.707 .707 .707 -141.835 345.271)"/><path d="m165.405 195h-15v15h-15v15h15v15h15v-15h15v-15h-15z"/><path d="m105.664 255.496h15v15h-15z"/></g></svg>