<svg id="Capa_1" enable-background="new 0 0 512 512" height="512" viewBox="0 0 512 512" width="512" xmlns="http://www.w3.org/2000/svg"><g>
	<path class="st0" d="M188.3,407.6c-4.1,0.7-7.9-2.1-8.6-6.2c-0.7-4.1,2.1-7.9,6.2-8.6c17.9-2.9,33.6-12.1,44.9-25.3
		c11.1-13,17.7-29.9,17.7-48.3c0-4.1,3.3-7.5,7.5-7.5c4.1,0,7.5,3.4,7.5,7.5c0,18.5,6.7,35.3,17.7,48.3c11.2,13.2,27,22.4,44.9,25.3
		c4.1,0.7,6.9,4.5,6.2,8.6c-0.6,4.1-4.5,6.9-8.5,6.2c-21.5-3.4-40.4-14.5-53.9-30.4c-5.6-6.6-10.3-14.1-13.8-22.1
		c-3.5,8.1-8.2,15.5-13.9,22.1C228.7,393,209.7,404.2,188.3,407.6L188.3,407.6z M40.6,446.6c-1-4,1.5-8.1,5.5-9c4-1,8.1,1.5,9.1,5.5
		c2.4,9.6,5.3,19.3,8.7,29c3.4,9.7,7.4,19.4,12,29.3c1.7,3.7,0.1,8.2-3.7,9.9c-3.7,1.7-8.2,0.1-9.9-3.7
		c-4.7-10.2-8.9-20.4-12.5-30.7C46.1,466.8,43.1,456.6,40.6,446.6z M236.3,504.5c0,4.1-3.4,7.5-7.5,7.5c-4.1,0-7.5-3.4-7.4-7.5
		c0.2-24.7-1.5-115.1,34.7-115.1c36.2,0,34.5,90.3,34.6,115.1c0,4.1-3.3,7.5-7.4,7.5c-4.1,0-7.5-3.3-7.5-7.5
		c-0.1-16.1,1.8-100.2-19.7-100.2C234.5,404.4,236.4,488.5,236.3,504.5L236.3,504.5z M449.8,507.7c-1.7,3.7-6.2,5.4-9.9,3.7
		c-3.8-1.7-5.4-6.2-3.7-9.9c28-60.2,33.7-119.4,28.7-172c-5-52.8-20.9-99-35.9-133c-6.3-14.2-11.8-30.3-16.6-47
		c-4.8-16.4-8.8-33.6-12.3-50.1c-0.9-4.1,1.8-8,5.8-8.8c4-0.8,8,1.8,8.8,5.8c3.3,16,7.3,32.8,12,49.1c4.6,16.1,9.9,31.6,15.9,45.1
		c15.5,35,31.8,82.8,37.1,137.6C485,382.9,479.1,444.7,449.8,507.7L449.8,507.7z M408.5,63.1c0.7,4.1-2.1,7.9-6.1,8.6
		c-4.1,0.7-8-2-8.6-6.1c-5.7-32.9-8.3-57.2-8.3-57.3C385,4.2,388,0.5,392.1,0c4.1-0.5,7.8,2.5,8.2,6.6
		C400.3,6.8,402.9,30.4,408.5,63.1z M111.7,6.7c0.4-4.1,4.1-7.1,8.2-6.6c4.1,0.4,7.1,4.1,6.7,8.2c0,0.3-12.6,118-43.6,188.1
		c-11.1,25.3-22.8,57.3-30.1,93.8c-7.3,36.4-10.3,77.3-4.2,120.2c0.6,4.1-2.2,7.9-6.3,8.5c-4.1,0.6-7.9-2.3-8.4-6.4
		c-6.4-44.8-3.3-87.4,4.3-125.2c7.5-37.7,19.6-70.9,31.1-97C99.4,122.3,111.7,7,111.7,6.7z M184.7,84c0-4.1,3.3-7.5,7.5-7.5
		c4.1,0,7.5,3.4,7.5,7.5c0,20.6-1.6,40.4-4.4,59.2c-2.2,14-5,27.4-8.6,40.1l3.4-1.9c3.6-2,8.2-0.6,10.1,3c2,3.6,0.7,8.2-3,10.1
		L178,205c-3.6,2-8.2,0.7-10.1-3l-10.5-19.2c-2-3.6-0.7-8.2,3-10.1c3.6-2,8.2-0.6,10.1,3l1.8,3.2c3.3-11.9,6-24.6,8.1-37.9
		C183.2,123,184.7,103.8,184.7,84L184.7,84z M312.3,84c0-4.1,3.4-7.5,7.5-7.5s7.5,3.4,7.5,7.5c0,19.8,1.5,39,4.3,57
		c2,13.3,4.7,26,8.1,37.9l1.8-3.2c2-3.6,6.5-5,10.1-3c3.6,2,5,6.5,3,10.1l-10.5,19.2c-2,3.6-6.5,5-10.1,3l-19.2-10.5
		c-3.6-2-5-6.5-3-10.1c2-3.6,6.5-5,10.1-3l3.4,1.9c-3.6-12.7-6.5-26.1-8.6-40.1C313.9,124.4,312.3,104.6,312.3,84L312.3,84z
		 M345.9,220.3c4.1-0.7,7.9,2,8.7,6c0.7,4.1-2,7.9-6,8.7c-1.8,0.3-3.5,0.7-5.2,1.1c-1.6,0.4-3.3,0.9-5.1,1.5
		c-3.9,1.3-8.2-0.8-9.5-4.7c-1.3-3.9,0.8-8.1,4.7-9.5c2-0.7,4-1.2,6.2-1.8C341.7,221.1,343.8,220.6,345.9,220.3L345.9,220.3z
		 M305.7,238.9c3.2-2.6,7.9-2.2,10.6,1c2.6,3.2,2.2,7.9-1,10.5c-1.4,1.2-2.7,2.4-3.9,3.5c-1.3,1.3-2.5,2.5-3.6,3.7
		c-2.8,3.1-7.5,3.3-10.5,0.6c-3.1-2.7-3.3-7.5-0.6-10.5c1.5-1.6,2.9-3.1,4.4-4.6C302.6,241.5,304.1,240.1,305.7,238.9L305.7,238.9z
		 M280.4,274.5c1.4-3.9,5.7-5.9,9.6-4.5c3.9,1.4,5.9,5.7,4.5,9.6c-0.6,1.6-1.1,3.2-1.6,4.8c-0.4,1.5-0.8,3.2-1.2,5
		c-0.8,4.1-4.7,6.7-8.8,5.9c-4.1-0.8-6.7-4.7-5.9-8.8c0.4-1.9,0.9-4,1.5-6.1C279.1,278.4,279.7,276.4,280.4,274.5L280.4,274.5z
		 M277,317.5c-0.8-4.1,1.9-8,5.9-8.8s8,1.9,8.8,5.9c0.3,1.8,0.7,3.5,1.2,5c0.5,1.6,1,3.3,1.6,4.9c1.4,3.9-0.6,8.2-4.5,9.6
		c-3.9,1.4-8.2-0.6-9.6-4.5c-0.7-2-1.3-3.9-1.9-6C277.9,321.5,277.4,319.5,277,317.5L277,317.5z M296.6,356.4
		c-2.8-3.1-2.5-7.8,0.6-10.5c3.1-2.8,7.8-2.5,10.5,0.6c1.1,1.2,2.3,2.5,3.7,3.7c1.2,1.1,2.5,2.3,3.9,3.5c3.2,2.6,3.7,7.3,1,10.5
		c-2.6,3.2-7.4,3.6-10.6,1c-1.5-1.3-3.1-2.7-4.7-4.2C299.5,359.6,298,358,296.6,356.4L296.6,356.4z M333.5,380.6
		c-3.9-1.3-6-5.6-4.7-9.5c1.3-3.9,5.6-6,9.5-4.7c1.8,0.6,3.5,1.1,5.1,1.5c1.7,0.5,3.5,0.8,5.2,1.1c4.1,0.7,6.7,4.6,6,8.7
		c-0.7,4.1-4.6,6.8-8.7,6c-2.1-0.4-4.2-0.8-6.3-1.4C337.5,381.8,335.4,381.2,333.5,380.6L333.5,380.6z M377.9,383.8
		c-4.1,0.7-7.9-2-8.7-6c-0.7-4.1,2-7.9,6-8.7c1.8-0.3,3.5-0.7,5.2-1.1c1.6-0.4,3.4-0.9,5.1-1.5c3.9-1.3,8.1,0.8,9.4,4.7
		c1.3,3.9-0.8,8.2-4.7,9.5c-2,0.7-4,1.2-6.2,1.8C382.1,382.9,380,383.4,377.9,383.8L377.9,383.8z M418.1,365.2
		c-3.2,2.6-7.9,2.2-10.5-1c-2.6-3.2-2.2-7.9,1-10.5c1.4-1.2,2.7-2.4,3.9-3.5c1.3-1.3,2.6-2.5,3.6-3.7c2.8-3.1,7.5-3.3,10.5-0.6
		c3.1,2.7,3.3,7.5,0.6,10.5c-1.5,1.6-2.9,3.2-4.4,4.6C421.3,362.5,419.7,363.9,418.1,365.2L418.1,365.2z M443.4,329.6
		c-1.4,3.9-5.7,5.9-9.6,4.5c-3.9-1.4-5.9-5.7-4.5-9.6c0.6-1.6,1.1-3.3,1.6-4.9c0.4-1.5,0.8-3.2,1.2-5c0.8-4.1,4.7-6.7,8.8-5.9
		c4.1,0.8,6.7,4.7,5.9,8.8c-0.4,2-0.9,4-1.4,6.1C444.7,325.7,444.1,327.6,443.4,329.6L443.4,329.6z M446.7,286.5
		c0.8,4.1-1.8,8-5.9,8.8c-4.1,0.8-8-1.9-8.8-5.9c-0.3-1.8-0.7-3.5-1.2-5c-0.5-1.6-1-3.3-1.6-4.9c-1.4-3.9,0.6-8.2,4.5-9.6
		c3.9-1.4,8.2,0.6,9.6,4.5c0.7,1.9,1.4,3.9,1.9,6C445.9,282.5,446.4,284.6,446.7,286.5L446.7,286.5z M427.2,247.6
		c2.8,3.1,2.5,7.8-0.6,10.5c-3.1,2.8-7.8,2.5-10.5-0.6c-1.1-1.2-2.3-2.5-3.6-3.7c-1.2-1.1-2.5-2.3-3.9-3.5c-3.2-2.6-3.6-7.3-1-10.5
		c2.6-3.2,7.4-3.6,10.5-1c1.6,1.3,3.1,2.7,4.7,4.2C424.3,244.5,425.8,246,427.2,247.6L427.2,247.6z M390.3,223.4
		c3.9,1.3,6,5.6,4.7,9.5c-1.3,3.9-5.5,6-9.5,4.7c-1.8-0.6-3.5-1.1-5.1-1.5c-1.7-0.5-3.4-0.8-5.2-1.1c-4.1-0.7-6.8-4.6-6-8.7
		c0.7-4.1,4.6-6.8,8.7-6c2.1,0.4,4.2,0.8,6.3,1.4C386.3,222.2,388.4,222.8,390.3,223.4L390.3,223.4z M163.5,235
		c-4.1-0.7-6.8-4.6-6-8.7c0.7-4.1,4.6-6.8,8.7-6c2.1,0.4,4.2,0.8,6.3,1.4c2.2,0.6,4.2,1.2,6.2,1.8c3.9,1.3,6,5.6,4.7,9.5
		c-1.3,3.9-5.6,6-9.5,4.7c-1.8-0.6-3.5-1.1-5.1-1.5C167,235.7,165.2,235.3,163.5,235L163.5,235z M196.8,250.4
		c-3.2-2.6-3.6-7.3-1-10.5c2.6-3.2,7.3-3.6,10.5-1c1.6,1.3,3.1,2.7,4.7,4.2c1.4,1.4,2.9,2.9,4.4,4.6c2.8,3.1,2.5,7.8-0.6,10.5
		c-3.1,2.8-7.8,2.5-10.5-0.6c-1.1-1.2-2.3-2.5-3.6-3.7C199.5,252.7,198.2,251.6,196.8,250.4L196.8,250.4z M217.5,279.6
		c-1.4-3.9,0.6-8.2,4.5-9.6c3.9-1.4,8.2,0.6,9.6,4.5c0.7,1.9,1.3,3.9,1.9,6c0.6,2.1,1,4.2,1.4,6.1c0.8,4.1-1.9,8-5.9,8.8
		s-8-1.9-8.8-5.9c-0.3-1.8-0.7-3.5-1.2-5C218.6,282.8,218.1,281.2,217.5,279.6z M220.2,314.7c0.8-4.1,4.7-6.7,8.8-5.9
		c4.1,0.8,6.7,4.7,5.9,8.8c-0.4,2-0.9,4-1.4,6.1c-0.6,2-1.2,4-1.9,6c-1.4,3.9-5.7,5.9-9.6,4.5c-3.9-1.4-5.9-5.7-4.5-9.6
		c0.6-1.6,1.1-3.2,1.6-4.9C219.5,318.1,219.9,316.4,220.2,314.7L220.2,314.7z M204.3,346.4c2.8-3.1,7.5-3.3,10.5-0.6
		c3.1,2.7,3.3,7.5,0.6,10.5c-1.5,1.6-2.9,3.2-4.4,4.6c-1.6,1.5-3.2,2.9-4.7,4.2c-3.2,2.6-7.9,2.2-10.5-1c-2.6-3.2-2.2-7.9,1-10.5
		c1.4-1.2,2.7-2.3,3.9-3.5C202,348.9,203.2,347.6,204.3,346.4L204.3,346.4z M173.8,366.4c3.9-1.3,8.2,0.8,9.5,4.7
		c1.3,3.9-0.8,8.1-4.7,9.5c-2,0.7-4,1.2-6.2,1.8c-2.1,0.5-4.2,1-6.3,1.4c-4.1,0.7-8-2-8.7-6c-0.7-4.1,2-7.9,6-8.7
		c1.8-0.3,3.5-0.7,5.2-1.1C170.3,367.5,172,367,173.8,366.4L173.8,366.4z M136.7,369.1c4.1,0.7,6.8,4.6,6,8.7
		c-0.7,4.1-4.6,6.8-8.7,6c-2.1-0.4-4.2-0.8-6.3-1.4c-2.2-0.6-4.2-1.2-6.2-1.8c-3.9-1.3-6-5.6-4.7-9.5c1.3-3.9,5.6-6,9.5-4.7
		c1.8,0.6,3.5,1.1,5.1,1.5C133.2,368.4,135,368.7,136.7,369.1L136.7,369.1z M103.4,353.6c3.2,2.6,3.6,7.4,1,10.5
		c-2.6,3.2-7.3,3.6-10.5,1c-1.6-1.3-3.1-2.7-4.7-4.2c-1.4-1.4-2.9-2.9-4.4-4.6c-2.8-3.1-2.5-7.8,0.6-10.5c3.1-2.8,7.8-2.5,10.5,0.6
		c1.1,1.2,2.3,2.4,3.6,3.7C100.7,351.3,102,352.4,103.4,353.6L103.4,353.6z M82.7,324.5c1.4,3.9-0.6,8.2-4.5,9.6
		c-3.9,1.4-8.2-0.6-9.6-4.5c-0.7-1.9-1.4-3.9-1.9-6c-0.6-2.1-1.1-4.1-1.4-6.1c-0.8-4.1,1.9-8,5.9-8.8s8,1.9,8.8,5.9
		c0.3,1.8,0.7,3.5,1.2,5C81.6,321.2,82.1,322.9,82.7,324.5z M80,289.4c-0.8,4.1-4.7,6.7-8.8,5.9s-6.7-4.7-5.9-8.8
		c0.4-1.9,0.9-4,1.4-6.1c0.6-2,1.2-4,1.9-6c1.4-3.9,5.7-5.9,9.6-4.5c3.9,1.4,5.9,5.7,4.5,9.6c-0.6,1.6-1.1,3.3-1.6,4.9
		C80.7,285.9,80.3,287.6,80,289.4L80,289.4z M95.9,257.6c-2.8,3.1-7.5,3.3-10.5,0.6c-3.1-2.7-3.3-7.5-0.6-10.5
		c1.5-1.6,2.9-3.2,4.4-4.6c1.6-1.5,3.1-2.9,4.7-4.2c3.2-2.6,7.9-2.2,10.5,1c2.6,3.2,2.2,7.9-1,10.5c-1.4,1.2-2.7,2.4-3.9,3.5
		C98.2,255.2,97,256.4,95.9,257.6z M126.4,237.6c-3.9,1.3-8.2-0.8-9.5-4.7c-1.3-3.9,0.8-8.1,4.7-9.5c2-0.7,4-1.2,6.2-1.8
		c2.1-0.5,4.2-1,6.3-1.4c4.1-0.7,8,2,8.7,6c0.7,4.1-2,7.9-6,8.7c-1.8,0.3-3.5,0.7-5.2,1.1C129.9,236.5,128.2,237,126.4,237.6
		L126.4,237.6z"/>
</g>
</svg>
