<svg id="Capa_1" enable-background="new 0 0 511 511" height="512" viewBox="0 0 511 511" fill="#323756" width="512" xmlns="http://www.w3.org/2000/svg"><g><path d="m458.954 90.846-76.673-71.141c-5.464-5.07-8.597-12.252-8.597-19.705h-15c0 11.612 4.882 22.802 13.395 30.701l76.674 71.141c1.707 1.584 1.553 4.252-.191 5.735l-44.877 39.005v20.396c4.06 7.165 10.282 14.92 12.864 22.733 2.159 6.534-5.366 9.695-9.773 13.368l-62.957 14.095-12.838-5.159-5.593 13.919 17.162 6.895 62.244-13.935c1.319 4.947 4.099 10.944 4.279 16.046.173 4.903-6.389 8.216-9.894 11.137-11.729 9.774-17.662 25.234-15.482 40.345l9.647 66.892c1.886 13.075-9.826 24.636-22.904 22.511l-213.813-34.625c-11.022-1.785-20.202-9.426-23.965-19.963l-72.424-200.782-14.11 5.09 72.414 200.758c5.594 15.662 19.267 27.043 35.685 29.703l112.036 18.143-14.487 38.196c-2.566 6.766-4.808 13.74-6.664 20.729l14.497 3.851c1.725-6.494 3.809-12.975 6.192-19.261l15.576-41.067 86.663 14.034c22.978 3.727 43.461-16.502 40.149-39.46l-9.647-66.892c-1.442-9.993 2.481-20.216 10.238-26.68 7.708-6.424 16.894-12.459 15.34-23.977-.949-7.034-3.628-14.077-5.455-20.927 8.887-7.406 18.902-16.348 11.719-29.025l-11.7-20.647v-9.604l39.652-34.464c8.459-7.183 8.754-20.561.618-28.109z"/><path d="m388.183 112.5h15v15h-15z" transform="matrix(.707 -.707 .707 .707 31.036 314.929)"/><path d="m238.016 511h15c0-10.231-.243-20.497.13-30.723l-14.99-.545c-.094 2.551-.14 31.268-.14 31.268z"/><path d="m239.296 464.176 14.909 1.647c.533-4.822 1.254-9.684 2.142-14.449l-14.746-2.749c-.956 5.129-1.731 10.361-2.305 15.551z"/><path d="m167.701 287.321 10.145-11.05c-3.559-3.267-7.063-6.684-10.414-10.155l-10.791 10.419c3.559 3.687 7.28 7.316 11.06 10.786z"/><path d="m179.383 297.422c3.974 3.234 8.099 6.393 12.26 9.388l8.763-12.175c-3.921-2.822-7.809-5.799-11.554-8.847z"/><path d="m136.569 253.052c3.085 4.091 6.342 8.145 9.68 12.05l11.401-9.747c-3.14-3.673-6.203-7.486-9.104-11.334z"/><path d="m224.982 310.211c-4.228-2.342-8.439-4.84-12.518-7.425l-8.029 12.67c4.326 2.742 8.794 5.392 13.279 7.876z"/><path d="m245.546 336.673 5.674-13.886c-4.468-1.826-8.944-3.811-13.304-5.9l-6.483 13.526c4.624 2.216 9.372 4.322 14.113 6.26z"/><path d="m260.005 342.087c4.853 1.656 9.817 3.186 14.757 4.549l3.989-14.46c-4.653-1.284-9.331-2.726-13.903-4.285z"/><path d="m87.292 139.811h15v15h-15z" transform="matrix(.942 -.336 .336 .942 -44.023 40.463)"/><path d="m77.202 111.558h15v15h-15z" transform="matrix(.942 -.336 .336 .942 -35.109 35.424)"/><path d="m97.382 168.063h15v15h-15z" transform="matrix(.942 -.336 .336 .942 -52.937 45.503)"/><path d="m112.236 213.618 13.449-6.642c-2.136-4.326-4.16-8.773-6.013-13.217l-13.844 5.774c1.976 4.737 4.132 9.475 6.408 14.085z"/><path d="m127.646 240.426 12.512-8.274c-2.663-4.026-5.23-8.186-7.632-12.362l-13.004 7.477c2.556 4.445 5.289 8.873 8.124 13.159z"/><path d="m152.107 180.084 25.891-25.892v19.227h15v-44.834h-44.832v15h19.227l-25.892 25.893z"/><path d="m226.823 254.799 25.891-25.891v19.226h15v-44.833h-44.833v15h19.227l-25.892 25.892z"/></g></svg>