<svg id="Capa_1" enable-background="new 0 0 510.833 510.833" height="512" viewBox="0 0 510.833 510.833" width="512" xmlns="http://www.w3.org/2000/svg"><g><path d="m212.2 437.46-8.45 12.394c4.174 2.944 8.595 5.533 12.929 8.23l7.898-12.752c-4.153-2.581-8.359-5.083-12.377-7.872z"/><path d="m189.08 419.786-9.838 11.323c3.861 3.448 7.95 6.827 12.123 9.872l8.841-12.118c-1.881-1.458-9.327-7.476-11.126-9.077z"/><path d="m168.222 399.549-11.149 10.035c3.296 3.662 6.768 7.13 10.126 10.484l.579.579 10.603-10.61-.581-.58c-3.368-3.365-6.549-6.542-9.578-9.908z"/><path d="m149.689 376.933-12.087 8.883c3.485 4.743 6.484 8.617 9.437 12.194l11.567-9.549c-2.769-3.355-5.603-7.018-8.917-11.528z"/><path d="m133.871 352.501-13.043 7.408c2.312 4.07 4.932 8.376 8.011 13.164l12.616-8.113c-2.929-4.554-5.41-8.629-7.584-12.459z"/><path d="m286.17 445.332 7.898 12.752c4.338-2.696 8.737-5.306 12.928-8.229l-8.449-12.395z"/><path d="m310.543 428.863 8.841 12.118c4.172-3.045 8.26-6.427 12.123-9.872l-9.838-11.323c-.001 0-8.242 6.974-11.126 9.077z"/><path d="m332.971 409.434-.604.603 10.604 10.609.602-.601c3.35-3.347 6.814-6.808 10.103-10.462l-11.149-10.035c-3.024 3.359-6.197 6.53-9.556 9.886z"/><path d="m352.141 388.461 11.567 9.549c2.951-3.574 5.95-7.449 9.437-12.194l-12.086-8.884c-3.317 4.513-6.151 8.176-8.918 11.529z"/><path d="m369.292 364.959 12.616 8.114c3.079-4.787 5.699-9.093 8.011-13.165l-13.044-7.406c-2.174 3.83-4.654 7.905-7.583 12.457z"/><path d="m157.667 135.334h15v15h-15z"/><path d="m187.667 135.334h15v15h-15z"/><path d="m440.778 133.589-14.793 2.484c1.337 7.958 2.015 16.121 2.015 24.26v65h-15.167c.905-60.931-28.8-125.809-86.509-151.344-22.27-9.854-46.757-13.651-70.991-13.651-5.458 0-10.783.199-15.987.578-7.282-6.095-13.469-12.408-13.704-22.583-.241-10.436 5.771-17.324 13.488-23.333h43.537c55.255 0 105.028 30.682 129.894 80.072l13.397-6.745c-13.158-26.135-33.226-48.198-58.033-63.803-25.505-16.044-54.987-24.524-85.258-24.524h-54.5c-88.408 0-160.334 71.925-160.334 160.333v96.562c0 22.797 11.385 44.276 30 57.149v14.419c-3.431 9.397-20.296 61.347 8.639 104.086 15.107 22.313 39.828 37.863 73.807 46.554v31.73h15v-28.451c17.843 3.287 37.862 4.951 60.054 4.951 22.279 0 42.368-1.676 60.263-4.989v28.489h15v-31.783c33.871-8.702 58.522-24.233 73.598-46.5 28.936-42.739 12.07-94.689 8.639-104.086v-14.3c18.715-12.861 30.167-34.403 30.167-57.269v-96.562c0-8.969-.748-17.967-2.222-26.744zm-357.945 26.744c0-76.528 59.458-139.426 134.603-144.937-4.268 6.322-6.677 13.791-6.815 21.644-.171 9.719 3.145 18.979 9.246 26.289-30.926 5.505-56.607 18.609-76.613 39.174-46.443 47.743-45.526 118.093-45.422 122.426v.404h-15v-65zm0 96.562v-16.562h15v54.05c-9.467-10.001-15-23.423-15-37.488zm308.878 167.336c-21.677 31.918-67.562 48.103-136.378 48.103s-114.701-16.184-136.378-48.103c-17.831-26.255-17.884-64.057-6.122-92.953v-103.338c11.384-11.384 22.523-25.074 36.857-32.775 13.967-7.504 27.537-6.539 42.644-8.65 15.697-2.193 30.61-8.973 42.544-19.419l-9.88-11.287c-12.173 10.656-27.798 16.524-43.998 16.524-27.972 0-48.122 14.348-66.983 33.21 2.713-23.355 11.536-63.389 40.07-92.663 50.2-51.504 152.294-51.503 202.493 0 19.971 20.49 30.286 46.25 35.608 67.873-30.068-42.221-76.939-70.258-129.355-76.156v-14.764h-15c0 20.179-.68 38.992-13.48 55.924l11.966 9.045c7.94-10.504 13.117-22.499 15.31-35.248 60.483 6.978 111.551 46.445 136.208 101.6.956 36.664-.077 73.444 0 110.122 11.69 28.953 11.741 66.648-6.126 92.955zm36.289-167.336c0 14.148-5.597 27.645-15.167 37.665v-54.226h15.167z"/><path d="m422.843 121.814 14.466-3.966c-1.386-5.057-3.042-10.102-4.922-14.994l-14.002 5.379c1.702 4.432 3.202 9.001 4.458 13.581z"/><path d="m246.667 30.43h15v15h-15z"/></g></svg>