<svg id="Capa_1" enable-background="new 0 0 512 512" height="512" viewBox="0 0 512 512" width="512" xmlns="http://www.w3.org/2000/svg"><g><path d="m180.775 451.399c-.85-4.889-1.281-10.238-1.281-15.883l.14-63.897c0-13.399-1.493-26.832-4.438-39.927-2.025-9.001-3.408-15.3-4.112-18.723-3.569-17.363-4.771-32.762-3.664-46.909 20.552-5.082 39.261-14.881 54.91-28.183l28.434 11.008c2.83 1.072 5.773 1.605 8.711 1.605 3.438 0 6.869-.731 10.097-2.188 5.997-2.708 10.58-7.594 12.904-13.758 4.789-12.702-1.631-26.944-14.312-31.748l-3.432-1.3c-3.391-1.285-6.55-3.134-9.34-5.418 7.429-14.582 12.285-30.684 13.966-47.705 13.996-1.018 25.765 1.609 40.353 8.798 28.096 13.847 44.412 44.923 40.598 77.33-.626 5.324-1.801 10.578-3.489 15.615-1.317 3.927.799 8.178 4.727 9.495.791.265 1.595.391 2.385.391 3.135 0 6.059-1.981 7.11-5.118 2.017-6.014 3.418-12.282 4.165-18.63 4.554-38.701-15.083-75.89-48.865-92.538-16.427-8.095-30.386-11.293-46.343-10.41-.134-10.83-1.544-21.358-4.097-31.437 22.99-24.139 57.597-32.569 89.21-21.44 32.488 11.438 54.688 41.087 56.559 75.532.64 11.794-1.167 23.427-5.37 34.573-1.461 3.876.496 8.203 4.372 9.664.872.329 1.766.484 2.645.484 3.032 0 5.886-1.852 7.019-4.855 4.942-13.107 7.066-26.794 6.312-40.679-2.2-40.525-28.324-75.408-66.555-88.868-19.089-6.721-39.486-7.473-58.985-2.17-15.074 4.098-28.805 11.578-40.309 21.852-4.524-11.564-10.599-22.355-17.967-32.12 34.291-33.652 86.453-38.842 115.232-38.842 34.383 0 65.437 11.108 89.804 32.124 3.138 2.705 7.873 2.355 10.578-.781s2.355-7.873-.781-10.578c-27.129-23.398-61.571-35.765-99.601-35.765-30.909 0-86.868 5.693-124.934 42.365-24.628-26.069-59.499-42.365-98.108-42.365-74.439 0-135 60.561-135 135 0 34.681 13.127 67.642 36.964 92.812 2.848 3.007 7.594 3.136 10.603.288 3.007-2.848 3.137-7.595.289-10.603-21.188-22.372-32.856-51.67-32.856-82.497 0-66.168 53.832-120 120-120s120 53.832 120 120-53.832 120-120 120c-21.785 0-43.116-5.895-61.684-17.045-3.552-2.131-8.159-.98-10.291 2.568-2.132 3.551-.982 8.158 2.568 10.291 20.901 12.552 44.902 19.186 69.407 19.186 5.82 0 11.555-.37 17.183-1.088-.72 14.428.661 29.924 4.187 47.078.722 3.514 2.125 9.904 4.169 18.994 2.702 12.016 4.072 24.342 4.072 36.619l-.14 63.897c0 6.521.505 12.733 1.502 18.468.634 3.646 3.801 6.217 7.38 6.217.426 0 .859-.036 1.293-.112 4.082-.71 6.815-4.594 6.106-8.674zm78.647-235.875 3.432 1.3c4.958 1.878 7.464 7.454 5.588 12.43-.909 2.41-2.699 4.32-5.04 5.377-2.331 1.053-4.932 1.133-7.272.247l-21.862-8.464c4.953-5.373 9.474-11.147 13.512-17.268 3.564 2.635 7.483 4.803 11.642 6.378z"/><path d="m482.214 62.944c-2.38-3.39-7.058-4.209-10.448-1.828-3.39 2.38-4.208 7.058-1.829 10.447 35.467 50.517 36.09 121.794 1.625 186.018-18.241 33.99-36.743 54.941-70.706 80.064-3.645 2.696-7.596 5.391-11.78 8.244-24.407 16.645-54.782 37.359-68.93 87.625-.042.148-.08.299-.112.45-6.205 28.757-23.772 63.036-72.215 63.036-10.373 0-37.927 0-54.428-18.074-2.794-3.061-7.538-3.274-10.596-.482-3.059 2.793-3.275 7.536-.482 10.596 20.962 22.96 53.324 22.96 65.506 22.96 45.531 0 76.359-26.503 86.829-74.639 12.694-44.855 39.354-63.034 62.881-79.079 4.306-2.937 8.373-5.71 12.25-8.578 35.959-26.6 55.586-48.851 75.001-85.03 37.161-69.248 36.178-146.546-2.566-201.73z"/><path d="m341.739 287.65c2.795-3.058 2.583-7.802-.474-10.597-3.057-2.794-7.8-2.582-10.596.474-7.773 8.502-17.513 15.264-28.167 19.554-12.001 4.834-21.703 14.611-26.616 26.824-1.955 4.859-5.681 8.662-10.49 10.708-4.794 2.038-10.095 2.086-14.924.136-9.998-4.041-14.849-15.485-10.816-25.513l7.115-17.687c1.546-3.843-.316-8.211-4.159-9.757-3.842-1.545-8.211.315-9.757 4.159l-7.115 17.687c-7.115 17.688 1.458 37.882 19.111 45.018 4.177 1.688 8.551 2.53 12.924 2.53 4.577 0 9.152-.924 13.492-2.77 8.501-3.616 15.083-10.333 18.536-18.914 3.397-8.445 10.069-15.19 18.304-18.508 12.722-5.123 24.352-13.196 33.632-23.344z"/><path d="m450.996 99.789c-3.707 1.849-5.212 6.353-3.364 10.059 3.077 6.167 4.764 12.763 5.47 21.385.321 3.92 3.602 6.888 7.467 6.888.205 0 .413-.008.621-.025 4.128-.338 7.201-3.959 6.863-8.087-.858-10.473-3.082-19.006-6.997-26.855-1.85-3.709-6.353-5.214-10.06-3.365z"/><path d="m458.246 197.147c3.518 0 6.657-2.487 7.354-6.069 1.6-8.229 2.761-16.669 3.45-25.086.338-4.128-2.734-7.749-6.863-8.087-4.126-.354-7.749 2.734-8.087 6.862-.645 7.869-1.729 15.758-3.225 23.447-.791 4.066 1.865 8.003 5.931 8.794.483.095.965.139 1.44.139z"/><path d="m434.724 253.721c1.114.586 2.308.864 3.485.864 2.696 0 5.302-1.459 6.644-4.011 3.88-7.377 7.374-15.129 10.383-23.04 1.473-3.871-.471-8.204-4.343-9.677-3.874-1.473-8.204.473-9.677 4.343-2.796 7.35-6.04 14.547-9.639 21.392-1.928 3.666-.519 8.201 3.147 10.129z"/><path d="m412.345 272.99c-4.942 6.151-10.324 11.993-15.995 17.362-3.008 2.848-3.138 7.595-.291 10.603 1.475 1.558 3.459 2.344 5.448 2.344 1.85 0 3.705-.681 5.155-2.054 6.164-5.835 12.01-12.181 17.376-18.86 2.594-3.229 2.079-7.95-1.15-10.544-3.229-2.596-7.949-2.078-10.543 1.149z"/><path d="m367.045 26.5c-4.142 0-7.5 3.357-7.5 7.5s3.358 7.5 7.5 7.5c4.594 0 12.231 1.562 17.335 4.455 1.168.662 2.438.977 3.692.977 2.612 0 5.151-1.367 6.531-3.802 2.043-3.604.778-8.181-2.826-10.224-7.805-4.426-18.046-6.406-24.732-6.406z"/><path d="m441.827 80.682c3.015-2.841 3.156-7.587.315-10.602-5.821-6.177-12.152-12.036-18.818-17.416-3.223-2.603-7.945-2.099-10.547 1.126-2.602 3.223-2.097 7.945 1.126 10.546 6.139 4.954 11.966 10.349 17.322 16.031 1.476 1.566 3.465 2.356 5.46 2.356 1.844.001 3.693-.676 5.142-2.041z"/><path d="m277.719 437.094c.806.277 1.627.408 2.434.408 3.115 0 6.026-1.957 7.094-5.068 2.542-7.411 5.539-14.787 8.905-21.922 1.767-3.746.163-8.216-3.583-9.983-3.746-1.765-8.216-.163-9.983 3.583-3.601 7.632-6.806 15.523-9.527 23.455-1.345 3.917.742 8.183 4.66 9.527z"/><path d="m317.038 351.217c-5.492 6.327-10.708 13.056-15.502 19.997-2.354 3.408-1.5 8.08 1.909 10.434 1.301.898 2.786 1.33 4.255 1.33 2.381 0 4.723-1.132 6.178-3.238 4.482-6.49 9.357-12.778 14.489-18.69 2.715-3.128 2.38-7.865-.748-10.58-3.13-2.717-7.867-2.381-10.581.747z"/><path d="m348.946 338.148c1.666 0 3.343-.552 4.734-1.687 6.091-4.965 12.489-9.572 19.017-13.693 3.502-2.211 4.55-6.843 2.339-10.345-2.211-3.504-6.843-4.552-10.346-2.339-7.038 4.442-13.931 9.405-20.488 14.75-3.21 2.617-3.691 7.342-1.074 10.553 1.483 1.819 3.641 2.761 5.818 2.761z"/><path d="m269.791 452.886c-3.742-1.78-8.215-.184-9.992 3.557-2.541 5.35-7.921 9.646-13.388 10.691-4.068.777-6.736 4.705-5.959 8.774.687 3.593 3.831 6.093 7.358 6.093.467 0 .941-.043 1.416-.134 10.091-1.929 19.559-9.383 24.122-18.989 1.778-3.742.185-8.216-3.557-9.992z"/><path d="m78.542 218.991c5.763 0 11.528-2.193 15.916-6.579l76.843-76.793c1.155 1.188 2.889 2.38 5.665 2.558 1.915.123 3.837-.731 5.302-2.195l18.411-18.399c8.603-8.598 13.341-20.031 13.341-32.194s-4.738-23.597-13.341-32.194c-2.929-2.928-7.675-2.928-10.604 0l-127.449 127.366c-4.256 4.253-6.6 9.909-6.6 15.926 0 6.018 2.344 11.674 6.6 15.926 4.389 4.386 10.151 6.578 15.916 6.578zm21.243-54.359 10.633 10.626-10.633 10.626-10.633-10.626zm21.242.022-10.633-10.626 39.664-39.639 10.633 10.626zm73.698-94.901c2.8 4.678 4.295 10.041 4.295 15.635 0 8.155-3.177 15.82-8.945 21.585l-13.109 13.101c-.288-.288-15.68-15.67-16.297-16.287zm-121.496 121.417 5.313-5.309 10.633 10.626-5.32 5.316c-2.93 2.928-7.696 2.929-10.626-.001-1.42-1.419-2.203-3.307-2.203-5.315s.783-3.897 2.203-5.317z"/></g></svg>