<svg id="Capa_1" enable-background="new 0 0 511.585 511.585" height="512" viewBox="0 0 511.585 511.585" fill="#323756" width="512" xmlns="http://www.w3.org/2000/svg"><g><path d="m230.277 253.374h15v14.841h-15z" transform="matrix(.697 -.718 .718 .697 -114.969 249.753)"/><path d="m478.82 288.283-266.09-173.852-8.204 12.557 260.982 170.517 26.192 117.411-44.359-111.189-261.332-159.084-.259.425-79.866-82.53 85.177 55.651 8.204-12.557-145.772-94.516-22.972-11.116-28.913 28.913 14.483 27.151 200.141 194.269 10.447-10.764-91.709-89.018 17.895-17.895 141.115 145.823-13.394 13.394-21.198-20.583-10.449 10.762 103.54 100.53 20.833 129.003 27.266-1.437v-143.086l-174.844-180.677 209.53 127.55 48.415 121.355 26.298-7.339zm-354.615-148.18-95.983-93.167-8.148-15.274 13.513-13.514 15.924 7.706 92.922 96.022zm261.373 353.346-19.083-118.166-75.145-72.96 13.063-13.063 81.165 83.873z"/><path d="m420.665 224.575h15v-15h15v-15h-15v-15h-15v15h-15v15h15z"/><path d="m465.664 149.575h15v15h-15z"/></g></svg>