<svg id="Capa_1" enable-background="new 0 0 512.02 512.02" height="512" viewBox="0 0 512.02 512.02" width="512" xmlns="http://www.w3.org/2000/svg"><g><path d="m142.258 388.016c-1.161-3.977-5.327-6.259-9.3-5.101-3.977 1.16-6.26 5.323-5.101 9.3 3.188 10.933 4.761 21.177 4.809 31.318 0 .107.003.216.009.323 1.258 26.335-3.676 52.465-14.665 77.663-1.656 3.797.08 8.217 3.876 9.873.976.426 1.993.627 2.994.627 2.892 0 5.648-1.684 6.878-4.504 11.896-27.277 17.248-55.612 15.906-84.216-.069-11.349-1.888-23.219-5.406-35.283z"/><path d="m487.636 306.951c6.019-2.026 24.332-8.194 24.374-27.391.028-12.817-9.143-19.914-15.211-24.61-11.601-8.979-19.142-16.845-25.216-26.3-2.661-4.343-2.661-11.759 1.319-17.791 4.633-7.021 9.545-15.199 7.404-24.44-.761-3.285-2.229-6.404-3.783-9.706-2.814-5.979-6.003-12.755-6.705-23.363-.826-19.905-6.437-40.393-15.804-57.705-12.011-22.99-33.047-42.99-62.529-59.45-3.617-2.019-8.186-.724-10.205 2.893s-.724 8.186 2.893 10.205c26.907 15.022 45.94 32.97 56.57 53.344 7.799 14.192 13.513 34.352 14.101 51.599.875 13.499 5.056 22.381 8.107 28.865 1.257 2.67 2.342 4.977 2.742 6.704.732 3.163-2.23 8.337-5.494 13.078-6.664 9.679-8.181 23.709-1.236 33.876 7.052 10.978 15.621 19.966 28.655 30.055 6.631 5.132 9.402 8.033 9.392 12.715-.009 4.086-1.111 8.813-14.161 13.209-10.614 3.574-13.248 10.521-13.874 14.343-1.749 10.683 7.091 20.567 12.011 24.303.442.336.993.909 1.104 1.729.129.95-.339 2.178-1.317 3.458-3.573 4.674-7.732 5.694-8.084 5.773-3.07.577-5.466 3-6.003 6.085-.543 3.116.929 6.238 3.678 7.804 2.382 1.356 5.267 3.345 5.481 5.119.118.982-.706 2.068-1.522 2.429-2.3 1.007-4.002 1.623-8.354 4.267-5.217 3.63-8.45 11.854-4.58 18.805 2.996 5.385 5.175 10.297 3.751 20.271-.333 2.335-1.886 8.77-5.29 14.211-6.588 10.179-21.59 7.222-27.756 5.47-3.98-1.135-8.132 1.178-9.265 5.163-1.133 3.983 1.179 8.132 5.163 9.265 2.385.678 4.722 1.198 7.01 1.583-11.149 5.874-22.541 8.333-32.353 9.766-4.099.598-6.937 4.405-6.338 8.504.544 3.731 3.749 6.418 7.411 6.418.361 0 .726-.026 1.093-.08 19.522-2.85 44.52-9.275 64.717-33.883 8.224-10.021 10.253-22.866 10.457-24.298 2.015-14.115-1.524-22.445-5.16-29.08 1.081-.636 1.673-.995 5.557-2.662 6.999-3.092 11.255-10.473 10.35-17.949-.37-3.069-1.465-5.839-3.343-8.384 1.784-1.457 3.594-3.26 5.296-5.487 4.381-5.729 4.738-11.09 4.267-14.577-.625-4.621-3.075-8.765-6.899-11.667-3.481-2.644-6.65-7.656-6.277-9.932.131-.819 1.61-1.797 3.856-2.554z"/><path d="m367.782 455.815c-9.947.951-21.383 2.563-30.778 7.318-19.336 9.785-28.414 28.545-32.105 38.856-1.396 3.899.635 8.192 4.534 9.589.835.299 1.688.44 2.527.44 3.078 0 5.965-1.91 7.062-4.975 2.938-8.209 10.062-23.091 24.756-30.527 7.169-3.628 16.879-4.953 25.433-5.771 4.123-.394 7.146-4.057 6.752-8.18s-4.043-7.149-8.181-6.75z"/><path d="m346.168 421.614c-7.946 2.449-19.304 7.192-26.158 20.044-1.95 3.654-.567 8.197 3.088 10.146 1.124.6 2.332.885 3.522.885 2.681 0 5.274-1.442 6.624-3.973 3.321-6.227 8.508-10.045 17.342-12.769 3.959-1.22 6.179-5.418 4.958-9.376-1.22-3.959-5.426-6.176-9.376-4.957z"/><path d="m403.735 433.52c3.275 0 6.285-2.163 7.216-5.472 1.121-3.987-1.202-8.129-5.189-9.25-10.938-3.076-16.914-3.748-29.045-3.274-4.14.162-7.363 3.648-7.201 7.787.162 4.14 3.642 7.361 7.787 7.201 10.616-.414 14.95.069 24.398 2.726.679.191 1.362.282 2.034.282z"/><path d="m204.632 19.396c48.849-10.063 94.033-.107 110.143 3.458 13.159 3.122 26.142 7.165 38.585 12.019.896.35 1.817.515 2.724.515 3 0 5.833-1.813 6.989-4.776 1.505-3.859-.403-8.208-4.262-9.713-13.108-5.112-26.778-9.369-40.632-12.652-.036-.009-.072-.017-.109-.025-18.807-4.161-75.552-16.715-134.206.949-15.158-5.905-31.633-9.152-48.855-9.152-74.439 0-135 60.561-135 135 0 43.323 20.517 81.938 52.339 106.657 6.265 23.216 13.127 39.199 24.192 56.415 12.312 19.117 27.698 41.28 38.61 62.819 1.322 2.607 3.959 4.11 6.695 4.11 1.141 0 2.299-.262 3.386-.812 3.694-1.874 5.17-6.388 3.297-10.081-11.387-22.422-25.653-42.883-39.37-64.146-7.465-11.615-12.742-22.343-17.328-35.69 18.862 10.032 40.367 15.728 63.179 15.728 10.787 0 21.525-1.277 31.917-3.797 4.025-.977 6.497-5.031 5.521-9.057-.976-4.025-5.034-6.496-9.056-5.521-9.235 2.239-18.785 3.375-28.382 3.375-66.168 0-120-53.832-120-120s53.832-120 120-120 120 53.832 120 120c0 43.309-23.476 83.416-61.267 104.67-3.61 2.03-4.891 6.604-2.86 10.214 2.031 3.609 6.604 4.889 10.214 2.86 42.507-23.907 68.913-69.023 68.913-117.744.001-48.988-26.228-91.961-65.377-115.623z"/><path d="m214.006 85.405c0-12.163-4.738-23.597-13.341-32.194-2.929-2.928-7.675-2.928-10.604 0l-127.448 127.367c-4.256 4.253-6.6 9.909-6.6 15.926 0 6.018 2.344 11.674 6.6 15.926 4.389 4.387 10.151 6.579 15.917 6.579 5.763 0 11.528-2.193 15.916-6.579l76.843-76.793c1.326 1.332 3.214 2.496 5.665 2.558 1.918.049 3.837-.731 5.302-2.195l18.411-18.399c8.601-8.599 13.339-20.033 13.339-32.196zm-114.235 100.496-10.633-10.626 10.633-10.626 10.633 10.626zm-26.555 15.918c-1.42-1.419-2.203-3.307-2.203-5.315s.782-3.896 2.203-5.316l5.313-5.309 10.633 10.626-5.32 5.316c-2.93 2.927-7.697 2.928-10.626-.002zm47.798-37.147-10.633-10.626 39.664-39.639 10.633 10.626zm69.048-57.682-13.109 13.101c-.288-.288-15.68-15.67-16.297-16.287l34.056-34.033c2.8 4.678 4.295 10.041 4.295 15.635-.001 8.155-3.177 15.82-8.945 21.584z"/></g></svg>