<svg id="Capa_1" enable-background="new 0 0 512.004 512.004" height="512" viewBox="0 0 512.004 512.004" width="512" xmlns="http://www.w3.org/2000/svg"><g><path d="m126.543 367.918c-.206-4.138-3.712-7.318-7.863-7.119-4.137.206-7.324 3.727-7.118 7.863 2.181 43.864 11.257 83.971 31.329 138.435 1.117 3.031 3.985 4.908 7.038 4.908.861 0 1.737-.149 2.593-.465 3.886-1.433 5.876-5.744 4.443-9.631-19.509-52.935-28.323-91.755-30.422-133.991z"/><path d="m118.422 340.904c.114.006.227.008.34.008 3.988 0 7.307-3.142 7.487-7.166.966-21.663 4.797-42.57 11.685-63.788 42.905-.934 83-22.305 107.716-57.593 2.376-3.393 1.552-8.069-1.84-10.446-3.393-2.376-8.07-1.553-10.446 1.841-22.474 32.087-59.245 51.243-98.362 51.243-66.168 0-120-53.832-120-120s53.832-120 120-120 120 53.832 120 120c0 13.681-2.282 27.096-6.781 39.873-1.376 3.907.676 8.189 4.583 9.565 3.909 1.374 8.189-.676 9.565-4.583 5.065-14.382 7.633-29.474 7.633-44.855 0-74.439-60.561-135-135-135s-135 60.561-135 135c0 70.183 53.835 128.019 122.377 134.405-6.499 21.122-10.15 42.031-11.115 63.67-.185 4.137 3.02 7.641 7.158 7.826z"/><path d="m469.439 196.928c-11.661-23.182-22.676-45.077-28.661-68.841-1.012-4.017-5.087-6.457-9.105-5.44-4.017 1.012-6.453 5.088-5.441 9.104 6.389 25.365 17.764 47.978 29.807 71.918 20.139 40.034 40.964 81.433 40.964 141.228 0 45.067-5.18 87.053-30.962 157.012-1.433 3.887.557 8.198 4.443 9.631.855.315 1.731.465 2.593.465 3.052 0 5.921-1.877 7.038-4.908 26.554-72.051 31.888-115.48 31.888-162.199-.001-63.356-22.614-108.309-42.564-147.97z"/><path d="m428.659 102.716c.063 0 .128-.001.192-.002 4.141-.104 7.413-3.546 7.309-7.687-.031-1.22-.046-2.447-.046-3.682 0-33.906 11.642-59.629 20.996-80.298l.206-.454c1.708-3.773.033-8.217-3.741-9.925-3.775-1.709-8.217-.033-9.925 3.741l-.205.453c-9.424 20.822-22.331 49.34-22.331 86.482 0 1.361.018 2.714.051 4.059.103 4.079 3.439 7.313 7.494 7.313z"/><path d="m240.372 414.158c1.083 3.086 3.981 5.017 7.076 5.017.824 0 1.663-.137 2.485-.426 10.136-3.56 19.765-8.799 28.62-15.571 3.29-2.517 3.917-7.224 1.4-10.514-2.516-3.29-7.223-3.916-10.514-1.4-7.598 5.812-15.833 10.297-24.477 13.333-3.907 1.371-5.962 5.653-4.59 9.561z"/><path d="m203.136 407.447c-10.076-2.129-19.952-6.32-29.355-12.458-3.468-2.266-8.117-1.288-10.38 2.181-2.264 3.469-1.288 8.116 2.181 10.38 10.963 7.156 22.555 12.06 34.454 14.573.522.11 1.044.164 1.558.164 3.469 0 6.585-2.422 7.331-5.951.855-4.053-1.737-8.033-5.789-8.889z"/><path d="m343.051 392.664c-2.517 3.29-1.89 7.997 1.4 10.514 8.855 6.772 18.484 12.012 28.62 15.571.822.289 1.661.426 2.485.426 3.095 0 5.993-1.931 7.076-5.017 1.373-3.908-.683-8.189-4.591-9.562-8.644-3.036-16.879-7.521-24.477-13.333-3.289-2.515-7.997-1.888-10.513 1.401z"/><path d="m449.224 394.989c-9.403 6.138-19.279 10.329-29.355 12.458-4.053.856-6.644 4.836-5.788 8.889.746 3.529 3.861 5.951 7.331 5.951.514 0 1.035-.054 1.558-.164 11.899-2.514 23.49-7.417 34.454-14.573 3.468-2.264 4.445-6.911 2.181-10.38-2.264-3.468-6.912-4.447-10.381-2.181z"/><path d="m403.535 453.503c-10.622 0-20.977-2.244-30.776-6.671-3.776-1.709-8.218-.027-9.922 3.747-1.705 3.775-.027 8.218 3.748 9.923 11.753 5.309 24.185 8.001 36.951 8.001 4.142 0 7.5-3.357 7.5-7.5s-3.358-7.5-7.501-7.5z"/><path d="m319.002 356.003c0-.385 0-29.189 0-29.833 0-31.349 16.871-60.608 44.03-76.361 3.583-2.078 4.803-6.667 2.725-10.25-2.079-3.584-6.667-4.804-10.251-2.725-20.192 11.711-35.512 29.813-44.004 50.866-8.492-21.052-23.811-39.153-44.003-50.865-3.582-2.079-8.171-.859-10.251 2.725-2.078 3.583-.858 8.172 2.725 10.25 27.158 15.753 44.029 45.013 44.029 76.36v29.833c0 53.762-37.921 97.5-84.533 97.5-4.142 0-7.5 3.357-7.5 7.5s3.358 7.5 7.5 7.5c35.633 0 66.946-21.278 84.533-53.178v89.178c0 4.143 3.358 7.5 7.5 7.5s7.5-3.357 7.5-7.5v-89.154c4.595 8.384 10.17 16.119 16.638 22.94 1.475 1.555 3.458 2.339 5.444 2.339 1.853 0 3.708-.683 5.159-2.058 3.006-2.851 3.132-7.598.282-10.604-17.491-18.444-27.523-44.674-27.523-71.963z"/><path d="m190.054 53.196-127.449 127.367c-4.256 4.253-6.6 9.909-6.6 15.926 0 6.018 2.344 11.674 6.6 15.926 4.389 4.387 10.151 6.579 15.917 6.579 5.763 0 11.528-2.193 15.916-6.579l76.843-76.793.363.363c1.464 1.464 3.383 2.195 5.302 2.195 1.918 0 3.837-.731 5.302-2.195l18.411-18.399c8.603-8.598 13.341-20.031 13.341-32.194s-4.738-23.597-13.341-32.194c-2.93-2.93-7.676-2.93-10.605-.002zm-90.29 132.69-10.633-10.626 10.633-10.626 10.633 10.626zm-26.556 15.918c-1.42-1.419-2.203-3.307-2.203-5.315s.782-3.896 2.203-5.316l5.313-5.309 10.633 10.626-5.32 5.316c-2.929 2.927-7.696 2.928-10.626-.002zm47.798-37.147-10.633-10.626 39.664-39.639 10.633 10.626zm69.048-57.682-13.109 13.101-.357-.357c-.001-.001-.001-.001-.002-.002s-.002-.001-.002-.002l-15.935-15.926 34.056-34.033c2.8 4.678 4.295 10.041 4.295 15.635-.001 8.154-3.178 15.82-8.946 21.584z"/></g></svg>