<svg id="Capa_1" enable-background="new 0 0 512 512" height="512" viewBox="0 0 512 512" fill="#323756" width="512" xmlns="http://www.w3.org/2000/svg"><g><path d="m64.46 389.956-14.855 2.074c1.474 10.559 3.19 20.272 5.099 28.855l20.028 91.115h15.605l-20.987-94.352c-1.825-8.211-3.471-17.528-4.89-27.692z"/><path d="m440.013 211.386-18.587-53.994c-10.646-30.923-8.02-61.457.788-92.285 6.166-21.58 13.576-42.414 13.576-65.107h-15c0 22.122-7.879 43.073-13.897 64.135-9.326 32.642-10.842 65.626.35 98.139 7.354 21.361 14.536 42.773 22.484 63.914h-42.134c2.648-6.483 5.393-13.151 8.854-17.645l-11.885-9.152c-4.745 6.161-7.907 13.906-10.966 21.396-6.399 15.672-11.457 23.199-28.718 25.32-15.915 1.953-25.663 7.924-36.543 19.58-10.964 11.747-17.388 14.774-32.698 8.653-14.691-5.869-25.559-5.875-40.264 0-15.294 6.114-21.878 2.941-32.7-8.652-10.871-11.646-20.616-17.626-36.545-19.581-28.914-3.554-24.977-27.624-39.682-46.717l-11.885 9.152c3.462 4.493 6.206 11.161 8.853 17.645h-41.136c11.457-30.497 25.313-61.361 29.521-93.921 4.806-37.182-7.749-71.834-17.787-106.965-2.426-8.369-2.801-16.679-2.801-25.301h-15c0 10.041.533 19.674 3.372 29.398 9.352 32.735 21.668 65.489 17.418 100.1-3.427 27.914-15.909 55.437-25.014 81.889-2.159 5.085-27.076 64.995-27.076 120.281 0 12.347 1.024 28.813 2.81 45.18l14.912-1.627c-2.416-22.146-3.879-44.527-1.292-66.722 70.693 0 129.496 37.394 171.497 92.817l-7.167 110.684h15.016l6.846-105.495h15.941l6.847 105.495h15.078l-6.904-105.683c23.191-31.33 51.743-59.311 86.593-77.394l-6.908-13.314c-31.93 16.568-62.06 42.765-87.33 75.896h-26.604c-43.846-57.53-106.805-98.318-180.703-98.005 3.469-19.814 8.837-38.417 13.443-52.312h53.244c7.572 13.625 19.339 17.998 34.072 19.808 12.421 1.525 18.903 5.818 27.408 14.929 15.183 16.266 28.006 20.827 49.23 12.347 11.178-4.468 17.953-4.468 29.132 0 21.36 8.536 33.786 4.197 49.23-12.348 8.504-9.111 14.986-13.403 27.405-14.928 14.722-1.808 26.496-6.172 34.074-19.808h54.244c4.606 13.89 9.974 32.489 13.441 52.312h-1.676c-14.113 0-28.239 1.612-41.985 4.792l3.381 14.613c13.965-3.23 28.168-4.476 42.477-4.405.901 7.736 1.427 15.524 1.427 23.169 0 21.621-3.242 58.097-9.441 85.996l-20.811 94.335h15.43l20.026-91.098c6.431-28.938 9.795-66.794 9.795-89.233-.001-55.29-24.92-115.204-27.076-120.283z"/><path d="m373.536 308.414 5.797 13.834c4.455-1.866 9.002-3.566 13.516-5.052l-4.689-14.248c-4.888 1.609-9.808 3.448-14.624 5.466z"/><path d="m248.004 181h15v15h-15z"/><path d="m263.484 226.372c5.174-.201 10.4-.608 15.535-1.21l-1.748-14.898c-4.748.558-9.583.934-14.369 1.12z"/><path d="m309.583 219.098-4.088-14.432c-4.576 1.296-9.284 2.427-13.994 3.359l2.916 14.714c5.103-1.01 10.206-2.236 15.166-3.641z"/><path d="m248.484 211.389c-4.785-.184-9.621-.557-14.373-1.109l-1.732 14.9c5.136.597 10.361 1 15.531 1.197z"/><path d="m345.005 187.836 7.633 12.912c4.507-2.663 8.922-5.555 13.123-8.594l-8.791-12.154c-3.828 2.77-7.853 5.405-11.965 7.836z"/><path d="m324.424 214.223c4.898-1.84 9.739-3.897 14.39-6.115l-6.455-13.539c-4.267 2.034-8.711 3.923-13.21 5.613z"/><path d="m216.979 222.774 2.898-14.717c-4.714-.929-9.426-2.053-14.004-3.342l-4.066 14.438c4.963 1.399 10.068 2.617 15.172 3.621z"/><path d="m172.56 208.229c4.665 2.209 9.512 4.254 14.405 6.079l5.24-14.055c-4.495-1.677-8.945-3.555-13.226-5.581z"/><path d="m145.567 192.385c4.21 3.015 8.634 5.886 13.15 8.534l7.588-12.939c-4.125-2.419-8.164-5.04-12.004-7.79z"/><path d="m331.004 114.384v36.616h15v-36.616l13.595 13.595 10.608-10.607-31.703-31.701-31.702 31.701 10.608 10.607z"/><path d="m166.004 114.384v36.616h15v-36.616l13.595 13.595 10.608-10.607-31.703-31.701-31.702 31.701 10.608 10.607z"/><path d="m120.504 263.5h15v15h-15z"/><path d="m90.504 263.5h15v15h-15z"/></g></svg>