<svg id="Capa_1" enable-background="new 0 0 510.061 510.061" height="512" viewBox="0 0 510.061 510.061" fill="#323756" width="512" xmlns="http://www.w3.org/2000/svg"><g><path d="m302.558 147.459h15v14.999h-15z" transform="matrix(.297 -.955 .955 .297 69.999 404.998)"/><path d="m327.561 120.753-14.521-3.756c-1.192 4.608-2.487 9.448-3.848 14.387l14.461 3.984c1.381-5.013 2.696-9.93 3.908-14.615z"/><path d="m339.086 60.445-14.973-.896c-.24 4.007-.793 8.781-1.643 14.188l14.818 2.328c.925-5.879 1.529-11.134 1.798-15.62z"/><path d="m324.252 30h15v15h-15z"/><path d="m293.646 176.104h15v14.999h-15z" transform="matrix(.297 -.955 .955 .297 36.381 416.625)"/><path d="m334.516 91.176-14.691-3.027c-.927 4.498-2.006 9.355-3.208 14.436l14.598 3.453c1.234-5.223 2.345-10.223 3.301-14.862z"/><path d="m324.252 0h15v15h-15z"/><path d="m302.536 206.395-14.826-2.273c-.815 5.314-.864 10.733-.79 16.102h15c0-.001.207-11.161.616-13.829z"/><path d="m286.92 235.223h15v15h-15z"/><path d="m57.5 479.361 59.965-16.405 71.787-130.806v-141.182c0-44.843-21.999-85.571-21.999-130.74h-15c0 16.847 1.133 32.752 4.941 49.287 6.288 27.304 17.058 52.999 17.058 81.454v137.337l-66.879 121.86-53.832 14.728c-25.124 6.876-19.908 45.168 6.067 45.168h47.144v-15h-47.144c-9.165-.001-10.766-13.331-2.108-15.701z"/><path d="m152.253.228h15v45.001h-15z"/><path d="m256.608 390.228h15v-34.165l-16.138-16.139-10.608 10.607 11.746 11.745z"/><path d="m466.245 442.354-31.535-31.535-10.607 10.607 31.535 31.535c7.025 7.025-3.871 17.924-10.896 10.896l-90.302-90.302 10.896-10.896 27.128 27.128 10.607-10.607-32.432-32.432-51.24-51.24c8.413-17.53 12.852-36.887 12.852-56.344v-25.631c10.126-9.681 45-47.445 45-108.307v-105h-15v105c0 36.489-15.717 78.098-45 101.517v32.421c0 15.443-3.155 30.819-9.178 45.017l-16.74-16.74c-22.162 22.158-29.697 55.737-5.304 80.131l24.255 24.254c2.189 28.451-13.883 54.682-42.567 59.764-14.574 2.582-29.337 4.336-43.98 6.5l-74.523 56.969h-27.462v15h32.538l75.477-57.697c13.893-2.053 27.909-3.699 41.734-6.168 31.501-5.625 51.469-32.385 53.746-63.701l8.459-8.459 100.43 100.43c20.819 20.816 52.653-11.564 32.109-32.11zm-132.54-89.532-10.606 10.606-26.462-26.463c-12.572-12.57-14.673-32.965-4.782-47.789l62.875 62.876-10.896 10.897z"/><path d="m405.962 392.845h15.001v14.67h-15.001z" transform="matrix(.707 -.707 .707 .707 -161.869 409.572)"/><path d="m392.716 315.684h15v-14.998h14.998v-15h-14.998v-14.998h-15v14.998h-14.997v15h14.997z"/><path d="m437.437 240.683h15v15.998h-15z"/></g></svg>