<svg id="Capa_1" enable-background="new 0 0 511 511" height="512" viewBox="0 0 511 511" width="512" xmlns="http://www.w3.org/2000/svg"><g><path d="m443.32 60h15v15.003h-15z"/><path d="m443.32 0h15v45.004h-15z"/><path d="m225.323 45h15v75h-15z"/><path d="m97.823 142.5c12.407 0 22.5-10.094 22.5-22.5s-10.093-22.5-22.5-22.5-22.5 10.094-22.5 22.5 10.094 22.5 22.5 22.5zm0-30c4.136 0 7.5 3.364 7.5 7.5s-3.364 7.5-7.5 7.5-7.5-3.364-7.5-7.5 3.365-7.5 7.5-7.5z"/><path d="m367.823 142.5c12.407 0 22.5-10.094 22.5-22.5s-10.093-22.5-22.5-22.5-22.5 10.094-22.5 22.5 10.094 22.5 22.5 22.5zm0-30c4.136 0 7.5 3.364 7.5 7.5s-3.364 7.5-7.5 7.5-7.5-3.364-7.5-7.5 3.365-7.5 7.5-7.5z"/><path d="m41.64 168.722c11.433 7.437 25.058 11.777 39.684 11.777h124c11.436 0 21.607-5.514 27.998-14.022 6.391 8.508 16.562 14.022 27.998 14.022h124c14.153 0 27.369-4.062 38.569-11.061-6.464 39.114-17.302 77.766-33.565 113.959v76.602h15v-73.405c26.038-58.813 34.154-117.127 35.909-132.228 10.655-12.69 17.087-29.038 17.087-46.866v-17.496h-15v17.496c0 31.98-26.019 57.999-58 57.999h-124c-17.623 0-20-15.991-20-29.498-5.332 0-10.665 0-15.997 0 0 13.507-2.376 29.498-20 29.498h-124c-31.981 0-57.999-26.019-57.999-57.999v-107.5h-15v107.5c0 17.168 5.972 32.959 15.928 45.438 1.37 12.438 9.12 72.78 36.071 133.656v86.636c-13.306 26.612-30 53.095-30 83.813v53.957h15v-53.957c0-28.843 17.47-55.213 30-80.272v-93.373c-16.36-36.412-27.241-75.317-33.683-114.676z"/><path d="m225.822 390.004h15v15h-15z"/><path d="m298.31 441.869c-4.153 4.984-11.065 6.915-17.198 4.801l-40.29-13.871v-12.799h-15v13.127l-40.792 14.043c-15.568 5.356-28.748-18.662-36.943-28.495l-11.523 9.604c13.469 16.163 28.24 41.723 53.35 33.075l43.884-15.108 42.432 14.608c25.067 8.63 39.883-16.914 53.35-33.075l-11.523-9.604z"/><path d="m346.886 211.166h40.541v15h-40.541z" transform="matrix(.707 -.707 .707 .707 -47.082 323.669)"/><path d="m346.886 255.166h40.541v15h-40.541z" transform="matrix(.707 -.707 .707 .707 -78.195 336.556)"/><path d="m90.657 198.396h15v40.541h-15z" transform="matrix(.707 -.707 .707 .707 -125.871 133.454)"/><path d="m90.657 242.396h15v40.541h-15z" transform="matrix(.707 -.707 .707 .707 -156.984 146.341)"/><path d="m428.505 434.245-10.607-10.607 21.272-21.272-10.606-10.607-16.028 16.028-82.231-82.231c.007-.26.019-.519.019-.779v-25.09h-15v21.969l-14.63-14.63-10.37 10.37-27.028-27.028-10.606 10.607 27.028 27.027-10.37 10.37 14.217 14.217c-14.143 1.566-29.656-6.548-42.742-11.054v-73.823c24.021 8.271 47.912 17.217 70.56-.768 19.588-15.555 18.942-34.18 18.942-56.945h-15c0 19.448 2.028 36.389-17.08 47.897-18.629 11.22-39.126.25-57.422-6.049v-41.847h-15v41.504c-18.508 6.372-39.58 17.741-58.42 6.393-19.147-11.532-17.08-28.43-17.08-47.898h-15c0 23.385-.378 42.941 20.547 58.219 22.831 16.669 46.359 7.274 69.954-.849v73.822c-18.508 6.372-39.58 17.74-58.42 6.393-19.147-11.532-17.08-28.43-17.08-47.898h-15c0 23.385-.378 42.941 20.547 58.219 22.83 16.669 46.359 7.274 69.954-.849v17.944h15v-17.6c15.016 5.17 30.261 12.303 46.518 9.809l82.887 82.887-15.91 15.91 10.606 10.607 21.213-21.214 10.607 10.606-10.488 10.488 30.494 30.495 20.38-20.381-10.606-10.605-9.773 9.773-9.281-9.282 31.584-31.584 9.281 9.281-10.562 10.562 10.606 10.607 21.168-21.169-30.495-30.494zm-117.205-95.4-10.134 10.134-10.606-10.606 10.133-10.134zm16.147 5.066 47.613 47.612-21.096 21.096-47.612-47.612zm37.124 79.315 21.096-21.096 16.263 16.263-21.096 21.096zm42.78 32.173-10.607-10.606 10.547-10.548 10.607 10.606z"/><path d="m458.32 315.107h-15v15h-15v15h15v15h15v-15h15v-15h-15z"/><path d="m487.675 285h15v14.687h-15z"/></g></svg>