<!-- Generator: Adobe Illustrator 27.0.0, SVG Export Plug-In . SVG Version: 6.00 Build 0)  -->
<svg version="1.1" id="Capa_1" xmlns="http://www.w3.org/2000/svg" xmlns:xlink="http://www.w3.org/1999/xlink" x="0px" y="0px"
	  width="200px" height="52px" viewBox="0 0 697 187" style="enable-background:new 0 0 697 187;" xml:space="preserve">
<style type="text/css">
	.st0{fill:#005D99;}
</style>
<g>
	<g>
		<g>
			<g>
				<g>
					<path class="st0" d="M296.3,84.8c0.2,0,0.3-0.1,0.3-0.3v-1.1c0-8.2,0-9.7-0.1-11.4c-0.1-1.8-0.5-2.6-2.3-3
						c-0.4-0.1-1.3-0.2-1.8-0.2c-0.2,0-0.4-0.1-0.4-0.3c0-0.3,0.3-0.4,0.8-0.4c2.4,0,5.7,0.2,6,0.2c0.3,0,3.6-0.2,5.2-0.2
						c0.6,0,0.8,0.1,0.8,0.4c0,0.2-0.2,0.3-0.4,0.3c-0.4,0-0.7,0.1-1.3,0.2c-1.4,0.3-1.8,1.2-2,3c-0.1,1.7-0.1,3.2-0.1,11.4v9.3
						c0,5.1,0,9.2,0.3,11.5c0.2,1.5,0.5,2.7,2.1,2.9c0.7,0.1,1.9,0.2,2.4,0.2c0.3,0,0.4,0.2,0.4,0.3c0,0.3-0.3,0.4-0.8,0.4
						c-2.9,0-6.2-0.2-6.5-0.2c-0.3,0-3.6,0.2-5.2,0.2c-0.6,0-0.8-0.1-0.8-0.4c0-0.2,0.1-0.3,0.4-0.3c0.5,0,1.1-0.1,1.6-0.2
						c1.1-0.2,1.3-1.4,1.5-2.9c0.3-2.2,0.3-6.4,0.3-11.5v-5.5c0-0.2-0.2-0.3-0.3-0.3h-22.4c-0.2,0-0.3,0.1-0.3,0.3v5.5
						c0,5.1,0,9.2,0.3,11.5c0.2,1.5,0.5,2.7,2.1,2.9c0.7,0.1,1.9,0.2,2.4,0.2c0.3,0,0.4,0.2,0.4,0.3c0,0.3-0.3,0.4-0.8,0.4
						c-2.9,0-6.2-0.2-6.5-0.2c-0.3,0-3.6,0.2-5.2,0.2c-0.6,0-0.8-0.1-0.8-0.4c0-0.2,0.1-0.3,0.4-0.3c0.5,0,1.1-0.1,1.6-0.2
						c1.1-0.2,1.3-1.4,1.5-2.9c0.3-2.2,0.3-6.4,0.3-11.5v-9.3c0-8.2,0-9.7-0.1-11.4c-0.1-1.8-0.5-2.6-2.3-3
						c-0.4-0.1-1.3-0.2-1.8-0.2c-0.2,0-0.4-0.1-0.4-0.3c0-0.3,0.3-0.4,0.8-0.4c2.4,0,5.7,0.2,6,0.2c0.3,0,3.6-0.2,5.2-0.2
						c0.6,0,0.8,0.1,0.8,0.4c0,0.2-0.2,0.3-0.4,0.3c-0.4,0-0.7,0.1-1.3,0.2c-1.4,0.3-1.8,1.2-2,3c-0.1,1.7-0.1,3.2-0.1,11.4v1.1
						c0,0.3,0.2,0.3,0.3,0.3H296.3z"/>
					<path class="st0" d="M316.6,87c0-6.9,0-8.2-0.1-9.6c-0.1-1.5-0.5-2.2-2-2.5c-0.3-0.1-0.8-0.1-1.3-0.1c-0.4,0-0.7-0.2-0.7-0.3
						c0-0.3,0.3-0.4,0.8-0.4c1.1,0,2.5,0.1,5.4,0.2c0.3,0,12.5,0,13.5-0.1c1.1-0.1,1.6-0.1,2.1-0.3c0.3-0.1,0.4-0.2,0.6-0.2
						c0.1,0,0.2,0.1,0.2,0.4c0,0.3-0.3,1.1-0.4,2.4c-0.1,0.9-0.1,1.7-0.2,2.7c0,0.5-0.1,0.8-0.4,0.8c-0.3,0-0.4-0.2-0.4-0.6
						c-0.1-0.8-0.2-1.3-0.4-1.7c-0.3-1.1-0.8-1.4-3.4-1.6c-0.7-0.1-8.7-0.1-8.8-0.1c-0.2,0-0.3,0.1-0.3,0.4v12
						c0,0.3,0.1,0.5,0.3,0.5c0.6,0,8.8-0.1,9.9-0.2c1.2-0.1,2-0.2,2.4-0.8c0.2-0.3,0.4-0.4,0.6-0.4c0.1,0,0.2,0.1,0.2,0.3
						s-0.2,1.3-0.4,2.8c-0.2,1.5-0.2,2.5-0.2,3.2c-0.1,0.4-0.2,0.6-0.4,0.6c-0.3,0-0.3-0.3-0.3-0.7c0-0.3-0.1-0.8-0.2-1.3
						c-0.2-0.7-0.5-1.4-2.5-1.6c-1.2-0.1-8.3-0.2-9.1-0.2c-0.3,0-0.4,0.2-0.4,0.4V95c0,1.6-0.1,6.3,0,7.2c0.1,2,0.4,3,1.5,3.4
						c0.8,0.4,2.1,0.5,3.9,0.5c1,0,5.5,0.1,6.8-0.3c1.6-0.5,2-1.5,2.4-3.5c0.1-0.5,0.3-0.7,0.5-0.7c0.3,0,0.3,0.5,0.3,0.8
						c0,0.4-0.4,3.7-0.6,4.6c-0.2,1.1-0.6,1.2-2.3,1.2c-3.5,0-7.8-0.1-9.6-0.1c-1.8-0.1-4.3-0.2-6.2-0.2c-1.2,0-2.2,0.2-3.5,0.2
						c-0.5,0-0.7-0.1-0.7-0.4c0-0.2,0.2-0.4,0.5-0.4c0.3,0,0.7-0.1,1.1-0.2c1-0.2,1.6-0.9,1.7-4.2c0.1-1.8,0.1-4,0.1-8V87z"/>
					<path class="st0" d="M345.4,75.5c0-1.6,0.2-2.2,0.6-2.2c0.4,0,1.3,1.1,1.6,1.4c0.5,0.5,7.8,8,15.2,15.6
						c4.1,4,9.4,9.5,10.8,10.7l-0.6-22c-0.1-2.9-0.4-3.8-1.8-4.2c-0.9-0.2-1.7-0.2-2.1-0.2c-0.5,0-0.6-0.2-0.6-0.4
						c0-0.3,0.4-0.3,1-0.3c2.3,0,4.5,0.2,5,0.2c0.5,0,2.2-0.2,4.2-0.2c0.6,0,0.7,0.1,0.7,0.3c0,0.2-0.2,0.4-0.5,0.4
						c-0.3,0.1-0.7,0.1-1.3,0.2c-1.2,0.3-1.6,0.8-1.6,4l-0.1,26.5c0,2.6-0.1,2.9-0.5,2.9s-0.9-0.4-3.5-2.8
						c-0.2-0.1-7.6-7.4-12.2-11.9c-5.5-5.7-10.8-11.2-12.1-12.6l0.7,20.7c0.1,3.6,0.4,5,1.7,5.3c0.8,0.2,1.7,0.2,2.2,0.2
						c0.4,0,0.6,0.2,0.6,0.4c0,0.3-0.3,0.4-0.8,0.4c-2.9,0-4.8-0.2-5.1-0.2s-2.3,0.2-4.6,0.2c-0.5,0-0.8-0.1-0.8-0.4
						c0-0.2,0.2-0.4,0.7-0.4c0.4,0,1,0,1.6-0.2c1.2-0.4,1.4-1.8,1.4-5.7C345.4,76.2,345.5,84.3,345.4,75.5z"/>
					<path class="st0" d="M389.8,87c0-7,0-8.2-0.1-9.7c-0.1-1.4-0.5-2.2-2.1-2.5c-0.3-0.1-0.8-0.1-1.3-0.1c-0.4,0-0.6-0.1-0.6-0.3
						c0-0.2,0.2-0.4,0.6-0.4c2.3,0,5.5,0.2,5.6,0.2c0.5,0,4.1-0.2,5.5-0.2c3,0,6.2,0.3,8.7,2c1,0.7,3.2,2.9,3.2,6.4
						c0,2.9-1.4,6.6-5.6,10c3.9,4.8,7,8.7,9.7,11.5c2.5,2.6,4.1,3,5.6,3.2c0.4,0.1,1.5,0.1,1.6,0.1c0.4,0,0.6,0.2,0.6,0.4
						c0,0.3-0.2,0.4-1,0.4h-3.7c-2.5,0-3.6-0.2-4.8-0.6c-2.2-1-3.8-3.3-6.6-6.9c-2.1-2.5-4.2-5.4-5.1-6.5c-0.2-0.2-0.3-0.3-0.6-0.3
						l-5.4-0.1c-0.2,0-0.3,0.1-0.3,0.3v0.7c0,4.2,0,8.1,0.3,10c0.2,1.3,0.3,2.3,2.1,2.5c0.5,0.1,1.1,0.1,1.5,0.1
						c0.5,0,0.7,0.2,0.7,0.3c0,0.3-0.2,0.4-0.7,0.4c-2.7,0-5.7-0.2-5.9-0.2c-0.8,0-3.2,0.2-4.6,0.2c-0.5,0-0.7-0.1-0.7-0.4
						c0-0.2,0.3-0.3,0.6-0.3c0.4,0,0.7,0,1.2-0.1c0.9-0.2,1.2-0.7,1.4-2c0.3-1.9,0.2-6.2,0.2-10.2V87z M393.9,90.7
						c0,0.3,0.1,0.5,0.3,0.6c0.7,0.4,2.8,0.7,4.7,0.7c1.1,0,2.4-0.1,3.5-0.8c1.6-1,2.6-3.3,2.6-6.7c0-5.8-3.1-8.9-7.8-8.9
						c-1.3,0-2.4,0.1-3.1,0.3c-0.2,0.1-0.3,0.2-0.3,0.5V90.7z"/>
					<path class="st0" d="M429.8,96.5c0-2.5-0.4-3.5-1.2-4.9c-0.3-0.6-6.4-10.6-8.1-12.8c-1.4-2-2-2.6-2.7-3.2
						c-0.7-0.5-1.4-0.7-2.5-0.8c-0.3,0-0.6-0.2-0.6-0.4c0-0.2,0.2-0.3,0.6-0.3c0.8,0,4.9,0.2,5,0.2c0.3,0,2.1-0.2,4-0.2
						c0.5,0,0.7,0.2,0.7,0.3c0,0.2-0.2,0.3-0.6,0.4c-0.7,0.2-0.8,0.4-0.8,0.8c0,0.5,0.3,1.1,0.7,1.7c0.7,1.3,7.7,12.5,8.5,13.8
						c0.8-1.8,6.8-11.5,7.5-12.8c1-1.7,1.2-2.2,1.2-2.8c0-0.7-0.6-0.7-1.2-0.8c-0.4-0.1-0.6-0.2-0.6-0.4c0-0.2,0.1-0.3,0.6-0.3
						c1.3,0,2.4,0.2,3.2,0.2c0.7,0,3.8-0.2,4.6-0.2c0.5,0,0.6,0.2,0.6,0.3c0,0.3-0.3,0.4-0.6,0.4c-1.1,0.1-1.9,0.2-2.6,0.7
						c-0.8,0.5-1.1,1-2,2.2c-3.1,4.2-8.2,12.8-9,14.7c-0.6,1.6-0.5,2.8-0.5,4.2v3.9c0,0.4,0,2.3,0.1,4.2c0.1,1.3,0.2,2.2,1.8,2.5
						c0.7,0.2,1.6,0.2,2,0.2c0.4,0,0.6,0.2,0.6,0.3c0,0.3-0.2,0.4-0.6,0.4c-2.6,0-5.9-0.2-6.1-0.2c-0.1,0-3.3,0.2-4.8,0.2
						c-0.5,0-0.7-0.2-0.7-0.4c0-0.2,0.2-0.3,0.5-0.3c0.4,0,0.9-0.1,1.3-0.2c0.9-0.2,1.3-1.3,1.4-2.5c0.2-1.9,0.2-3.8,0.2-4.2V96.5z"
						/>
				</g>
			</g>
		</g>
		<g>
			<g>
				<g>
					<path class="st0" d="M465.9,92.4c-0.3,0-0.4,0.2-0.5,0.4l-3.2,9.4c-0.5,1.3-0.7,2.6-0.7,3.5c0,1.1,1,1.5,1.9,1.5
						c0.2,0,0.3,0,0.5,0c0.5,0,0.7,0.1,0.7,0.3c0,0.3-0.5,0.4-1,0.4c-1.3,0-3.4-0.2-4-0.2c-0.6,0-3.5,0.2-6,0.2c-0.7,0-1-0.1-1-0.4
						c0-0.2,0.3-0.3,0.7-0.3c0.4,0,0.8-0.1,1.3-0.1c2.4-0.3,3.5-2.3,4.4-5l12-32.8c0.6-1.7,0.8-2.1,1.2-2.1c0.3,0,0.5,0.3,1.2,1.9
						c0.8,2,9.1,23.8,12.3,31.9c1.9,4.7,3.4,5.5,4.5,5.9c0.8,0.3,1.6,0.3,2.1,0.3c0.3,0,0.6,0.1,0.6,0.3c0,0.3-0.5,0.4-1.1,0.4
						c-0.8,0-4.6,0-8.3-0.1c-1-0.1-1.6-0.1-1.6-0.4c0-0.2,0.2-0.3,0.4-0.4c0.3-0.1,0.6-0.6,0.3-1.4l-4.9-13
						c-0.1-0.2-0.2-0.3-0.5-0.3H465.9z M476.6,90.5c0.3,0,0.3-0.2,0.2-0.4l-5-14.3c-0.3-0.8-0.5-0.8-0.8,0l-4.7,14.3
						c-0.1,0.3,0,0.4,0.2,0.4H476.6z"/>
					<path class="st0" d="M523.6,104.1c0,2.1-0.1,2.2-0.6,2.5c-2.9,1.5-7.1,2-9.7,2c-3.4,0-10.1-0.3-15.5-4.8
						c-2.9-2.4-5.7-6.8-5.7-12.8c0-7.2,3.6-12.3,8-14.9c4.1-2.4,8.6-2.7,11.8-2.7c3.4,0,5.7,0.4,7.6,0.7c0.8,0.2,2.9,0.4,4,0.5
						c0.4,0,0.4,0.2,0.4,0.4c0,0.6-0.4,2.2-0.4,6.9c0,0.7-0.1,1-0.4,1c-0.3,0-0.3-0.3-0.4-0.6c0-0.5-0.2-2.1-1-3.3
						c-1.2-1.7-5-3.7-10.9-3.7c-2.9,0-6.2,0.1-9.7,2.8c-2.7,2.1-4.4,6.1-4.4,11.3c0,6.3,3.4,10.9,4.8,12.3c3.5,3.4,7.4,4.9,12,4.9
						c1.5,0,3.8-0.3,5-0.9c0.5-0.3,0.9-0.8,0.9-1.6v-7.6c0-3.5-0.3-4.2-2.1-4.4c-0.3-0.1-0.8-0.1-1.3-0.1c-0.4,0-0.6-0.2-0.6-0.4
						c0-0.3,0.2-0.4,0.8-0.4c2.1,0,5.2,0.1,5.4,0.1c0.2,0,3.3-0.1,4.8-0.1c0.5,0,0.7,0.1,0.7,0.4c0,0.2-0.2,0.4-0.6,0.4
						c-0.4,0-0.5,0-0.9,0.1c-1.3,0.2-1.6,1.1-1.7,2.6s-0.1,2.9-0.1,4.8V104.1z"/>
					<path class="st0" d="M538.2,93.3c0,6.4,1.2,9.2,3.2,11c2.3,2,4.8,2.4,7,2.4c2.7,0,5.2-0.7,7.2-3.1c2.1-2.4,2.6-6.4,2.6-11V87
						c0-6.9,0-8.1-0.1-9.6c-0.1-1.5-0.3-2.3-2-2.6c-0.4-0.1-1-0.1-1.5-0.1c-0.3,0-0.5-0.2-0.5-0.3c0-0.3,0.3-0.4,0.7-0.4
						c2.3,0,4.9,0.2,5.1,0.2c0.3,0,2.5-0.2,4-0.2c0.5,0,0.7,0.1,0.7,0.4c0,0.2-0.2,0.4-0.5,0.4c-0.3,0-0.4,0-1,0.1
						c-1.5,0.2-1.7,1.1-1.8,2.6c-0.1,1.4-0.1,2.6-0.1,9.6v4.7c0,4.8-0.5,10.5-4.3,13.7c-3.4,2.9-6.8,3.2-9.7,3.2
						c-1.5,0-6.4,0-9.9-3.2c-2.3-2.1-3.9-5.3-3.9-11.8V87c0-7,0-8.2-0.2-9.6c-0.1-1.4-0.3-2.3-2-2.5c-0.3-0.1-1-0.1-1.4-0.1
						c-0.4,0-0.6-0.2-0.6-0.3c0-0.3,0.2-0.4,0.8-0.4c2.3,0,5.1,0.2,5.5,0.2c0.4,0,3.5-0.2,5-0.2c0.6,0,0.7,0.1,0.7,0.4
						c0,0.3-0.4,0.4-0.6,0.4c-0.3,0-0.7,0.1-1.2,0.1c-1.3,0.2-1.5,1.1-1.6,2.5c-0.1,1.4-0.1,2.6-0.1,9.6V93.3z"/>
					<path class="st0" d="M574,87c0-7,0-8.2-0.1-9.7c-0.1-1.4-0.4-2.2-1.5-2.4c-0.5-0.1-0.9-0.1-1.2-0.2c-0.4-0.1-0.6-0.2-0.6-0.4
						c0-0.3,0.2-0.4,0.8-0.4c1.6,0,4.7,0.2,4.8,0.2c0.2,0,3.3-0.2,4.8-0.2c0.5,0,0.8,0.1,0.8,0.4c0,0.2-0.2,0.3-0.6,0.4
						c-0.3,0.1-0.6,0.1-1,0.1c-1.5,0.2-1.7,1-1.8,2.5c-0.1,1.4-0.1,2.6-0.1,9.6v7.9c0,4.1-0.1,7.8,0.2,9.7c0.2,1.5,0.4,2.1,1.8,2.4
						c0.7,0.2,1.8,0.2,2,0.2c0.5,0.1,0.6,0.2,0.6,0.4c0,0.2-0.2,0.4-0.7,0.4c-2.7,0-5.8-0.2-6-0.2c-0.2,0-3.3,0.2-4.8,0.2
						c-0.5,0-0.8-0.1-0.8-0.4c0-0.2,0.2-0.4,0.7-0.4c0.3,0,0.8-0.1,1.3-0.2c0.9-0.2,1.1-1.3,1.2-2.5c0.3-1.9,0.3-5.7,0.3-9.6V87z"/>
					<path class="st0" d="M592.8,87c0-7,0-8.2-0.1-9.7c-0.1-1.4-0.5-2.2-2.1-2.5c-0.3-0.1-0.8-0.1-1.3-0.1c-0.4,0-0.6-0.1-0.6-0.3
						c0-0.2,0.2-0.4,0.6-0.4c2.3,0,5.5,0.2,5.6,0.2c0.5,0,4.1-0.2,5.5-0.2c3,0,6.2,0.3,8.7,2c1,0.7,3.2,2.9,3.2,6.4
						c0,2.9-1.4,6.6-5.6,10c3.9,4.8,7,8.7,9.7,11.5c2.5,2.6,4.1,3,5.6,3.2c0.4,0.1,1.5,0.1,1.6,0.1c0.4,0,0.6,0.2,0.6,0.4
						c0,0.3-0.2,0.4-1,0.4h-3.7c-2.5,0-3.6-0.2-4.8-0.6c-2.2-1-3.8-3.3-6.6-6.9c-2.1-2.5-4.2-5.4-5.1-6.5c-0.2-0.2-0.3-0.3-0.6-0.3
						l-5.4-0.1c-0.2,0-0.3,0.1-0.3,0.3v0.7c0,4.2,0,8.1,0.3,10c0.2,1.3,0.3,2.3,2.1,2.5c0.5,0.1,1.1,0.1,1.5,0.1
						c0.5,0,0.7,0.2,0.7,0.3c0,0.3-0.2,0.4-0.7,0.4c-2.7,0-5.7-0.2-5.9-0.2c-0.8,0-3.2,0.2-4.6,0.2c-0.5,0-0.7-0.1-0.7-0.4
						c0-0.2,0.3-0.3,0.6-0.3c0.4,0,0.7,0,1.2-0.1c0.9-0.2,1.2-0.7,1.4-2c0.3-1.9,0.2-6.2,0.2-10.2V87z M596.9,90.7
						c0,0.3,0.1,0.5,0.3,0.6c0.7,0.4,2.8,0.7,4.7,0.7c1.1,0,2.4-0.1,3.5-0.8c1.6-1,2.6-3.3,2.6-6.7c0-5.8-3.1-8.9-7.8-8.9
						c-1.3,0-2.4,0.1-3.1,0.3c-0.2,0.1-0.3,0.2-0.3,0.5V90.7z"/>
					<path class="st0" d="M630.4,87c0-7,0-8.2-0.1-9.7c-0.1-1.4-0.5-2.2-2.1-2.5c-0.3-0.1-0.8-0.1-1.3-0.1c-0.4,0-0.6-0.1-0.6-0.3
						c0-0.2,0.2-0.4,0.6-0.4c2.3,0,5.5,0.2,5.6,0.2c0.5,0,4.1-0.2,5.5-0.2c3,0,6.2,0.3,8.7,2c1,0.7,3.2,2.9,3.2,6.4
						c0,2.9-1.4,6.6-5.6,10c3.9,4.8,7,8.7,9.7,11.5c2.5,2.6,4.1,3,5.6,3.2c0.4,0.1,1.5,0.1,1.6,0.1c0.4,0,0.6,0.2,0.6,0.4
						c0,0.3-0.2,0.4-1,0.4h-3.7c-2.5,0-3.6-0.2-4.8-0.6c-2.2-1-3.8-3.3-6.6-6.9c-2.1-2.5-4.2-5.4-5.1-6.5c-0.2-0.2-0.3-0.3-0.6-0.3
						l-5.4-0.1c-0.2,0-0.3,0.1-0.3,0.3v0.7c0,4.2,0,8.1,0.3,10c0.2,1.3,0.3,2.3,2.1,2.5c0.5,0.1,1.1,0.1,1.5,0.1
						c0.5,0,0.7,0.2,0.7,0.3c0,0.3-0.2,0.4-0.7,0.4c-2.7,0-5.7-0.2-5.9-0.2c-0.8,0-3.2,0.2-4.6,0.2c-0.5,0-0.7-0.1-0.7-0.4
						c0-0.2,0.3-0.3,0.6-0.3c0.4,0,0.7,0,1.2-0.1c0.9-0.2,1.2-0.7,1.4-2c0.3-1.9,0.2-6.2,0.2-10.2V87z M634.5,90.7
						c0,0.3,0.1,0.5,0.3,0.6c0.7,0.4,2.8,0.7,4.7,0.7c1.1,0,2.4-0.1,3.5-0.8c1.6-1,2.6-3.3,2.6-6.7c0-5.8-3.1-8.9-7.8-8.9
						c-1.3,0-2.4,0.1-3.1,0.3c-0.2,0.1-0.3,0.2-0.3,0.5V90.7z"/>
					<path class="st0" d="M668,87c0-6.9,0-8.2-0.1-9.6c-0.1-1.5-0.5-2.2-2-2.5c-0.3-0.1-0.8-0.1-1.3-0.1c-0.4,0-0.7-0.2-0.7-0.3
						c0-0.3,0.3-0.4,0.8-0.4c1.1,0,2.5,0.1,5.4,0.2c0.3,0,12.5,0,13.5-0.1s1.6-0.1,2.1-0.3c0.3-0.1,0.4-0.2,0.6-0.2
						c0.1,0,0.2,0.1,0.2,0.4c0,0.3-0.3,1.1-0.4,2.4c-0.1,0.9-0.1,1.7-0.2,2.7c0,0.5-0.1,0.8-0.4,0.8c-0.3,0-0.4-0.2-0.4-0.6
						c-0.1-0.8-0.2-1.3-0.4-1.7c-0.3-1.1-0.8-1.4-3.4-1.6c-0.7-0.1-8.7-0.1-8.8-0.1c-0.2,0-0.3,0.1-0.3,0.4v12
						c0,0.3,0.1,0.5,0.3,0.5c0.6,0,8.8-0.1,9.9-0.2c1.2-0.1,2-0.2,2.4-0.8c0.2-0.3,0.4-0.4,0.6-0.4c0.1,0,0.2,0.1,0.2,0.3
						s-0.2,1.3-0.4,2.8c-0.2,1.5-0.2,2.5-0.2,3.2c-0.1,0.4-0.2,0.6-0.4,0.6c-0.3,0-0.3-0.3-0.3-0.7c0-0.3-0.1-0.8-0.2-1.3
						c-0.2-0.7-0.5-1.4-2.5-1.6c-1.2-0.1-8.3-0.2-9.1-0.2c-0.3,0-0.4,0.2-0.4,0.4V95c0,1.6-0.1,6.3,0,7.2c0.1,2,0.4,3,1.5,3.4
						c0.8,0.4,2.1,0.5,3.9,0.5c1,0,5.5,0.1,6.8-0.3c1.6-0.5,2-1.5,2.4-3.5c0.1-0.5,0.3-0.7,0.5-0.7c0.3,0,0.3,0.5,0.3,0.8
						c0,0.4-0.4,3.7-0.6,4.6c-0.2,1.1-0.6,1.2-2.3,1.2c-3.5,0-7.8-0.1-9.6-0.1c-1.8-0.1-4.3-0.2-6.2-0.2c-1.2,0-2.2,0.2-3.5,0.2
						c-0.5,0-0.7-0.1-0.7-0.4c0-0.2,0.2-0.4,0.5-0.4c0.3,0,0.7-0.1,1.1-0.2c1-0.2,1.6-0.9,1.7-4.2c0.1-1.8,0.1-4,0.1-8V87z"/>
				</g>
			</g>
		</g>
		<g>
			<g>
				<g>
					<g>
						<path class="st0" d="M171.9,83.3c0-8.2,0-9.7-0.1-11.4c-0.1-1.8-0.4-2.6-2.1-3c-0.4-0.1-1.3-0.2-1.8-0.2
							c-0.4,0-0.6-0.1-0.6-0.3c0-0.3,0.3-0.4,0.8-0.4c2.4,0,5.7,0.2,6,0.2c0.6,0,4-0.2,7.1-0.2c5.2,0,14.9-0.5,21.2,6
							c2.6,2.7,5.1,7.1,5.1,13.4c0,6.7-2.7,11.8-5.7,14.9c-2.3,2.4-7,6.1-16,6.1c-2.3,0-5.1-0.2-7.3-0.3c-2.3-0.2-4.1-0.3-4.4-0.3
							c-0.1,0-1,0-2.1,0.1c-1.1,0-2.3,0.1-3.1,0.1c-0.6,0-0.8-0.1-0.8-0.4c0-0.2,0.1-0.3,0.5-0.3c0.6-0.1,1-0.1,1.5-0.2
							c1.1-0.2,1.3-1.4,1.5-2.9c0.3-2.2,0.3-6.4,0.3-11.5V83.3z M176.4,89.1c0,5.6,0.1,10.5,0.1,11.5c0.1,1.3,0.2,3.4,0.6,4
							c0.7,1,2.7,2.1,9,2.1c4.9,0,9.5-1.8,12.6-4.9c2.7-2.7,4.2-7.8,4.2-12.6c0-6.7-2.9-11-5.1-13.3c-5-5.2-11-6-17.3-6
							c-1.1,0-3,0.2-3.4,0.4c-0.5,0.2-0.6,0.5-0.6,1.1c-0.1,1.8-0.1,7.2-0.1,11.3V89.1z"/>
						<path class="st0" d="M217,87c0-7,0-8.2-0.1-9.7c-0.1-1.4-0.5-2.2-2.1-2.5c-0.3-0.1-0.8-0.1-1.3-0.1c-0.4,0-0.6-0.1-0.6-0.3
							c0-0.2,0.2-0.4,0.6-0.4c2.3,0,5.5,0.2,5.6,0.2c0.5,0,4.1-0.2,5.5-0.2c3,0,6.2,0.3,8.7,2c1,0.7,3.2,2.9,3.2,6.4
							c0,2.9-1.4,6.6-5.6,10c3.9,4.8,7,8.7,9.7,11.5c2.5,2.6,4.1,3,5.6,3.2c0.4,0.1,1.5,0.1,1.6,0.1c0.4,0,0.6,0.2,0.6,0.4
							c0,0.3-0.2,0.4-1,0.4h-3.7c-2.5,0-3.6-0.2-4.8-0.6c-2.2-1-3.8-3.3-6.6-6.9c-2.1-2.5-4.2-5.4-5.1-6.5c-0.2-0.2-0.3-0.3-0.6-0.3
							l-5.4-0.1c-0.2,0-0.3,0.1-0.3,0.3v0.7c0,4.2,0,8.1,0.3,10c0.2,1.3,0.3,2.3,2.1,2.5c0.5,0.1,1.1,0.1,1.5,0.1
							c0.5,0,0.7,0.2,0.7,0.3c0,0.3-0.2,0.4-0.7,0.4c-2.7,0-5.7-0.2-5.9-0.2c-0.8,0-3.2,0.2-4.6,0.2c-0.5,0-0.7-0.1-0.7-0.4
							c0-0.2,0.3-0.3,0.6-0.3c0.4,0,0.7,0,1.2-0.1c0.9-0.2,1.2-0.7,1.4-2c0.3-1.9,0.2-6.2,0.2-10.2V87z M221.1,90.7
							c0,0.3,0.1,0.5,0.3,0.6c0.7,0.4,2.8,0.7,4.7,0.7c1.1,0,2.4-0.1,3.5-0.8c1.6-1,2.6-3.3,2.6-6.7c0-5.8-3.1-8.9-7.8-8.9
							c-1.3,0-2.4,0.1-3.1,0.3c-0.2,0.1-0.3,0.2-0.3,0.5V90.7z"/>
						<path class="st0" d="M250.9,105.4c0-1.2,0.9-2.8,2.8-2.8c1.5,0,2.7,1.1,2.7,2.7c0,1.6-1.2,2.9-2.7,2.9
							C251.8,108.2,250.9,106.7,250.9,105.4z"/>
					</g>
				</g>
			</g>
		</g>
	</g>
	<g>
		<g>
			<g>
				<path class="st0" d="M291.1,146.1c-2.5-2.3-3.2-5.3-3.2-7.7c0-1.8,0.6-4.8,2.9-7.1c1.6-1.6,4-2.8,8-2.8c1,0,2.5,0.1,3.8,0.3
					c1,0.2,1.8,0.3,2.7,0.4c0.3,0,0.3,0.1,0.3,0.3c0,0.2-0.1,0.5-0.1,1.5c-0.1,0.9-0.1,2.3-0.1,2.7c0,0.4-0.1,0.5-0.2,0.5
					c-0.2,0-0.2-0.2-0.2-0.5c0-1-0.4-2.1-1.1-2.7c-0.9-0.8-2.9-1.5-5.2-1.5c-3.5,0-5.1,1-6,1.9c-1.9,1.8-2.4,4.2-2.4,6.8
					c0,5,3.8,9.6,9.5,9.6c2,0,3.5-0.2,4.6-1.3c0.5-0.6,0.9-1.7,1-2.2c0.1-0.3,0.1-0.4,0.3-0.4c0.1,0,0.2,0.2,0.2,0.4
					c0,0.2-0.3,2.5-0.6,3.4c-0.2,0.5-0.2,0.5-0.7,0.8c-1,0.4-3,0.6-4.7,0.6C295.9,148.9,293.2,147.9,291.1,146.1z"/>
				<path class="st0" d="M315.5,142c0,2.1,0,3.9,0.1,4.8c0.1,0.7,0.2,1.1,0.8,1.2c0.3,0.1,0.8,0.1,1,0.1c0.1,0,0.2,0.1,0.2,0.2
					c0,0.1-0.1,0.2-0.4,0.2c-1.3,0-2.8-0.1-2.9-0.1c-0.1,0-1.6,0.1-2.3,0.1c-0.2,0-0.4-0.1-0.4-0.2c0-0.1,0.1-0.2,0.2-0.2
					c0.2,0,0.5-0.1,0.7-0.1c0.4-0.1,0.5-0.5,0.6-1.2c0.1-0.9,0.1-2.7,0.1-4.8v-3.9c0-3.5,0-4.1-0.1-4.8c-0.1-0.8-0.2-1.1-0.7-1.2
					c-0.3-0.1-0.5-0.1-0.7-0.1c-0.1,0-0.2-0.1-0.2-0.2c0-0.1,0.1-0.2,0.4-0.2c0.8,0,2.2,0.1,2.3,0.1c0.1,0,1.6-0.1,2.3-0.1
					c0.3,0,0.4,0.1,0.4,0.2c0,0.1-0.1,0.2-0.2,0.2c-0.2,0-0.3,0-0.6,0.1c-0.6,0.1-0.8,0.4-0.8,1.2c0,0.7,0,1.3,0,4.8V142z"/>
				<path class="st0" d="M325.4,138.1c0-3.5,0-4.1-0.1-4.8c-0.1-0.8-0.2-1.1-0.9-1.2c-0.2,0-0.6-0.1-0.8-0.1c-0.1,0-0.2-0.1-0.2-0.2
					c0-0.1,0.1-0.2,0.4-0.2c1,0,2.6,0.1,2.7,0.1c0.2,0,2.2-0.1,2.9-0.1c1.5,0,3.1,0.1,4.3,1c0.6,0.4,1.6,1.5,1.6,3
					c0,1.6-0.7,3.2-2.8,5.1c1.9,2.4,3.5,4.4,4.8,5.8c1.2,1.3,2,1.5,2.6,1.5c0.4,0.1,0.7,0.1,0.8,0.1c0.1,0,0.2,0.1,0.2,0.2
					c0,0.1-0.1,0.2-0.5,0.2h-1.4c-1.3,0-1.9-0.1-2.5-0.4c-1-0.5-1.8-1.6-3.1-3.3c-1-1.2-2-2.6-2.5-3.2c-0.1-0.1-0.2-0.1-0.3-0.1
					l-2.9-0.1c-0.1,0-0.2,0.1-0.2,0.2v0.5c0,2.1,0,3.9,0.1,4.8c0.1,0.7,0.2,1.1,0.9,1.2c0.3,0.1,0.8,0.1,1,0.1
					c0.2,0,0.2,0.1,0.2,0.2c0,0.1-0.1,0.2-0.4,0.2c-1.3,0-2.7-0.1-2.8-0.1c0,0-1.6,0.1-2.3,0.1c-0.2,0-0.4-0.1-0.4-0.2
					c0-0.1,0.1-0.2,0.2-0.2c0.2,0,0.5-0.1,0.7-0.1c0.4-0.1,0.5-0.5,0.6-1.2c0.1-0.9,0.1-2.7,0.1-4.8V138.1z M327.4,140
					c0,0.1,0.1,0.2,0.2,0.3c0.3,0.2,1.5,0.3,2.5,0.3c0.5,0,1.2,0,1.7-0.4c0.8-0.5,1.4-1.7,1.4-3.4c0-2.8-1.5-4.4-4-4.4
					c-0.7,0-1.4,0.1-1.6,0.1c-0.1,0.1-0.2,0.1-0.2,0.3V140z"/>
				<path class="st0" d="M344.1,138.1c0-3.5,0-4.1-0.1-4.8c-0.1-0.7-0.2-1.1-0.9-1.2c-0.2,0-0.6-0.1-0.8-0.1c-0.1,0-0.2-0.1-0.2-0.2
					c0-0.1,0.1-0.2,0.4-0.2c1,0,2.4,0.1,2.6,0.1c0.2,0,1.6-0.1,2.3-0.1c0.3,0,0.4,0.1,0.4,0.2c0,0.1-0.1,0.2-0.2,0.2
					c-0.2,0-0.3,0-0.6,0.1c-0.6,0.1-0.7,0.5-0.8,1.2c-0.1,0.7-0.1,1.3-0.1,4.8v3.1c0,3.2,0.7,4.6,1.7,5.4c1.1,1,2.1,1.2,3.4,1.2
					c1.4,0,2.8-0.6,3.6-1.6c1.1-1.3,1.3-3.1,1.3-5.4v-2.8c0-3.5,0-4.1-0.1-4.8c0-0.7-0.2-1.1-0.9-1.2c-0.2,0-0.6-0.1-0.8-0.1
					c-0.1,0-0.2-0.1-0.2-0.2c0-0.1,0.1-0.2,0.4-0.2c1,0,2.4,0.1,2.5,0.1c0.2,0,1.3-0.1,1.9-0.1c0.3,0,0.4,0.1,0.4,0.2
					c0,0.1-0.1,0.2-0.2,0.2c-0.2,0-0.3,0-0.6,0.1c-0.6,0.1-0.8,0.5-0.8,1.2c-0.1,0.7,0,1.3,0,4.8v2.4c0,2.4-0.3,5.1-2.1,6.7
					c-1.7,1.4-3.5,1.6-4.8,1.6c-0.8,0-3.2-0.1-4.8-1.6c-1.1-1-2-2.6-2-5.8V138.1z"/>
				<path class="st0" d="M377.6,142.8c0-1.8-0.1-2.1-1-2.3c-0.2,0-0.6-0.1-0.8-0.1c-0.1,0-0.2-0.1-0.2-0.2c0-0.2,0.1-0.2,0.4-0.2
					c1,0,2.6,0.1,2.7,0.1c0.1,0,1.5-0.1,2.3-0.1c0.3,0,0.4,0,0.4,0.2c0,0.1-0.1,0.2-0.2,0.2c-0.2,0-0.3,0-0.6,0.1
					c-0.6,0.1-0.8,0.4-0.9,1.2c0,0.7,0,1.4,0,2.3v2.5c0,1,0,1-0.3,1.2c-1.5,0.8-3.6,1-4.9,1c-1.8,0-5-0.2-7.6-2.4
					c-1.4-1.2-2.7-3.6-2.7-6.3c0-3.6,1.8-6.1,3.8-7.3c2.1-1.3,4.4-1.4,6.1-1.4c1.5,0,3.1,0.3,3.5,0.4c0.5,0.1,1.3,0.2,1.9,0.2
					c0.2,0,0.3,0.1,0.3,0.2c0,0.3-0.1,0.9-0.1,3.1c0,0.4-0.1,0.5-0.3,0.5c-0.1,0-0.2-0.1-0.2-0.3c0-0.3-0.2-0.9-0.5-1.5
					c-0.6-0.8-2.3-1.7-5.3-1.7c-1.4,0-3.1,0.1-4.8,1.4c-1.3,1-2.3,3-2.3,5.6c0,3.1,1.6,5.4,2.4,6.2c1.8,1.7,3.8,2.3,5.9,2.3
					c0.8,0,1.9-0.1,2.5-0.4c0.3-0.2,0.5-0.3,0.5-0.7V142.8z"/>
				<path class="st0" d="M390.5,142c0,2.1,0,3.9,0.1,4.8c0.1,0.7,0.2,1.1,0.8,1.2c0.3,0.1,0.8,0.1,1,0.1c0.1,0,0.2,0.1,0.2,0.2
					c0,0.1-0.1,0.2-0.4,0.2c-1.3,0-2.8-0.1-2.9-0.1c-0.1,0-1.6,0.1-2.3,0.1c-0.2,0-0.4-0.1-0.4-0.2c0-0.1,0.1-0.2,0.2-0.2
					c0.2,0,0.5-0.1,0.7-0.1c0.4-0.1,0.5-0.5,0.6-1.2c0.1-0.9,0.1-2.7,0.1-4.8v-3.9c0-3.5,0-4.1-0.1-4.8c-0.1-0.8-0.2-1.1-0.7-1.2
					c-0.3-0.1-0.5-0.1-0.7-0.1c-0.1,0-0.2-0.1-0.2-0.2c0-0.1,0.1-0.2,0.4-0.2c0.8,0,2.2,0.1,2.3,0.1c0.1,0,1.6-0.1,2.3-0.1
					c0.3,0,0.4,0.1,0.4,0.2c0,0.1-0.1,0.2-0.2,0.2c-0.2,0-0.3,0-0.6,0.1c-0.6,0.1-0.8,0.4-0.8,1.2c0,0.7,0,1.3,0,4.8V142z
					 M393.4,128.2c0.1,0.2,0,0.3-0.1,0.3c-0.1,0-0.3-0.1-0.8,0c-1.3,0.1-3.1,0.7-4,1.1c-0.2,0.1-0.3,0.1-0.4,0.1
					c-0.1,0-0.1-0.1-0.1-0.2c0-0.1,0.1-0.1,0.2-0.2c0.9-0.7,3.4-2.1,3.6-2.2c0.4-0.3,0.6-0.3,0.7-0.3c0.1,0,0.1,0.1,0.3,0.2
					C392.9,127.3,393.1,127.7,393.4,128.2z"/>
				<path class="st0" d="M405.5,132.1c0.3-0.7,0.4-0.9,0.5-0.9c0.2,0,0.3,0.3,0.5,0.8c0.4,0.9,4.1,10.1,5.5,13.5
					c0.8,2,1.5,2.3,2,2.4c0.3,0.1,0.7,0.1,0.9,0.1c0.1,0,0.3,0.1,0.3,0.2c0,0.1-0.3,0.2-0.5,0.2c-0.3,0-2,0-3.6-0.1
					c-0.4,0-0.8,0-0.8-0.2c0-0.1,0.1-0.1,0.2-0.2c0.1-0.1,0.4-0.2,0.2-0.6l-2.1-5.1c-0.1-0.1-0.1-0.1-0.2-0.1H403
					c-0.1,0-0.2,0.1-0.2,0.2l-1.3,3.6c-0.2,0.5-0.3,1.1-0.3,1.5c0,0.4,0.4,0.6,0.8,0.6h0.2c0.2,0,0.2,0.1,0.2,0.2
					c0,0.1-0.1,0.2-0.3,0.2c-0.5,0-1.8-0.1-2.1-0.1c-0.2,0-1.4,0.1-2.3,0.1c-0.3,0-0.4-0.1-0.4-0.2c0-0.1,0.1-0.2,0.2-0.2
					c0.2,0,0.5,0,0.7-0.1c1-0.1,1.5-0.9,1.9-2L405.5,132.1z M408,141.4c0.1,0,0.1-0.1,0.1-0.2l-2.3-6.1c-0.1-0.3-0.3-0.3-0.4,0
					l-2.1,6.1c0,0.1,0,0.2,0.1,0.2H408z"/>
				<path class="st0" d="M432.6,136.3c0-4.1,0-4.8-0.1-5.7c-0.1-0.9-0.3-1.3-1.1-1.5c-0.2-0.1-0.7-0.1-0.9-0.1
					c-0.1,0-0.2-0.1-0.2-0.2c0-0.2,0.1-0.2,0.4-0.2c1.2,0,2.7,0.1,3,0.1c0.6,0,2.1-0.1,3.3-0.1c3.3,0,4.5,1.1,4.9,1.5
					c0.6,0.5,1.3,1.7,1.3,3.1c0,3.7-2.7,6.2-6.4,6.2c-0.1,0-0.4,0-0.5,0c-0.1,0-0.3-0.1-0.3-0.2c0-0.2,0.2-0.2,0.7-0.2
					c2.5,0,4.5-1.9,4.5-4.3c0-0.9-0.1-2.6-1.5-4c-1.4-1.4-3-1.3-3.6-1.3c-0.4,0-0.9,0.1-1.1,0.2c-0.2,0.1-0.2,0.2-0.2,0.5v10.8
					c0,2.5,0,4.6,0.1,5.7c0.1,0.8,0.2,1.3,1,1.4c0.4,0.1,0.9,0.1,1.2,0.1c0.2,0,0.2,0.1,0.2,0.2c0,0.1-0.1,0.2-0.4,0.2
					c-1.4,0-3.1-0.1-3.2-0.1c-0.1,0-1.7,0.1-2.5,0.1c-0.3,0-0.4-0.1-0.4-0.2c0-0.1,0.1-0.2,0.2-0.2c0.2,0,0.5-0.1,0.8-0.1
					c0.5-0.1,0.7-0.7,0.8-1.4c0.1-1.1,0.1-3.2,0.1-5.7V136.3z"/>
				<path class="st0" d="M453.1,142.1c0,3.3,0.1,4.6,0.5,5c0.4,0.4,1.3,0.5,3.1,0.5c1.2,0,2.2,0,2.8-0.7c0.3-0.3,0.5-0.8,0.5-1.3
					c0-0.2,0.1-0.3,0.2-0.3c0.1,0,0.2,0.1,0.2,0.3c0,0.2-0.2,1.6-0.3,2.2c-0.2,0.5-0.2,0.6-1.5,0.6c-1.6,0-2.9,0-4-0.1
					c-1,0-1.8-0.1-2.5-0.1c-0.1,0-0.5,0-0.9,0c-0.5,0-1,0.1-1.3,0.1c-0.2,0-0.4-0.1-0.4-0.2c0-0.1,0.1-0.2,0.2-0.2
					c0.2,0,0.5-0.1,0.7-0.1c0.4-0.1,0.5-0.5,0.6-1.2c0.1-0.9,0.1-2.7,0.1-4.8v-3.9c0-3.5,0-4.1-0.1-4.8c-0.1-0.8-0.2-1.1-0.9-1.2
					c-0.2,0-0.6-0.1-0.8-0.1c-0.1,0-0.2-0.1-0.2-0.2c0-0.1,0.1-0.2,0.4-0.2c1,0,2.5,0.1,2.6,0.1c0.1,0,1.8-0.1,2.5-0.1
					c0.2,0,0.4,0.1,0.4,0.2c0,0.1-0.1,0.2-0.2,0.2c-0.2,0-0.5,0-0.8,0.1c-0.7,0.1-0.8,0.5-0.9,1.3c0,0.7,0,1.3,0,4.8V142.1z"/>
				<path class="st0" d="M472.4,132.1c0.3-0.7,0.4-0.9,0.5-0.9c0.2,0,0.3,0.3,0.5,0.8c0.4,0.9,4.1,10.1,5.5,13.5
					c0.8,2,1.5,2.3,2,2.4c0.3,0.1,0.7,0.1,0.9,0.1c0.1,0,0.3,0.1,0.3,0.2c0,0.1-0.3,0.2-0.5,0.2c-0.3,0-2,0-3.6-0.1
					c-0.4,0-0.8,0-0.8-0.2c0-0.1,0.1-0.1,0.2-0.2c0.1-0.1,0.4-0.2,0.2-0.6l-2.1-5.1c-0.1-0.1-0.1-0.1-0.2-0.1H470
					c-0.1,0-0.2,0.1-0.2,0.2l-1.3,3.6c-0.2,0.5-0.3,1.1-0.3,1.5c0,0.4,0.4,0.6,0.8,0.6h0.2c0.2,0,0.2,0.1,0.2,0.2
					c0,0.1-0.1,0.2-0.3,0.2c-0.5,0-1.8-0.1-2.1-0.1c-0.2,0-1.4,0.1-2.3,0.1c-0.3,0-0.4-0.1-0.4-0.2c0-0.1,0.1-0.2,0.2-0.2
					c0.2,0,0.5,0,0.7-0.1c1-0.1,1.5-0.9,1.9-2L472.4,132.1z M475,141.4c0.1,0,0.1-0.1,0.1-0.2l-2.3-6.1c-0.1-0.3-0.3-0.3-0.4,0
					l-2.1,6.1c0,0.1,0,0.2,0.1,0.2H475z M477,128.2c0.1,0.2,0,0.3-0.1,0.3c-0.1,0-0.3-0.1-0.8,0c-1.3,0.1-3.1,0.7-4,1.1
					c-0.2,0.1-0.3,0.1-0.4,0.1s-0.1-0.1-0.1-0.2c0-0.1,0.1-0.1,0.2-0.2c0.9-0.7,3.4-2.1,3.6-2.2c0.4-0.3,0.6-0.3,0.7-0.3
					c0.1,0,0.1,0.1,0.3,0.2C476.6,127.3,476.8,127.7,477,128.2z"/>
				<path class="st0" d="M486.9,148.2c-0.3-0.2-0.3-0.2-0.3-0.8c0-1.1,0.1-2,0.1-2.4c0-0.2,0.1-0.4,0.2-0.4c0.1,0,0.2,0.1,0.2,0.3
					c0,0.2,0,0.5,0.1,0.8c0.4,1.6,2.1,2.2,3.6,2.2c2.3,0,3.5-1.3,3.5-3c0-1.6-0.9-2.4-2.9-3.9l-1-0.8c-2.5-1.9-3.3-3.2-3.3-4.8
					c0-2.6,2.1-4.2,5.1-4.2c0.9,0,1.8,0.1,2.4,0.3c0.4,0.1,0.6,0.1,0.8,0.1c0.2,0,0.2,0,0.2,0.2c0,0.1-0.1,0.8-0.1,2.4
					c0,0.3,0,0.5-0.2,0.5c-0.2,0-0.2-0.1-0.2-0.3c0-0.3-0.2-0.9-0.3-1.1c-0.2-0.3-0.9-1.1-3-1.1c-1.7,0-3.1,0.8-3.1,2.4
					c0,1.4,0.7,2.2,3,3.8l0.7,0.4c2.8,1.9,3.8,3.5,3.8,5.4c0,1.3-0.5,2.7-2.1,3.8c-1,0.6-2.4,0.8-3.7,0.8
					C489.2,148.8,487.9,148.6,486.9,148.2z"/>
				<path class="st0" d="M509.8,142c0,2.1,0,3.9,0.1,4.8c0.1,0.7,0.2,1.1,0.9,1.2c0.3,0.1,0.8,0.1,1,0.1c0.2,0,0.2,0.1,0.2,0.2
					c0,0.1-0.1,0.2-0.4,0.2c-1.3,0-2.7-0.1-2.9-0.1c-0.1,0-1.7,0.1-2.4,0.1c-0.3,0-0.4-0.1-0.4-0.2c0-0.1,0.1-0.2,0.2-0.2
					c0.2,0,0.5-0.1,0.7-0.1c0.5-0.1,0.6-0.5,0.7-1.2c0.1-0.9,0.1-2.7,0.1-4.8v-9.3l-3.3,0.1c-1.4,0-2,0.2-2.3,0.7
					c-0.3,0.4-0.3,0.5-0.4,0.7c-0.1,0.2-0.1,0.2-0.2,0.2c-0.1,0-0.2-0.1-0.2-0.2c0-0.2,0.4-2.2,0.5-2.4c0-0.1,0.2-0.4,0.2-0.4
					c0.2,0,0.4,0.2,1,0.3c0.7,0.1,1.5,0.1,1.8,0.1h8.7c0.8,0,1.3-0.1,1.6-0.1c0.3-0.1,0.5-0.1,0.7-0.1c0.1,0,0.1,0.1,0.1,0.3
					c0,0.7-0.1,2.3-0.1,2.5c0,0.2-0.1,0.3-0.2,0.3c-0.1,0-0.2-0.1-0.2-0.4l0-0.2c-0.1-0.7-0.6-1.2-2.8-1.2l-2.9-0.1V142z"/>
				<path class="st0" d="M525.2,142c0,2.1,0,3.9,0.1,4.8c0.1,0.7,0.2,1.1,0.8,1.2c0.3,0.1,0.8,0.1,1,0.1c0.1,0,0.2,0.1,0.2,0.2
					c0,0.1-0.1,0.2-0.4,0.2c-1.3,0-2.8-0.1-2.9-0.1c-0.1,0-1.6,0.1-2.3,0.1c-0.2,0-0.4-0.1-0.4-0.2c0-0.1,0.1-0.2,0.2-0.2
					c0.2,0,0.5-0.1,0.7-0.1c0.4-0.1,0.5-0.5,0.6-1.2c0.1-0.9,0.1-2.7,0.1-4.8v-3.9c0-3.5,0-4.1-0.1-4.8c-0.1-0.8-0.2-1.1-0.7-1.2
					c-0.3-0.1-0.5-0.1-0.7-0.1c-0.1,0-0.2-0.1-0.2-0.2c0-0.1,0.1-0.2,0.4-0.2c0.8,0,2.2,0.1,2.3,0.1c0.1,0,1.6-0.1,2.3-0.1
					c0.3,0,0.4,0.1,0.4,0.2c0,0.1-0.1,0.2-0.2,0.2c-0.2,0-0.3,0-0.6,0.1c-0.6,0.1-0.8,0.4-0.8,1.2c0,0.7,0,1.3,0,4.8V142z"/>
				<path class="st0" d="M535.2,146.4c-2.3-1.9-2.8-4.5-2.8-6.6c0-1.5,0.5-4.1,2.6-6.1c1.4-1.3,3.5-2.4,7-2.4c0.9,0,2.2,0.1,3.4,0.3
					c0.9,0.2,1.6,0.3,2.4,0.3c0.2,0,0.3,0.1,0.3,0.2c0,0.2-0.1,0.4-0.1,1.3c0,0.7,0,2-0.1,2.3c0,0.3-0.1,0.5-0.3,0.5
					c-0.2,0-0.2-0.2-0.2-0.5c0-0.9-0.4-1.8-1-2.2c-0.8-0.7-2.5-1.2-4.5-1.2c-3,0-4.4,0.8-5.2,1.5c-1.7,1.6-2.1,3.6-2.1,5.8
					c0,4.3,3.4,8.1,8.3,8.1c1.7,0,2.9-0.1,3.8-1c0.5-0.5,0.8-1.4,0.9-1.9c0.1-0.2,0.1-0.3,0.2-0.3c0.1,0,0.2,0.2,0.2,0.3
					c0,0.2-0.3,2.1-0.5,2.9c-0.1,0.4-0.2,0.5-0.6,0.7c-0.9,0.4-2.7,0.5-4.2,0.5C539.4,148.8,537,148,535.2,146.4z"/>
				<path class="st0" d="M560.4,132.1c0.3-0.7,0.4-0.9,0.5-0.9c0.2,0,0.3,0.3,0.5,0.8c0.4,0.9,4.1,10.1,5.5,13.5
					c0.8,2,1.5,2.3,2,2.4c0.3,0.1,0.7,0.1,0.9,0.1c0.1,0,0.3,0.1,0.3,0.2c0,0.1-0.3,0.2-0.5,0.2c-0.3,0-2,0-3.6-0.1
					c-0.4,0-0.8,0-0.8-0.2c0-0.1,0.1-0.1,0.2-0.2c0.1-0.1,0.4-0.2,0.2-0.6l-2.1-5.1c-0.1-0.1-0.1-0.1-0.2-0.1H558
					c-0.1,0-0.2,0.1-0.2,0.2l-1.3,3.6c-0.2,0.5-0.3,1.1-0.3,1.5c0,0.4,0.4,0.6,0.8,0.6h0.2c0.2,0,0.2,0.1,0.2,0.2
					c0,0.1-0.1,0.2-0.3,0.2c-0.5,0-1.8-0.1-2.1-0.1c-0.2,0-1.4,0.1-2.3,0.1c-0.3,0-0.4-0.1-0.4-0.2c0-0.1,0.1-0.2,0.2-0.2
					c0.2,0,0.5,0,0.7-0.1c1-0.1,1.5-0.9,1.9-2L560.4,132.1z M563,141.4c0.1,0,0.1-0.1,0.1-0.2l-2.3-6.1c-0.1-0.3-0.3-0.3-0.4,0
					l-2.1,6.1c0,0.1,0,0.2,0.1,0.2H563z"/>
			</g>
		</g>
	</g>
</g>
<g>
	<g>
		<g>
			<g>
				<path class="st0" d="M78,76.6c0.5-0.5,1-1,1.4-1.5c1.5-2.2,2.7-4.1,3.7-6c-1.8,0.8-3.5,2-5.1,3.9c-2.2,2.7-9.3,9.7-12.4,12.6
					c0.3-0.3,0.6-0.6,0.8-1c-3.7,3.5-6.8,5.8-9.6,7.5l-1.8,5c3.7-2,7.7-4.5,12.9-9.3c0.2-0.5,0.5-1.1,1-1.7
					C72.5,81.7,75,79.7,78,76.6z"/>
				<path class="st0" d="M95.8,50.8c0.4-0.4,0.8-0.8,1.2-1.2c2.6-2.6,4.8-4.5,6.8-6.2c-0.4-1.1-0.8-2.3-1.2-3.4
					c-2.4,1.8-5,4.1-8.1,7.1c-1.2,1.2-2.3,2.3-3.2,3.4C93.1,50.3,94.6,50.4,95.8,50.8z"/>
				<path class="st0" d="M68.1,90.4c-5.2,4.6-9.1,6.7-13.2,8.8c-0.2,0.1-0.5,0.3-0.8,0.4l-1.7,4.8c1.4-0.8,2.7-1.5,4.1-2.2
					c4-2.1,8.1-4.3,13.5-9.1c-0.6-0.7-1-1.2-1.3-1.6C68.5,91.2,68.3,90.9,68.1,90.4z"/>
				<path class="st0" d="M74.7,88.9c3-3,5.3-5.6,7.1-8c-0.1,0.1-0.2,0.2-0.4,0.3c-3,2.7-5.3,4.6-7.6,7.4c-0.1,0.1,0,0.4,0.3,0.9
					C74.3,89.3,74.5,89.1,74.7,88.9C74.7,88.9,74.7,88.9,74.7,88.9z"/>
				<path class="st0" d="M85.6,68.2c-0.2,0.3-0.4,0.7-0.5,1c-0.4,0.8-0.9,1.6-1.3,2.4c0.1,0,0.1-0.1,0.2-0.1c1.1-0.6,2.6-1,4.4-1.1
					c0.6-1.1,1.2-2.2,1.9-3.4C88.6,67.4,87,67.7,85.6,68.2z"/>
				<path class="st0" d="M99.7,54.3c0,0.1,0.1,0.1,0.1,0.2c0.3-0.3,0.7-0.7,1-1.1c1.8-1.8,3.4-3.3,4.9-4.6c-0.4-1.2-0.8-2.3-1.2-3.4
					c-1.9,1.5-3.9,3.4-6.1,5.6c-0.3,0.3-0.5,0.5-0.8,0.8C98.5,52.4,99.2,53.3,99.7,54.3z"/>
				<path class="st0" d="M108.5,61.1c0.4-0.4,0.8-0.8,1.2-1.2c-0.4-1.2-0.8-2.3-1.2-3.5c-0.8,0.7-1.5,1.5-2.3,2.3
					c-4.7,4.7-7.5,8.4-9.7,11.7c1.3,0.2,2.5,0.5,3.4,1C101.8,68.4,104.5,65.1,108.5,61.1z"/>
				<path class="st0" d="M76.5,100c-0.4-0.3-0.9-0.7-1.5-1.3c-4.9,4.2-8.6,6.1-12.4,8.2c-4.2,2.3-8.6,4.6-14.5,9.9l-2.6,7.2
					c0.4-0.4,0.9-0.9,1.3-1.4c2.9-2.9,5.4-5.1,7.7-6.8l1.4-3.9c0.4-1.1,1-1.8,2.1-1.8h5.6c0.2-0.1,0.4-0.2,0.5-0.3
					c4-2.1,8-4.3,13.4-8.9C77.3,100.7,76.9,100.3,76.5,100z"/>
				<path class="st0" d="M82.4,96.6c1.7-1.7,3.2-3.3,4.5-4.8c-0.1-1.1-0.4-2.4-1-4.2c-1.6,2-3.5,4.1-5.9,6.6c0,0,0,0,0,0
					c-0.6,0.6-1.2,1.1-1.7,1.7c0.7,1.1,1.4,2.1,1.8,2.9c0,0,0,0,0,0C80.8,98.1,81.6,97.4,82.4,96.6C82.4,96.6,82.4,96.6,82.4,96.6z"
					/>
				<path class="st0" d="M28.4,165.9c7.9-7.9,10.7-13.1,13.3-18.1c1.2-2.2,2.3-4.3,3.8-6.6l3.6-10c-5.7,6.2-8.1,10.7-10.4,15
					c-0.9,1.8-1.9,3.5-3,5.3c-4,10.9-8.6,18.8-18.6,20.2c-0.3,0-0.6,0.1-1,0.1c-2.1,1.4-4,2.5-5.9,3.6c1.7,0,4,0,6.7,0
					C20.2,173.3,23.8,170.5,28.4,165.9C28.4,165.9,28.4,165.9,28.4,165.9z"/>
				<path class="st0" d="M113.8,71.3c-0.4-1.2-0.9-2.4-1.3-3.6c-3.7,3.8-6.1,7-8,9.8c0.6,1.3,1.1,2.5,1.7,3.7
					C107.9,78.3,110.1,75.2,113.8,71.3z"/>
				<path class="st0" d="M99.9,86.9c-1.1,3.3-1.5,4.8-1,6.8c1.7-2.4,2.9-4.6,4-6.8c-0.6-1.3-1.2-2.6-1.8-3.8
					c-0.1,0.2-0.2,0.4-0.3,0.6C100.6,84.8,100.3,85.9,99.9,86.9z"/>
				<path class="st0" d="M81.5,107.5c-1.3,1.1-2.5,2-3.7,2.8h3.6c0-0.2,0-0.4,0-0.5C81.4,108.9,81.4,108.2,81.5,107.5z"/>
				<path class="st0" d="M103.9,105.1c0.1-0.1,0.1-0.2,0.2-0.2c0.3-2.1,0.6-4.4,0.8-5.9c0-0.5,0.1-0.9,0.2-1.3
					c-0.7,1.1-1.4,2.2-2.3,3.4C103.2,102.2,103.6,103.6,103.9,105.1z"/>
				<path class="st0" d="M110.3,95.3c0.3-0.5,0.5-1,0.8-1.5c1.8-3.4,3.6-6.7,6.8-10.7c-0.4-1.2-0.9-2.5-1.3-3.7
					c-3.5,4.1-5.5,7.5-7.3,10.6c0.1,0.3,0.2,0.7,0.3,1C109.9,92.2,110.4,93.8,110.3,95.3z"/>
				<path class="st0" d="M39.7,164.4c-1.6,2-3.6,4.3-6.1,6.8l0,0c-1.6,1.6-3.1,3-4.5,4.2c1.7,0,3.4,0,5.1,0c0.6-0.6,1.2-1.2,1.8-1.8
					c0,0,0,0,0,0c1.9-1.9,3.5-3.6,4.8-5.2C40.3,167.4,39.9,166.1,39.7,164.4z"/>
				<path class="st0" d="M47.5,172c-0.9,1.1-1.8,2.2-2.9,3.4c1.8,0,3.4,0,4.5,0c0.9-1.1,1.7-2.1,2.4-3.1c-0.1,0-0.2-0.1-0.3-0.1
					C51.1,172.3,49.5,172.3,47.5,172z"/>
				<path class="st0" d="M122.3,95.3c-0.5-1.3-0.9-2.6-1.4-4c-2.2,3.1-3.7,5.9-5.1,8.5c-1.8,3.3-3.5,6.5-6.6,10.4h3.3
					c0.3,0,0.6,0,0.9,0.1c2.4-3.3,3.9-6.2,5.4-9C119.9,99.4,120.9,97.4,122.3,95.3z"/>
				<path class="st0" d="M130.1,117.1c-2,3.7-4.4,7.6-9.1,12.7l1.3,3.6c4.6-4.8,7.3-8.6,9.3-12C131.1,120,130.6,118.5,130.1,117.1z"
					/>
				<path class="st0" d="M78.5,92.7c2.8-2.8,4.9-5.2,6.7-7.4c-0.4-1.5-0.7-3-0.9-4.5c-1.9,2.7-4.4,5.8-8.1,9.5c0,0,0,0,0,0
					c-0.3,0.3-0.6,0.6-0.9,0.9c0.6,0.9,1.2,1.9,1.9,2.9C77.6,93.7,78,93.2,78.5,92.7C78.5,92.8,78.5,92.8,78.5,92.7z"/>
				<path class="st0" d="M95.8,64.9c-1,0.5-1.9,0.8-2.9,1.2c-0.9,1.4-1.7,2.8-2.5,4.1c0.8,0,1.6,0,2.4,0c0.5,0,1.1,0,1.5,0
					c2.2-3.6,5-7.6,10.3-12.9c1.1-1.1,2.1-2,3-2.9c-0.4-1.2-0.8-2.3-1.2-3.5c-1.3,1.2-2.7,2.5-4.2,4c-0.7,0.7-1.3,1.3-1.9,2
					C100.5,59.7,98.9,63.4,95.8,64.9z"/>
				<path class="st0" d="M58.8,103.1c-2.3,1.2-4.7,2.5-7.3,4.3l-2,5.7c4.2-3.4,7.5-5.1,11-7c3.9-2.1,8-4.3,13.3-8.8
					c-0.8-0.8-1.5-1.7-2.3-2.5C66.4,99,62.7,101,58.8,103.1z"/>
				<path class="st0" d="M9.2,172.3c-0.7,0-1.2,0.5-1.2,1.2v0.7c0,0.1,0,0.2,0.1,0.4c1.3-0.7,2.7-1.5,4.1-2.4
					C11,172.3,9.8,172.3,9.2,172.3z"/>
				<path class="st0" d="M43.7,129l-4.3,12c2.3-4.1,5.1-8.4,11.2-14.5c0,0,0.1-0.1,0.1-0.1l2.5-6.9c-1.5,1.3-3.2,2.8-5,4.6
					C46.5,125.9,45,127.5,43.7,129z"/>
				<path class="st0" d="M103.3,75c0.1,0.2,0.1,0.3,0.2,0.5c1.9-2.9,4.4-6,8.2-9.9c-0.4-1.2-0.8-2.4-1.3-3.6
					c-0.2,0.2-0.3,0.3-0.5,0.5c-3.9,3.9-6.5,7.1-8.5,9.9C102.2,73.1,102.8,73.9,103.3,75z"/>
				<path class="st0" d="M83.7,99.7c0.9-1.5,1.5-2.7,2-3.7c-0.6,0.6-1.3,1.3-1.9,2c0,0,0,0,0,0.1c-0.6,0.6-1.3,1.2-1.9,1.8
					c0.5,0.2,1,0.3,1.5,0.3C83.5,100.1,83.6,99.9,83.7,99.7z"/>
				<path class="st0" d="M79,102.5c-4.5,3.8-8,5.8-11.5,7.7h6.8c2.2-1.4,4.6-3.1,7.3-5.5C80.6,104.3,79.8,103.4,79,102.5z"/>
				<path class="st0" d="M101.6,99.3c1.6-2.2,2.9-4.2,3.9-6.1c-0.1-1.1-0.5-1.8-1.3-3.4c-0.1-0.2-0.2-0.4-0.3-0.7
					c-1.2,2.2-2.4,4.5-4.1,6.9C100.2,96.9,100.8,97.9,101.6,99.3z"/>
				<path class="st0" d="M115.8,77.1c-0.4-1.2-0.9-2.4-1.3-3.7c-3.5,3.9-5.7,7-7.5,10c0.5,1.4,1.1,2.7,1.5,4.1
					C110.3,84.4,112.3,81.2,115.8,77.1z"/>
				<path class="st0" d="M32.2,169.8C32.2,169.8,32.2,169.8,32.2,169.8c3.3-3.3,5.7-6.1,7.6-8.7c0.2-2.6,0.9-5.9,2.3-10l0.1-0.2
					c-2.5,4.7-5.2,9.4-12.3,16.5l0,0c0,0,0,0,0,0c-3.7,3.7-6.7,6.1-9.4,8c1.8,0,3.7,0,5.6,0C27.9,173.9,29.9,172,32.2,169.8
					L32.2,169.8z"/>
				<path class="st0" d="M42.1,170c-1.3,1.5-2.8,3.2-4.7,5c0,0,0,0,0,0c-0.1,0.1-0.2,0.2-0.4,0.4c1.7,0,3.3,0,4.8,0
					c1.3-1.4,2.4-2.6,3.4-3.8C44.3,171.4,43.1,171,42.1,170z"/>
				<path class="st0" d="M107,109.8c4-4.8,6-8.6,8-12.3c1.5-2.8,2.9-5.4,5.1-8.5c-0.5-1.3-0.9-2.6-1.4-3.8c-3.2,4.1-5,7.5-6.8,10.8
					c-0.8,1.6-1.7,3.1-2.6,4.7c-0.3,1.2-0.6,2.5-0.9,4C108.2,105.6,107.7,107.6,107,109.8z"/>
				<path class="st0" d="M124.6,101.7c-0.5-1.4-1-2.8-1.5-4.1c-1.4,2.2-2.4,4.2-3.5,6.1c-1.4,2.7-2.9,5.3-5,8.4l1.4,3.8
					c3.1-4,4.9-7.4,6.6-10.6C123.2,104.1,123.9,102.9,124.6,101.7z"/>
				<path class="st0" d="M126.9,108.2c-0.5-1.4-1-2.8-1.5-4.3c-0.7,1.2-1.3,2.4-1.9,3.5c-1.8,3.4-3.5,6.6-6.7,10.6l1.3,3.7
					c4.2-5,6.3-8.9,8.3-12.7C126.6,108.8,126.7,108.5,126.9,108.2z"/>
				<path class="st0" d="M132.4,123.6c-2,3.4-4.7,7.1-9.4,11.9l1.3,3.6c0.1-0.1,0.2-0.2,0.3-0.3c0,0,0,0,0-0.1
					c4.3-4.3,7.1-7.9,9.2-11C133.3,126.4,132.9,125,132.4,123.6z"/>
				<path class="st0" d="M127.7,110.5c-0.1,0.3-0.3,0.5-0.4,0.8c-2.1,3.9-4.1,7.7-8.4,12.7l1.3,3.7c4.7-5.1,7-9.1,9.1-12.8
					C128.7,113.4,128.2,112,127.7,110.5z"/>
				<path class="st0" d="M132.2,146.5C132.3,146.5,132.3,146.5,132.2,146.5c2.4-2.4,4.3-4.6,5.9-6.5c-0.4-1.2-0.9-2.5-1.3-3.8
					c-1.7,2.3-4,4.9-7,7.9c0,0,0,0,0,0c-1,1-1.9,1.9-2.8,2.7l1.2,3.5C129.5,149.1,130.8,147.9,132.2,146.5z"/>
				<path class="st0" d="M128.4,142.6c3.3-3.3,5.7-6.1,7.6-8.7c-0.4-1.3-0.9-2.6-1.4-3.9c-2,2.9-4.6,6.2-8.6,10.2c0,0,0,0,0,0
					c-0.3,0.3-0.6,0.6-1,1l1.3,3.5C126.9,144.1,127.7,143.4,128.4,142.6C128.4,142.6,128.4,142.6,128.4,142.6z"/>
				<path class="st0" d="M133.7,147.9c-1.7,1.7-3.3,3.2-4.7,4.4l1.2,3.4c1.8-1.5,3.7-3.2,5.9-5.4c0,0,0,0,0.1-0.1
					c1.6-1.6,3-3.1,4.2-4.5c-0.4-1.1-0.8-2.4-1.3-3.7C137.5,143.9,135.8,145.8,133.7,147.9C133.7,147.9,133.7,147.9,133.7,147.9z"/>
				<path class="st0" d="M141.4,155.6L141.4,155.6c-3.3,3.3-6.1,5.7-8.6,7.5l1,2.9c0.1,0.2,0.1,0.3,0.2,0.5c2.8-2,6-4.6,9.8-8.4
					c0,0,0,0,0,0c0.2-0.2,0.5-0.5,0.7-0.7c-0.5-1.1-0.9-2.2-1.4-3.5l0,0C142.6,154.4,142,155,141.4,155.6
					C141.4,155.6,141.4,155.6,141.4,155.6z"/>
				<path class="st0" d="M148.2,164.1c-6.5,6.3-10.9,8.9-15.4,11.3c1.9,0,4.2,0,6.8,0c3.1-2,6.5-4.6,10.8-8.7
					C149.7,166,148.9,165.1,148.2,164.1z"/>
				<path class="st0" d="M157,170.6c-0.1,0.1-0.2,0.2-0.3,0.3l0,0c-1.7,1.7-3.3,3.2-4.8,4.5c1.7,0,3.4,0,5.1,0
					c0.7-0.7,1.4-1.4,2.2-2.1c0,0,0,0,0,0c0.6-0.6,1.2-1.3,1.8-1.9C159.4,171.2,158.1,170.9,157,170.6z"/>
				<path class="st0" d="M170.9,172.3c-0.3,0-0.5,0-0.8,0c-0.8,1-1.7,2-2.7,3.1c2,0,3.3,0,3.5,0c0.6,0,1.2-0.5,1.2-1.2
					c0,0,0-0.7,0-0.7C172.1,172.7,171.4,172.3,170.9,172.3z"/>
				<path class="st0" d="M137.5,151.7c-2.5,2.5-4.7,4.4-6.6,6l1.2,3.4c2.3-1.8,4.9-4,7.8-6.9c0,0,0,0,0,0c0.9-0.9,1.7-1.7,2.4-2.5
					c-0.4-1-0.8-2.2-1.3-3.6C140,149.2,138.9,150.4,137.5,151.7C137.5,151.7,137.5,151.7,137.5,151.7z"/>
				<path class="st0" d="M145.4,159.2c-0.1,0.1-0.1,0.1-0.2,0.2c0,0,0,0,0,0.1c-4.4,4.4-7.9,7.1-11,9.1c-0.3,1.9-1.7,3-2.7,3.3
					c-1.4,0.3-3.1,0.4-3.2,0.4c-0.7,0-1.2,0.6-1.2,1.2v0.7c0,0.7,0.6,1.2,1.2,1.2c0.2,0,0.5,0,0.8,0c0.1-0.1,0.3-0.2,0.4-0.2
					c4.9-2.6,10-5.4,17.6-12.8C146.5,161.4,145.9,160.4,145.4,159.2z"/>
				<path class="st0" d="M151.9,168.1c-3.4,3.3-6.2,5.6-8.8,7.4c1.8,0,3.8,0,5.7,0c1.9-1.5,3.9-3.3,6.2-5.6
					C153.9,169.4,152.9,168.8,151.9,168.1z"/>
				<path class="st0" d="M163.4,171.8c-0.9,0.9-1.8,1.9-2.8,2.9c0,0,0,0,0,0c-0.2,0.2-0.5,0.5-0.7,0.7c1.7,0,3.4,0,4.8,0
					c1.1-1.1,2.1-2.2,2.9-3.2C166.2,172.1,164.8,172,163.4,171.8z"/>
				<path class="st0" d="M91.2,7.9c-0.5-1.2-1.8-1.4-2.2-1.4c-0.5,0-1.8,0.3-2.3,1.6l-1,2.8c0.6-0.3,1.2-0.6,1.8-1
					C88.7,9.2,90,8.6,91.2,7.9z"/>
				<path class="st0" d="M85.5,38c5.3-5.3,9.2-8.1,12.8-10.3c-0.4-1.1-0.8-2.2-1.2-3.3c-3.9,2.3-8.3,5.3-14.1,11.1
					c-5.8,5.8-8.8,10.1-11.1,14.1l-5.7,16.1c3-3.9,4.8-7.2,6.5-10.4C75.4,50.3,77.9,45.5,85.5,38z"/>
				<path class="st0" d="M93,12.8c-0.5-1.3-0.9-2.4-1.2-3.2c-0.7,0.4-1.4,0.8-2.1,1.1c-1.6,0.9-3.2,1.7-4.9,2.8l-1.9,5.3
					c3-2.2,5.7-3.6,8.4-5.1C91.9,13.4,92.5,13.1,93,12.8z"/>
				<path class="st0" d="M93.6,14.5C93.6,14.5,93.6,14.6,93.6,14.5c-3.6,1.9-7.3,3.9-11.9,7.7l-2.4,6.6c6.5-6.2,10.9-8.6,15.4-11.1
					C94.4,16.6,94,15.5,93.6,14.5z"/>
				<path class="st0" d="M63.2,77.3c7.9-7.9,10.7-13.1,13.4-18.1c2.7-5,5.2-9.8,12.8-17.3c4.3-4.3,7.7-7,10.8-9
					c-0.4-1.1-0.8-2.2-1.2-3.3c-3.4,2.2-7.2,5.1-12,9.9C79,47.3,76.2,52.6,73.5,57.6c-2.2,4.2-4.4,8.1-9.3,13.6L61.5,79
					C62.1,78.5,62.6,77.9,63.2,77.3C63.2,77.4,63.2,77.3,63.2,77.3z"/>
				<path class="st0" d="M96.5,22.7c-0.4-1.1-0.8-2.2-1.2-3.2c-4.5,2.4-9.3,5.5-16.1,12.3c-0.5,0.5-1,1-1.5,1.5l-3.2,8.9
					c1.8-2.3,4-4.9,7-8C87.9,27.9,92.3,25.1,96.5,22.7z"/>
				<path class="st0" d="M87.2,52.3c1.6-2,3.5-4.1,5.9-6.6c3.4-3.4,6.2-5.8,8.8-7.6c-0.4-1.1-0.8-2.2-1.2-3.3c-2.9,2-6.1,4.7-10,8.6
					c-7.9,7.9-10.7,13.1-13.4,18.1c-2.7,5.1-5.3,9.8-12.8,17.4c0,0,0,0,0,0c-1.6,1.6-3.1,3-4.5,4.2l-2.2,6.1
					c2.6-1.9,5.6-4.4,9.1-7.9c0,0,0,0,0,0c5.7-5.7,8.7-10,11-13.8c0.7-1.3,1.3-2.5,1.9-3.6C82.3,59.1,83.3,54.9,87.2,52.3z"/>
			</g>
			<g>
				<path class="st0" d="M67.6,110.2h-4.2c-2.7,1.5-5.6,3.1-8.9,5.7l-1.3,3.6c4.9-4.2,8.6-6.2,12.5-8.2
					C66.4,110.9,67,110.6,67.6,110.2z"/>
				<path class="st0" d="M69.6,115.1c2.6-1.4,5.2-2.8,8.2-4.9h-3.6c-1.9,1.2-3.7,2.1-5.5,3.1c-5,2.7-10.1,5.4-17.9,13.2l-1.6,4.6
					c0.9-1,1.8-2,2.9-3C59.7,120.4,64.5,117.8,69.6,115.1z"/>
				<path class="st0" d="M76.3,121c-5,2.7-10.2,5.4-18,13.3c-7.8,7.8-10.6,13-13.2,18c-1.5,2.9-3,5.6-5.3,8.8
					c-0.1,1.2-0.1,2.3,0,3.3c3.4-4.3,5.3-7.8,7.1-11.2c2.7-5.1,5.3-9.9,12.9-17.5c7.6-7.6,12.4-10.2,17.5-12.9
					c1.8-1,3.6-1.9,5.6-3.2c-0.2-0.7-0.4-1.3-0.5-2C80.3,118.9,78.3,120,76.3,121z"/>
				<path class="st0" d="M84,128.7c-5,2.7-10.2,5.4-18,13.3c-7.8,7.8-10.6,13-13.2,18c-1.9,3.6-3.8,7.2-7.5,11.6
					c0.3,0.1,0.6,0.1,0.8,0.2c0.5,0.1,1,0.2,1.5,0.2c3.4-4.3,5.2-7.7,7-11.1c2.7-5.1,5.3-9.9,12.9-17.5c7.6-7.6,12.4-10.2,17.6-12.9
					c0.4-0.2,0.8-0.4,1.2-0.6c-0.2-0.6-0.4-1.3-0.6-1.9C85,128.2,84.5,128.4,84,128.7z"/>
				<path class="st0" d="M109.2,110.2h-2.4c-0.5,1.5-1,3.1-1.6,4.6C106.8,113.2,108.1,111.7,109.2,110.2z"/>
				<path class="st0" d="M88.1,138.3c-4,2.3-8.4,5.3-14.5,11.3c-7.8,7.8-10.6,13-13.2,18c-1.4,2.5-2.7,5-4.6,7.8h2.4
					c1.6-2.5,2.8-4.7,4-6.9c2.7-5.1,5.3-9.9,12.9-17.5c5.4-5.4,9.5-8.3,13.2-10.5C88.3,139.8,88.2,139.1,88.1,138.3z"/>
				<path class="st0" d="M110.6,124.9L110.6,124.9c2.5-2.5,4.5-4.8,6.2-6.8l-0.8-2.2c-1.7,2.2-3.9,4.7-6.8,7.6l0,0
					c-4.2,4.2-7.5,6.8-10.5,8.8c-0.3,0.9-0.5,1.9-0.7,2.8C101.6,132.9,105.5,130,110.6,124.9z"/>
				<path class="st0" d="M98,145.9c0.1,0.3,0.1,0.6,0.2,1c0.7-0.4,1.3-0.7,2-1.1c5-2.7,10.2-5.4,18-13.2l0,0c1-1,1.8-1.9,2.7-2.8
					l-0.8-2.1c-1,1.1-2.1,2.2-3.3,3.5l0,0c-7.6,7.6-12.4,10.2-17.5,12.9c-0.5,0.3-1,0.5-1.5,0.8C97.9,145.2,98,145.5,98,145.9
					L98,145.9z"/>
				<path class="st0" d="M87.1,152c-1.8,1.5-3.6,3.2-5.7,5.3c-7.8,7.8-10.6,13-13.2,18c0,0.1-0.1,0.1-0.1,0.2h2.3
					c2.6-4.8,5.3-9.5,12.5-16.7c1.7-1.7,3.2-3.1,4.6-4.3c-0.1-0.6-0.2-1.3-0.2-2C87.1,152.3,87.1,152.2,87.1,152z"/>
				<path class="st0" d="M115.6,161.1c3.9-2.1,8-4.3,13.3-8.9l-0.7-2c-5.4,4.8-9.4,6.9-13.5,9.1c-5,2.7-10.2,5.4-18,13.3
					c-0.1,0.1-0.1,0.1-0.2,0.2c0.3,0.9,0.6,1.9,0.6,2.2c0,0,0,0,0,0.1c0.3-0.3,0.7-0.7,1-1C105.7,166.4,110.5,163.8,115.6,161.1z"/>
				<path class="st0" d="M72.5,117.2c-5,2.7-10.2,5.4-18,13.3c-4.1,4.1-6.8,7.5-8.9,10.5L42,151.1c0,0.1,0,0.2-0.1,0.2
					c0.4-0.7,0.7-1.3,1.1-2c2.7-5.1,5.3-9.9,12.9-17.5c7.6-7.6,12.4-10.2,17.5-12.9c2.6-1.4,5.2-2.8,8.3-4.9
					c-0.1-0.8-0.2-1.5-0.2-2.3C78.2,114.1,75.4,115.6,72.5,117.2z"/>
				<path class="st0" d="M83.9,122.8c-1.2,0.7-2.5,1.4-3.7,2c-5,2.7-10.2,5.4-18,13.3c-7.8,7.8-10.6,13-13.2,18
					c-2,3.8-4,7.5-8.1,12.3c0.4,0.7,0.8,1.2,1.2,1.6c4.4-5.2,6.5-9.1,8.6-13c2.7-5.1,5.3-9.9,12.9-17.5c7.6-7.6,12.4-10.2,17.5-12.9
					c1.1-0.6,2.2-1.2,3.4-1.8c-0.2-0.6-0.4-1.2-0.6-1.7C83.9,123,83.9,122.9,83.9,122.8z"/>
				<path class="st0" d="M69.9,145.8c-7.8,7.8-10.6,13-13.2,18c-1.5,2.8-2.9,5.5-5.2,8.6c0.5,0.2,0.8,0.6,0.8,1.1c0,0,0,0.3,0,0.7
					c0,0.2,0,0.3-0.1,0.5c2.9-3.8,4.5-6.9,6.2-10c2.7-5.1,5.3-9.9,12.9-17.5c7-7,11.6-9.7,16.3-12.3c-0.1-0.7-0.3-1.3-0.5-2
					C82.3,135.5,77.3,138.4,69.9,145.8z"/>
				<path class="st0" d="M106.8,121.1L106.8,121.1c3.5-3.5,6-6.4,7.9-9l-0.2-0.5c-0.2-0.6-0.6-1-1.1-1.2c-1.9,2.7-4.4,5.6-8,9.2l0,0
					c-1.3,1.3-2.6,2.5-3.8,3.6c-0.4,1.2-0.8,2.4-1.2,3.6C102.4,125.3,104.4,123.4,106.8,121.1z"/>
				<path class="st0" d="M87.5,145.9c0.1-0.4,0.2-0.8,0.3-1.2c-3,2-6.3,4.7-10.3,8.7c-7.8,7.8-10.6,13-13.2,18
					c-0.7,1.3-1.4,2.6-2.2,4h2.3c0.6-1,1.1-2,1.7-3c2.7-5.1,5.3-9.9,12.9-17.5c3.2-3.2,5.9-5.5,8.3-7.3
					C87.3,147,87.4,146.4,87.5,145.9L87.5,145.9z"/>
				<path class="st0" d="M97.4,141.5c4.7-2.5,9.7-5.4,17.1-12.8l0,0c1.7-1.7,3.1-3.3,4.4-4.7l-0.8-2.2c-1.4,1.7-3,3.5-5,5.5l0,0
					c-6.7,6.7-11.2,9.5-15.6,11.9C97.4,139.9,97.3,140.7,97.4,141.5z"/>
				<path class="st0" d="M98.5,152.4c0,0.1,0,0.2,0,0.3c1.9-1.2,3.8-2.2,5.6-3.2c5-2.7,10.2-5.4,18-13.2l0,0
					c0.3-0.3,0.6-0.6,0.9-0.9l-0.7-2.1c-0.5,0.5-1,1-1.5,1.5l0,0c-7.6,7.6-12.4,10.2-17.5,12.9c-1.5,0.8-3,1.6-4.6,2.5
					C98.6,151.1,98.6,151.7,98.5,152.4z"/>
				<path class="st0" d="M85.2,161.1c-5.9,5.9-8.9,10.3-11.2,14.3h2.3c2.2-3.6,5-7.6,10.3-12.9c0.7-0.7,1.5-1.4,2.2-2.1
					c-0.2-0.7-0.4-1.4-0.6-2.2C87.2,159.1,86.2,160.1,85.2,161.1z"/>
				<path class="st0" d="M108,153.4c4.8-2.6,9.7-5.2,17-12.3l-0.7-2.1c-7.4,7.4-12.2,9.9-17.2,12.6c-2.9,1.5-5.8,3.1-9.3,5.7
					c-0.3,1.1-0.6,2.1-0.9,3.1C101.1,157.1,104.5,155.3,108,153.4z"/>
				<path class="st0" d="M89.8,164.2c-0.3,0.3-0.5,0.5-0.8,0.8c-4.1,4.1-6.8,7.5-8.8,10.5h2.4c1.8-2.6,4.2-5.5,7.7-8.9
					c-0.1-0.6-0.2-1.2-0.3-1.8C89.9,164.5,89.8,164.4,89.8,164.2z"/>
				<path class="st0" d="M130.9,157.7l-0.7-2c-4.5,3.7-8,5.6-11.6,7.5c-4.8,2.6-9.7,5.2-17,12.2h2.9c6.2-5.8,10.5-8.1,15-10.5
					C122.9,163.1,126.4,161.2,130.9,157.7z"/>
				<path class="st0" d="M89.2,172.6c-0.9,1-1.7,1.9-2.4,2.8h1.8c0-0.1-0.1-0.3-0.1-0.4C88.6,174.7,88.9,173.6,89.2,172.6z"/>
				<path class="st0" d="M95.4,169.1c7-6.8,11.6-9.2,16.4-11.8c4.4-2.3,8.9-4.8,15.2-10.6l-0.7-2c-6.4,6-10.8,8.4-15.4,10.8
					c-4.4,2.4-9,4.8-15.5,10.8C95.3,167.4,95.3,168.3,95.4,169.1z"/>
				<path class="st0" d="M133.9,166.3c-2.8,1.9-5.2,3.2-7.7,4.5c-2.4,1.3-4.9,2.6-7.7,4.5h3.7c1.7-1,3.3-1.9,5-2.8
					c2.2-1.2,4.5-2.4,7-4C134.2,167.9,134.2,167.2,133.9,166.3z"/>
				<path class="st0" d="M132.8,163l-0.7-2c-3.6,2.7-6.6,4.3-9.7,6c-3.8,2-7.7,4.1-12.7,8.4h3.1c4-3.1,7.2-4.8,10.6-6.6
					C126.2,167.2,129.2,165.6,132.8,163z"/>
			</g>
		</g>
	</g>
</g>
</svg>
