<?xml version="1.0" encoding="UTF-8"?> <svg xmlns="http://www.w3.org/2000/svg" xmlns:xlink="http://www.w3.org/1999/xlink" version="1.1" id="Capa_1" x="0px" y="0px" width="200px" height="52px" viewBox="0 0 300 100" style="enable-background:new 0 0 300 100;" xml:space="preserve"> <style type="text/css"> .st0{fill:#005D99;} </style> <g> <g> <path class="st0" d="M76.2,21.3c0,0-0.3,0-0.7-0.1c-2.9-0.9-5.9-1.5-8.9-1.8c-3.8-0.5-7.7-0.6-11.6-0.4c-5.7,0.2-11.4,1-16.9,2.3 c-2.7,0.6-5.5,1.5-8.1,2.6c-2.4,1-5,2.2-6.7,4.3c-0.7,0.9-1.2,1.9-1.3,3.1c0,0.3,0,0.6-0.1,0.9c-0.2,0.6-0.6-0.4-0.7-0.6 c-0.2-0.6-0.2-1.2-0.1-1.8c0.2-1.1,0.9-2.1,1.7-2.9c1.9-1.9,4.4-3.1,6.9-4.1c5.1-2,10.6-3.1,16-3.7c5.4-0.7,10.9-0.9,16.4-0.6 c3.9,0.3,7.6,0.9,11.3,1.9c0.6,0.2,1.1,0.4,1.6,0.6C75.4,20.9,76.1,21.1,76.2,21.3z M44.6,24.2c-0.3,0.9-0.8,1.8-1.2,2.6 C38,37.2,32.5,47.5,26.9,57.7c-1.1,1.8-2,3.7-3.2,5.4c-0.2,0.3-0.4,0.5-0.4,0.4c-0.1-0.2,0.2-0.8,0.4-1.1c0.8-2,1.8-4,2.8-5.9 c5.1-10.1,10.4-20.1,15.7-30.1c0.4-0.9,1.1-2,1.9-2.6C44.5,23.3,44.8,23.5,44.6,24.2z"></path> <path class="st0" d="M54.5,48.5c-1.4,1.7-3.1,3.3-4.7,4.9c-0.9,0.9-1.9,1.9-2.9,2.7c-0.9,0.9-1.9,1.8-3,2.4 c-0.4,0.3-1.1,0.5-1.4,0c-0.3-0.3-0.3-1-0.1-1.5c0.5-2.2,1.8-4.4,2.9-6.4c-1.6,2-3.2,3.9-5.2,5.6c-1,0.9-2.1,1.6-3.2,2.2 c-0.7,0.4-1.6,0.8-2.4,0.4c-0.8-0.4-0.7-1.6-0.6-2.4c0.3-1.3,0.8-2.5,1.4-3.7c1.2-2.4,2.7-4.6,4.6-6.6c0.5-0.6,1.1-1,1.7-1.3 c0.3-0.1,1.4-0.3,0.9,0.4c-0.9,1.1-2.1,2.1-2.9,3.2c-1.7,2.1-3.2,4.4-4.2,6.9c-0.3,0.8-0.9,2.6-0.5,2.9c0.8,0.4,2.4-0.6,3.4-1.2 c2.2-1.4,4.1-3.3,5.8-5.3c0.8-1,1.7-2.2,2.4-3.4c0.2-0.2,1.5-2.4,1.7-2.7c0.4-0.5,0.9-0.9,1.4-1.2c0.6-0.2,1.2,0.2,0.8,0.8 c-0.3,0.5-0.8,1.1-1.2,1.7c-1.6,2.4-3.4,5.2-4.7,7.7c-0.5,1.1-1.2,2.2-1.3,3.4c0.4,0.4,2.9-1.6,3.4-2c1.2-1,2.2-2.1,3.4-3.1 c0.4-0.4,4.9-5.1,5.1-5C54.9,48,54.6,48.5,54.5,48.5z"></path> <path class="st0" d="M78.4,47.8c0,0-0.4,0.7-0.7,1c-1.4,1.6-2.9,3.2-4.5,4.6c-1.2,1.1-2.4,2.2-3.7,3.2c-1.2,0.9-2.5,1.8-4,2.2 c-1.2,0.3-2.6,0.3-3.5-0.7c-0.6-0.8-0.7-1.8-0.7-2.7c0.2-2.6,1.9-5,3.6-6.9c1.7-1.8,4-3.6,6.5-4.2c1.1-0.3,2.3-0.2,3.1,0.7 c0.8,1,0.6,2.5-0.1,3.6c-0.6,1.1-1.7,2.1-3.1,2c-0.3,0-0.6-0.2-0.3-0.6c0.3-0.3,0.7-0.3,1-0.4c1.1-0.6,2.1-1.6,2.4-2.8 c0.2-0.9-0.2-1.8-1.2-2.1c-0.8-0.3-1.7,0-2.5,0.3c-1.7,0.7-3.1,2.1-4.4,3.5c-1.7,1.9-3.4,4.4-3.8,6.9c-0.2,1.3,0.1,2.6,1.5,2.9 c1.2,0.2,2.5-0.4,3.6-1c2.3-1.3,4.3-3.2,6.2-5.1c0.9-0.8,1.7-1.7,2.6-2.6c0.4-0.4,0.8-0.8,1.1-1.2C77.7,48.3,78.2,47.8,78.4,47.8z "></path> <path class="st0" d="M84.2,50.1c-1.8,1.9-3.7,3.7-5.7,5.4c-0.6,0.5-4.7,4.2-5.7,3.3c-0.7-0.6-0.3-1.8,0.1-2.4 c1.7-3.4,3.8-6.8,5.7-10.2c0.4-0.6,0.9-1.2,1.6-1.6c0.2-0.1,0.6-0.3,0.8,0c0.1,0.3-0.1,0.6-0.2,0.7c-2.2,4.2-5.3,8.4-7.4,12.9 c1.1,0,2.4-1.1,3.2-1.7c1.3-1,2.6-2.1,3.7-3.1l3.4-3.2c0.1-0.1,2.1-2.1,2.2-2C86,48.2,84.4,49.9,84.2,50.1z M82.4,37.8 c0.3-0.6,0.9-1.1,1.4-1.1c0.4,0,0.6,0.5,0.3,1.1c-0.3,0.6-0.9,1.1-1.4,1C82.2,38.9,82.1,38.4,82.4,37.8z"></path> <path class="st0" d="M97.4,46.5c-0.3,0-0.6-0.7-0.8-0.9c-0.3-0.4-0.8-0.6-1.2-0.7c-1.2-0.3-2.6,0.3-3.6,0.9 c-3.1,1.6-5.5,4.6-7.7,7.5C83.2,54.5,81,57.8,80,59c-0.1,0.1-0.2,0.3-0.3,0.1c1.8-4.5,4.5-9.1,6.9-13.3c0.3-0.4,0.6-0.7,1.1-0.8 c0.3,0,0.7,0.2,0.6,0.6c-1,1.9-2.2,3.9-3.3,5.7c1.7-2.1,3.6-4.3,6.5-6.1c1.5-1,3.7-1.9,5.4-0.8c0.4,0.3,0.7,0.7,0.9,1.1 C97.8,45.8,97.8,46.4,97.4,46.5z"></path> <path class="st0" d="M111.1,48.5c-1.4,1.7-3.1,3.3-4.7,4.9c-0.9,0.9-1.9,1.9-2.9,2.7c-0.9,0.9-1.9,1.8-3,2.4 c-0.4,0.3-1.1,0.5-1.4,0c-0.3-0.3-0.3-1-0.1-1.5c0.5-2.2,1.8-4.4,2.9-6.4c-1.6,2-3.2,3.9-5.2,5.6c-1,0.9-2.1,1.6-3.2,2.2 c-0.7,0.4-1.6,0.8-2.4,0.4c-0.8-0.4-0.7-1.6-0.6-2.4c0.3-1.3,0.8-2.5,1.4-3.7c1.2-2.4,2.7-4.6,4.6-6.6c0.5-0.6,1.1-1,1.7-1.3 c0.3-0.1,1.4-0.3,0.9,0.4c-0.9,1.1-2.1,2.1-2.9,3.2c-1.7,2.1-3.2,4.4-4.2,6.9c-0.3,0.8-0.9,2.6-0.5,2.9c0.8,0.4,2.4-0.6,3.4-1.2 c2.2-1.4,4.1-3.3,5.8-5.3c0.8-1,1.7-2.2,2.4-3.4c0.2-0.2,1.5-2.4,1.7-2.7c0.4-0.5,0.9-0.9,1.4-1.2c0.6-0.2,1.2,0.2,0.8,0.8 c-0.3,0.5-0.8,1.1-1.2,1.7c-1.6,2.4-3.4,5.2-4.7,7.7c-0.5,1.1-1.2,2.2-1.3,3.4c0.4,0.4,2.9-1.6,3.4-2c1.2-1,2.2-2.1,3.4-3.1 c0.4-0.4,4.9-5.1,5.1-5C111.5,48,111.1,48.5,111.1,48.5z"></path> <path class="st0" d="M117.1,49.4c-2.1,1.8-4.1,3.6-6.2,5.3c-1.4,1.1-2.7,2.2-4,3.4c-2.6,4.8-5.1,9.7-8.2,14.1 c-1.6,2.2-3.2,4.4-5.2,6.2c-0.9,0.8-1.9,1.7-3.2,1.9c-1.5,0.1-1.5-1.6-1.2-2.6c0.7-2.6,2.4-4.9,4.1-6.9c1.7-2.2,3.7-4.1,5.7-6 c1.8-1.8,3.7-3.5,5.7-5.2c2.6-4.7,4.7-9.6,7.8-14.1c0.3-0.4,0.9-1.4,1.3-1.2c0.2,0.1-0.1,0.9-0.2,1.2c-1.7,3.9-4,7.6-5.9,11.5 c1.1-0.9,2.1-1.8,3.2-2.7c1.8-1.5,3.6-3.1,5.4-4.6c0.7-0.6,1.7-1.4,2.2-1.7C118.5,47.9,117.9,48.6,117.1,49.4z M101.7,64.6 c0.8-1.4,1.6-2.7,2.2-4.1c-3.4,3-6.7,6.1-9.7,9.7c-1.7,2-3.3,4.3-4.2,6.8c-0.3,0.6-0.9,3.2,0.7,2.2c1.1-0.6,2.2-1.6,3.1-2.5 C97.1,73.2,99.3,68.8,101.7,64.6z M115,37.8c0.3-0.6,0.9-1.1,1.4-1.1c0.5,0,0.6,0.5,0.3,1.1c-0.3,0.6-0.9,1.1-1.4,1 C114.9,38.9,114.7,38.4,115,37.8z"></path> <path class="st0" d="M133.8,48.2c-0.4,0.7-1.1,1.3-1.6,1.9c-0.9,0.9-1.8,1.8-2.7,2.7c-1.9,1.9-3.8,3.9-5.9,5.4 c-0.6,0.4-1.9,1.2-2-0.1c-0.1-1.1,0.4-2.2,0.9-3.1c0.4-0.7,0.7-1.5,1.2-2.2c-1.6,1.6-6.7,6.2-9.2,6.2c-1.5,0-1.6-1.6-1.4-2.7 c0.2-1.3,0.7-2.6,1.4-3.7c1.3-2.2,3.2-4.4,5.3-5.9c2.1-1.4,4.7-2.7,7.3-2.2c0.9,0.1,1.8,0.6,2.2,1.5c0.1,0.3,0.3,0.9-0.1,1 c-0.4,0.1-0.6-0.5-0.7-0.7c-1.2-1.9-3.7-1.5-5.5-0.7c-1.9,0.8-3.6,2.3-4.9,3.9c-1.4,1.7-2.6,3.8-3.5,5.8c-0.3,0.7-1.2,3.1,0.2,3 c2.8-0.3,7.1-4.2,9.1-6.5c0.6-0.7,1.2-1.4,1.8-2.1c0.1-0.1,0.2-0.4,0.1-0.4c0.3-0.4,0.7-0.8,1.2-1.1c0.2-0.1,1-0.4,1,0.2 c-0.1,0.5-0.4,1-0.7,1.4c-1.6,2.6-3.6,5.1-4.7,8c-0.1,0.1-0.1,0.4-0.1,0.5c0.5,0,1-0.4,1.4-0.8c0.6-0.4,1.2-0.9,1.7-1.4 c1.2-1.1,2.3-2.1,3.4-3.2c0.9-0.9,1.9-1.9,2.8-2.9c0.5-0.5,0.9-0.9,1.4-1.4l0.4-0.4C133.7,48.1,134,47.9,133.8,48.2z"></path> <path class="st0" d="M134.2,46.2c0.3-0.6,1.9-1.6,1.9-0.6c0,0.1-0.3,0.8-0.5,1c-1.1,1.6-2.3,3.7-4.9,7.6c0.4-0.4,0.7-0.7,1.1-1.1 c1.8-2.1,4-4.2,6.2-5.9c1-0.8,2.1-1.6,3.2-2.1c0.8-0.4,2.4-1.1,3.1-0.3c0.7,0.9-0.1,2.5-0.6,3.4c-1.4,2.5-3.2,4.7-4.7,7.1 c-0.5,0.9-1.6,2.3-1.7,3.1c-0.1,0.4,0.4,0.2,0.9-0.1c1.5-0.9,2.6-2.1,3.9-3.2c1.8-1.7,3.5-3.6,5.2-5.4c0.2-0.2,1.6-1.6,1.9-1.6 c-0.2,0.4-1.2,1.6-1.8,2.2c-1.7,1.8-3.4,3.6-5.2,5.4c-0.6,0.6-4.7,4.9-5.4,3c-0.3-0.8,0.3-2.5,0.8-3.5c0.6-1.2,1.4-2.4,2.1-3.6 c0.7-1.2,1.7-2.4,2.5-3.6c0.5-0.8,1.2-1.8,1.2-2.5c0.1-0.4-0.9-0.2-1.5,0c-1.9,0.8-3.6,2.1-5.2,3.5c-2.2,1.9-6.6,6.8-8.2,8.7 c-0.8,0.9-1.2,1.5-1.2,1.4c-0.3-0.1,0.8-2.2,0.9-2.4c0.6-1.1,1.2-2.2,1.9-3.4C131.4,50.6,132.7,48.5,134.2,46.2z"></path> <path class="st0" d="M162.7,49.1c-1.2,1.4-2.7,2.7-4.2,3.9c-1.3,0.9-2.7,1.7-4.2,1.9c-1.6,1.5-3.2,2.7-5.1,3.6 c-1.1,0.5-2.5,1.1-3.6,0.5c-1.1-0.6-1.3-1.9-1.2-3.1c0.1-2.6,1.6-5,3.2-6.9c1.4-1.6,3.1-3.1,4.9-4.1c0.9-0.5,2.1-0.9,3.1-1.1 c0.5-0.1,2-0.2,2,0.6c0,0.1-0.2-0.1-0.3-0.1c-0.6-0.3-1.2-0.2-1.7-0.1c-1.1,0.3-2,0.6-2.9,1.2c-2.2,1.4-3.9,3.7-5.4,6.1 c-0.6,1.1-1.2,2.2-1.6,3.6c-0.3,1-0.8,2.7,0.3,3.3c1.1,0.6,2.4-0.1,3.4-0.6c1.1-0.6,2.1-1.4,3.1-2.3c0.2-0.2,0.4-0.4,0.7-0.7 c-0.6-0.1-1.2-0.5-1.4-0.9c-0.6-1.1-0.1-2.6,0.4-3.7c0.5-1.3,1.3-2.3,2.3-3.2c1.1-1.1,4.1-3.1,4.6-0.4c0.2,0.9-0.3,2.6-1,3.8 c-0.9,1.4-2.1,2.8-3.2,4.1c1.4-0.4,2.7-1.2,3.9-2.1c1.4-1.1,2.7-2.2,3.9-3.6c0.1-0.1,0.7-0.8,0.9-0.7 C163.6,48.1,162.8,49,162.7,49.1z M153.4,54.6c1.6-1.7,2.9-3.7,3.9-5.7c0.4-0.7,1.1-2.5,0.4-2.9c-0.7-0.4-2.2,0.6-3,1.2 c-0.9,0.8-1.7,1.9-2.2,3c-0.5,1-1,2.5-0.5,3.5C152.4,54.3,152.9,54.5,153.4,54.6z"></path> <path class="st0" d="M185.5,49.1c-1.1,1.2-2.2,2.6-3.5,3.7c-1.9,1.9-4,3.6-6.4,5c-1.9,1.1-5.1,2.4-6.2-0.4c-0.6-1.6,0.1-3.5,0.8-5 c1.6-3.4,5.8-6.7,8.5-7.8c0.8-0.3,1.7-0.6,2.5-0.3c0.8,0.3,1.2,1.1,1.1,1.9c-0.1,0.9-0.6,1.7-1.4,2.4c-2,1.8-6.2,3.7-9.1,3.8 c-0.6,1.2-1.2,2.7-1.1,4.2c0.1,0.5,0.4,1.1,0.9,1.2c1.2,0.4,2.6-0.1,3.7-0.6c2.4-1.1,4.6-3,6.5-4.8c0.3-0.3,4.5-4.7,4.6-4.6 C186.2,48.2,185.8,48.7,185.5,49.1z M172.7,50.7c-0.3,0.5-0.6,1-0.9,1.5c0.6,0,1.2-0.1,1.9-0.3c2.5-0.7,5-2.1,6.7-4.1 c0.5-0.6,1.5-2.2,0.8-2.9c-0.8-0.8-2.1-0.1-2.9,0.4C175.9,46.5,174,48.5,172.7,50.7z"></path> <path class="st0" d="M186.6,46.2c0.3-0.6,1.9-1.6,1.9-0.6c0,0.1-0.3,0.8-0.5,1c-1.1,1.6-2.3,3.7-4.9,7.6c0.4-0.4,0.7-0.7,1.1-1.1 c1.8-2.1,4-4.2,6.2-5.9c1-0.8,2.1-1.6,3.2-2.1c0.8-0.4,2.4-1.1,3.1-0.3c0.8,0.9-0.1,2.5-0.6,3.4c-1.4,2.5-3.2,4.7-4.7,7.1 c-0.5,0.9-1.6,2.3-1.7,3.1c-0.1,0.4,0.4,0.2,0.9-0.1c1.5-0.9,2.6-2.1,3.9-3.2c1.8-1.7,3.5-3.6,5.2-5.4c0.2-0.2,1.6-1.6,1.9-1.6 c-0.2,0.4-1.2,1.6-1.8,2.2c-1.7,1.8-3.4,3.6-5.2,5.4c-0.6,0.6-4.7,4.9-5.4,3c-0.3-0.8,0.3-2.5,0.8-3.5c0.6-1.2,1.4-2.4,2.1-3.6 c0.8-1.2,1.7-2.4,2.5-3.6c0.5-0.8,1.2-1.8,1.2-2.5c0.1-0.4-0.9-0.2-1.5,0c-1.9,0.8-3.6,2.1-5.2,3.5c-2.2,1.9-6.6,6.8-8.2,8.7 c-0.8,0.9-1.2,1.5-1.3,1.4c-0.3-0.1,0.8-2.2,0.9-2.4c0.6-1.1,1.2-2.2,1.9-3.4C183.8,50.6,185,48.5,186.6,46.2z"></path> <path class="st0" d="M239.8,19c-1.8,5.1-4.6,9.7-7.2,14.5c-2.9,4.8-5.9,9.5-9.2,14.1c-2.6,3.7-5.4,7.4-8.5,10.7 c2.6-0.7,5.4-1.3,8.1-1.7c2.5-0.4,5.1-0.4,7.6-0.1c1.7,0.3,3.7,0.9,4.6,2.6c0.1,0.1,0.6,1.2,0.3,1.2c-0.1,0-0.3-0.6-0.5-0.8 c-0.7-0.9-1.7-1.4-2.7-1.6c-1.7-0.4-3.4-0.5-5.2-0.5c-4.4,0.1-8.7,0.8-13,1.8c-0.4,0.4-0.7,0.8-1.1,1.2c-1.7,1.7-3.7,3.2-6.1,4.1 c-0.6,0.3-1.3,0.4-1.8,0.3c-0.6-0.1-0.7-0.6-0.6-1.2c0.5-1.1,1.7-1.8,2.7-2.4c2.1-1.1,4.2-1.9,6.4-2.6c1.5-1.7,2.9-3.4,4.2-5.2 c3.4-4.6,6.4-9.3,9.4-14.1c4-6.2,7.3-12.9,10.9-19.3c0.4-0.6,0.8-1.2,1.2-1.7C239.9,17.8,239.9,18.7,239.8,19z M205.2,63.6 c-0.1,0.1-0.4,0.6-0.1,0.8c0.9,0.1,1.7-0.3,2.6-0.7c2.1-1.1,3.6-2.4,5.2-4.1c-1.6,0.4-3.1,1-4.6,1.7 C207.2,61.8,206,62.5,205.2,63.6z"></path> <path class="st0" d="M250.5,49.1c-1.3,1.4-2.7,2.7-4.2,3.9c-1.3,0.9-2.7,1.7-4.2,1.9c-1.6,1.5-3.2,2.7-5.1,3.6 c-1.1,0.5-2.5,1.1-3.6,0.5c-1.1-0.6-1.3-1.9-1.2-3.1c0.1-2.6,1.6-5,3.2-6.9c1.4-1.6,3.1-3.1,4.9-4.1c0.9-0.5,2.1-0.9,3.1-1.1 c0.5-0.1,2-0.2,2,0.6c0,0.1-0.2-0.1-0.3-0.1c-0.6-0.3-1.2-0.2-1.7-0.1c-1.1,0.3-2,0.6-2.9,1.2c-2.2,1.4-3.9,3.7-5.4,6.1 c-0.6,1.1-1.2,2.2-1.6,3.6c-0.3,1-0.8,2.7,0.3,3.3c1.1,0.6,2.4-0.1,3.4-0.6c1.1-0.6,2.1-1.4,3.1-2.3c0.2-0.2,0.4-0.4,0.7-0.7 c-0.6-0.1-1.2-0.5-1.4-0.9c-0.6-1.1-0.1-2.6,0.4-3.7c0.5-1.3,1.3-2.3,2.3-3.2c1.1-1.1,4.1-3.1,4.6-0.4c0.2,0.9-0.3,2.6-1,3.8 c-0.9,1.4-2.1,2.8-3.2,4.1c1.4-0.4,2.7-1.2,3.9-2.1c1.4-1.1,2.7-2.2,3.9-3.6c0.1-0.1,0.7-0.8,0.9-0.7 C251.3,48.1,250.5,49,250.5,49.1z M241.1,54.6c1.6-1.7,2.9-3.7,3.9-5.7c0.4-0.7,1.1-2.5,0.4-2.9c-0.7-0.4-2.2,0.6-3,1.2 c-0.9,0.8-1.7,1.9-2.2,3c-0.5,1-1,2.5-0.5,3.5C240.1,54.3,240.6,54.5,241.1,54.6z"></path> <path class="st0" d="M257.2,49.4c-2.1,1.8-4.1,3.6-6.2,5.3c-1.4,1.1-2.7,2.2-4,3.4c-2.6,4.8-5.1,9.7-8.2,14.1 c-1.6,2.2-3.2,4.4-5.2,6.2c-0.9,0.8-1.9,1.7-3.2,1.9c-1.5,0.1-1.5-1.6-1.3-2.6c0.7-2.6,2.4-4.9,4.1-6.9c1.7-2.2,3.7-4.1,5.7-6 c1.8-1.8,3.7-3.5,5.7-5.2c2.6-4.7,4.7-9.6,7.8-14.1c0.3-0.4,0.9-1.4,1.3-1.2c0.2,0.1-0.1,0.9-0.3,1.2c-1.7,3.9-4,7.6-5.9,11.5 c1.1-0.9,2.1-1.8,3.2-2.7c1.8-1.5,3.6-3.1,5.4-4.6c0.7-0.6,1.7-1.4,2.2-1.7C258.6,47.9,258,48.6,257.2,49.4z M241.8,64.6 c0.8-1.4,1.6-2.7,2.2-4.1c-3.4,3-6.7,6.1-9.7,9.7c-1.7,2-3.3,4.3-4.2,6.8c-0.3,0.6-0.9,3.2,0.8,2.2c1.1-0.6,2.2-1.6,3.1-2.5 C237.2,73.2,239.4,68.8,241.8,64.6z M255.2,37.8c0.3-0.6,0.9-1.1,1.4-1.1c0.5,0,0.6,0.5,0.3,1.1c-0.3,0.6-0.9,1.1-1.4,1 C255,38.9,254.9,38.4,255.2,37.8z"></path> <path class="st0" d="M274,48.2c-0.4,0.7-1.1,1.3-1.6,1.9c-0.9,0.9-1.8,1.8-2.7,2.7c-1.9,1.9-3.8,3.9-5.9,5.4 c-0.6,0.4-1.9,1.2-2-0.1c-0.1-1.1,0.4-2.2,0.9-3.1c0.4-0.7,0.7-1.5,1.2-2.2c-1.6,1.6-6.7,6.2-9.2,6.2c-1.5,0-1.6-1.6-1.4-2.7 c0.2-1.3,0.7-2.6,1.4-3.7c1.3-2.2,3.2-4.4,5.3-5.9c2.1-1.4,4.7-2.7,7.3-2.2c0.9,0.1,1.8,0.6,2.2,1.5c0.1,0.3,0.3,0.9-0.1,1 c-0.4,0.1-0.6-0.5-0.7-0.7c-1.3-1.9-3.7-1.5-5.5-0.7c-1.9,0.8-3.6,2.3-4.9,3.9c-1.4,1.7-2.6,3.8-3.5,5.8c-0.3,0.7-1.3,3.1,0.3,3 c2.8-0.3,7.1-4.2,9.1-6.5c0.6-0.7,1.3-1.4,1.8-2.1c0.1-0.1,0.2-0.4,0.1-0.4c0.3-0.4,0.7-0.8,1.2-1.1c0.3-0.1,1-0.4,1,0.2 c-0.1,0.5-0.4,1-0.7,1.4c-1.6,2.6-3.6,5.1-4.7,8c-0.1,0.1-0.1,0.4-0.1,0.5c0.5,0,1-0.4,1.4-0.8c0.6-0.4,1.2-0.9,1.8-1.4 c1.2-1.1,2.3-2.1,3.4-3.2c0.9-0.9,1.9-1.9,2.8-2.9c0.5-0.5,0.9-0.9,1.4-1.4l0.4-0.4C273.8,48.1,274.1,47.9,274,48.2z"></path> </g> <path class="st0" d="M21.7,78.8c82.1-11.3,165.5-11.7,248.3-9c0.8,0,1.5-0.5,0.4-0.5c-82.9-2.6-166.4-2.9-248.6,8.4 C20.9,77.8,20.6,79,21.7,78.8L21.7,78.8z"></path> </g> </svg> 